<?xml version="1.0" encoding="utf-8" standalone="no"?>
<!DOCTYPE svg PUBLIC "-//W3C//DTD SVG 1.1//EN"
  "http://www.w3.org/Graphics/SVG/1.1/DTD/svg11.dtd">
<svg xmlns:xlink="http://www.w3.org/1999/xlink" width="854.525625pt" height="494.443906pt" viewBox="0 0 854.525625 494.443906" xmlns="http://www.w3.org/2000/svg" version="1.1">
 <metadata>
  <rdf:RDF xmlns:dc="http://purl.org/dc/elements/1.1/" xmlns:cc="http://creativecommons.org/ns#" xmlns:rdf="http://www.w3.org/1999/02/22-rdf-syntax-ns#">
   <cc:Work>
    <dc:type rdf:resource="http://purl.org/dc/dcmitype/StillImage"/>
    <dc:date>2025-12-15T21:43:58.709835</dc:date>
    <dc:format>image/svg+xml</dc:format>
    <dc:creator>
     <cc:Agent>
      <dc:title>Matplotlib v3.10.8, https://matplotlib.org/</dc:title>
     </cc:Agent>
    </dc:creator>
   </cc:Work>
  </rdf:RDF>
 </metadata>
 <defs>
  <style type="text/css">*{stroke-linejoin: round; stroke-linecap: butt}</style>
 </defs>
 <g id="figure_1">
  <g id="patch_1">
   <path d="M 0 494.443906 
L 854.525625 494.443906 
L 854.525625 0 
L 0 0 
z
" style="fill: #ffffff"/>
  </g>
  <g id="axes_1">
   <g id="patch_2">
    <path d="M 41.710625 454.993125 
L 847.325625 454.993125 
L 847.325625 23.433125 
L 41.710625 23.433125 
z
" style="fill: #ffffff"/>
   </g>
   <g id="patch_3">
    <path d="M 78.329489 454.993125 
L 116.875661 454.993125 
L 116.875661 131.323125 
L 78.329489 131.323125 
z
" clip-path="url(#p5d8f5443be)" style="fill: #ff6600"/>
   </g>
   <g id="patch_4">
    <path d="M 232.514178 454.993125 
L 271.06035 454.993125 
L 271.06035 293.158125 
L 232.514178 293.158125 
z
" clip-path="url(#p5d8f5443be)" style="fill: #ff6600"/>
   </g>
   <g id="patch_5">
    <path d="M 386.698867 454.993125 
L 425.245039 454.993125 
L 425.245039 239.213125 
L 386.698867 239.213125 
z
" clip-path="url(#p5d8f5443be)" style="fill: #ff6600"/>
   </g>
   <g id="patch_6">
    <path d="M 540.883556 454.993125 
L 579.429728 454.993125 
L 579.429728 185.268125 
L 540.883556 185.268125 
z
" clip-path="url(#p5d8f5443be)" style="fill: #ff6600"/>
   </g>
   <g id="patch_7">
    <path d="M 695.068245 454.993125 
L 733.614417 454.993125 
L 733.614417 347.103125 
L 695.068245 347.103125 
z
" clip-path="url(#p5d8f5443be)" style="fill: #ff6600"/>
   </g>
   <g id="patch_8">
    <path d="M 116.875661 454.993125 
L 155.421833 454.993125 
L 155.421833 185.268125 
L 116.875661 185.268125 
z
" clip-path="url(#p5d8f5443be)" style="fill: #0066cc"/>
   </g>
   <g id="patch_9">
    <path d="M 271.06035 454.993125 
L 309.606522 454.993125 
L 309.606522 293.158125 
L 271.06035 293.158125 
z
" clip-path="url(#p5d8f5443be)" style="fill: #0066cc"/>
   </g>
   <g id="patch_10">
    <path d="M 425.245039 454.993125 
L 463.791211 454.993125 
L 463.791211 131.323125 
L 425.245039 131.323125 
z
" clip-path="url(#p5d8f5443be)" style="fill: #0066cc"/>
   </g>
   <g id="patch_11">
    <path d="M 579.429728 454.993125 
L 617.9759 454.993125 
L 617.9759 293.158125 
L 579.429728 293.158125 
z
" clip-path="url(#p5d8f5443be)" style="fill: #0066cc"/>
   </g>
   <g id="patch_12">
    <path d="M 733.614417 454.993125 
L 772.160589 454.993125 
L 772.160589 293.158125 
L 733.614417 293.158125 
z
" clip-path="url(#p5d8f5443be)" style="fill: #0066cc"/>
   </g>
   <g id="patch_13">
    <path d="M 155.421833 454.993125 
L 193.968005 454.993125 
L 193.968005 239.213125 
L 155.421833 239.213125 
z
" clip-path="url(#p5d8f5443be)" style="fill: #00aa44"/>
   </g>
   <g id="patch_14">
    <path d="M 309.606522 454.993125 
L 348.152694 454.993125 
L 348.152694 293.158125 
L 309.606522 293.158125 
z
" clip-path="url(#p5d8f5443be)" style="fill: #00aa44"/>
   </g>
   <g id="patch_15">
    <path d="M 463.791211 454.993125 
L 502.337383 454.993125 
L 502.337383 77.378125 
L 463.791211 77.378125 
z
" clip-path="url(#p5d8f5443be)" style="fill: #00aa44"/>
   </g>
   <g id="patch_16">
    <path d="M 617.9759 454.993125 
L 656.522072 454.993125 
L 656.522072 347.103125 
L 617.9759 347.103125 
z
" clip-path="url(#p5d8f5443be)" style="fill: #00aa44"/>
   </g>
   <g id="patch_17">
    <path d="M 772.160589 454.993125 
L 810.706761 454.993125 
L 810.706761 239.213125 
L 772.160589 239.213125 
z
" clip-path="url(#p5d8f5443be)" style="fill: #00aa44"/>
   </g>
   <g id="matplotlib.axis_1">
    <g id="xtick_1">
     <g id="line2d_1">
      <defs>
       <path id="m36aec45eb9" d="M 0 0 
L 0 3.5 
" style="stroke: #000000; stroke-width: 0.8"/>
      </defs>
      <g>
       <use xlink:href="#m36aec45eb9" x="136.148747" y="454.993125" style="stroke: #000000; stroke-width: 0.8"/>
      </g>
     </g>
     <g id="text_1">
      <!-- Performance -->
      <g transform="translate(104.573591 469.847812) scale(0.11 -0.11)">
       <defs>
        <path id="HelveticaNeue-50" d="M 1107 2381 
L 1107 4058 
L 2298 4058 
Q 2816 4058 3056 3843 
Q 3296 3629 3296 3219 
Q 3296 2810 3056 2592 
Q 2816 2374 2298 2381 
L 1107 2381 
z
M 499 4570 
L 499 0 
L 1107 0 
L 1107 1869 
L 2502 1869 
Q 3194 1862 3549 2220 
Q 3904 2579 3904 3219 
Q 3904 3859 3549 4214 
Q 3194 4570 2502 4570 
L 499 4570 
z
" transform="scale(0.015625)"/>
        <path id="HelveticaNeue-65" d="M 2707 1971 
L 806 1971 
Q 819 2163 889 2332 
Q 960 2502 1081 2630 
Q 1203 2758 1372 2832 
Q 1542 2906 1754 2906 
Q 1958 2906 2128 2832 
Q 2298 2758 2422 2633 
Q 2547 2509 2620 2336 
Q 2694 2163 2707 1971 
z
M 3232 1050 
L 2694 1050 
Q 2624 723 2403 563 
Q 2182 403 1837 403 
Q 1568 403 1369 492 
Q 1171 582 1043 732 
Q 915 883 857 1078 
Q 800 1274 806 1491 
L 3283 1491 
Q 3296 1792 3229 2125 
Q 3162 2458 2986 2739 
Q 2810 3021 2518 3203 
Q 2227 3386 1786 3386 
Q 1446 3386 1161 3258 
Q 877 3130 669 2899 
Q 461 2669 345 2355 
Q 230 2042 230 1664 
Q 243 1286 342 966 
Q 442 646 640 416 
Q 838 186 1129 58 
Q 1421 -70 1818 -70 
Q 2381 -70 2752 211 
Q 3123 493 3232 1050 
z
" transform="scale(0.015625)"/>
        <path id="HelveticaNeue-72" d="M 390 3309 
L 390 0 
L 934 0 
L 934 1472 
Q 934 1792 998 2038 
Q 1062 2285 1203 2457 
Q 1344 2630 1574 2720 
Q 1805 2810 2131 2810 
L 2131 3386 
Q 1690 3398 1402 3206 
Q 1114 3014 915 2611 
L 902 2611 
L 902 3309 
L 390 3309 
z
" transform="scale(0.015625)"/>
        <path id="HelveticaNeue-66" d="M 634 2829 
L 634 0 
L 1178 0 
L 1178 2829 
L 1818 2829 
L 1818 3309 
L 1178 3309 
L 1178 3770 
Q 1178 3987 1286 4064 
Q 1395 4141 1594 4141 
Q 1664 4141 1747 4131 
Q 1830 4122 1901 4096 
L 1901 4570 
Q 1824 4595 1725 4608 
Q 1626 4621 1549 4621 
Q 1101 4621 867 4413 
Q 634 4205 634 3802 
L 634 3309 
L 77 3309 
L 77 2829 
L 634 2829 
z
" transform="scale(0.015625)"/>
        <path id="HelveticaNeue-6f" d="M 806 1651 
Q 806 1952 886 2185 
Q 966 2419 1107 2579 
Q 1248 2739 1437 2822 
Q 1626 2906 1837 2906 
Q 2048 2906 2237 2822 
Q 2426 2739 2566 2579 
Q 2707 2419 2787 2185 
Q 2867 1952 2867 1651 
Q 2867 1350 2787 1116 
Q 2707 883 2566 726 
Q 2426 570 2237 486 
Q 2048 403 1837 403 
Q 1626 403 1437 486 
Q 1248 570 1107 726 
Q 966 883 886 1116 
Q 806 1350 806 1651 
z
M 230 1651 
Q 230 1286 332 972 
Q 435 659 640 425 
Q 845 192 1145 61 
Q 1446 -70 1837 -70 
Q 2234 -70 2531 61 
Q 2829 192 3033 425 
Q 3238 659 3340 972 
Q 3443 1286 3443 1651 
Q 3443 2016 3340 2333 
Q 3238 2650 3033 2883 
Q 2829 3117 2531 3251 
Q 2234 3386 1837 3386 
Q 1446 3386 1145 3251 
Q 845 3117 640 2883 
Q 435 2650 332 2333 
Q 230 2016 230 1651 
z
" transform="scale(0.015625)"/>
        <path id="HelveticaNeue-6d" d="M 410 3309 
L 410 0 
L 954 0 
L 954 2061 
Q 954 2157 1002 2301 
Q 1050 2445 1155 2579 
Q 1261 2714 1430 2810 
Q 1600 2906 1837 2906 
Q 2022 2906 2140 2851 
Q 2259 2797 2329 2697 
Q 2400 2598 2429 2464 
Q 2458 2330 2458 2170 
L 2458 0 
L 3002 0 
L 3002 2061 
Q 3002 2445 3232 2675 
Q 3462 2906 3866 2906 
Q 4064 2906 4189 2848 
Q 4314 2790 4384 2691 
Q 4454 2592 4480 2457 
Q 4506 2323 4506 2170 
L 4506 0 
L 5050 0 
L 5050 2426 
Q 5050 2682 4970 2864 
Q 4890 3046 4746 3161 
Q 4602 3277 4400 3331 
Q 4198 3386 3949 3386 
Q 3622 3386 3350 3238 
Q 3078 3091 2912 2822 
Q 2810 3130 2560 3258 
Q 2310 3386 2003 3386 
Q 1306 3386 934 2822 
L 922 2822 
L 922 3309 
L 410 3309 
z
" transform="scale(0.015625)"/>
        <path id="HelveticaNeue-61" d="M 3341 13 
Q 3200 -70 2950 -70 
Q 2739 -70 2614 48 
Q 2490 166 2490 435 
Q 2266 166 1968 48 
Q 1670 -70 1325 -70 
Q 1101 -70 899 -19 
Q 698 32 550 141 
Q 403 250 316 426 
Q 230 602 230 851 
Q 230 1133 326 1312 
Q 422 1491 579 1603 
Q 736 1715 937 1772 
Q 1139 1830 1350 1869 
Q 1574 1914 1776 1936 
Q 1978 1958 2131 2000 
Q 2285 2042 2374 2122 
Q 2464 2202 2464 2355 
Q 2464 2534 2397 2643 
Q 2330 2752 2224 2809 
Q 2118 2867 1987 2886 
Q 1856 2906 1728 2906 
Q 1382 2906 1152 2774 
Q 922 2643 902 2278 
L 358 2278 
Q 371 2586 486 2797 
Q 602 3008 794 3139 
Q 986 3270 1232 3328 
Q 1478 3386 1760 3386 
Q 1984 3386 2205 3354 
Q 2426 3322 2605 3222 
Q 2784 3123 2893 2944 
Q 3002 2765 3002 2477 
L 3002 774 
Q 3002 582 3024 492 
Q 3046 403 3174 403 
Q 3245 403 3341 435 
L 3341 13 
z
M 2458 1709 
Q 2355 1632 2188 1597 
Q 2022 1562 1840 1539 
Q 1658 1517 1472 1488 
Q 1286 1459 1139 1395 
Q 992 1331 899 1212 
Q 806 1094 806 890 
Q 806 755 860 662 
Q 915 570 1001 512 
Q 1088 454 1203 428 
Q 1318 403 1446 403 
Q 1715 403 1907 476 
Q 2099 550 2220 662 
Q 2342 774 2400 905 
Q 2458 1037 2458 1152 
L 2458 1709 
z
" transform="scale(0.015625)"/>
        <path id="HelveticaNeue-6e" d="M 410 3309 
L 410 0 
L 954 0 
L 954 1869 
Q 954 2093 1014 2281 
Q 1075 2470 1196 2611 
Q 1318 2752 1500 2829 
Q 1683 2906 1933 2906 
Q 2246 2906 2425 2726 
Q 2605 2547 2605 2240 
L 2605 0 
L 3149 0 
L 3149 2176 
Q 3149 2445 3094 2665 
Q 3040 2886 2905 3046 
Q 2771 3206 2553 3296 
Q 2336 3386 2010 3386 
Q 1274 3386 934 2784 
L 922 2784 
L 922 3309 
L 410 3309 
z
" transform="scale(0.015625)"/>
        <path id="HelveticaNeue-63" d="M 2656 2246 
L 3219 2246 
Q 3187 2541 3065 2755 
Q 2944 2970 2755 3110 
Q 2566 3251 2320 3318 
Q 2074 3386 1792 3386 
Q 1402 3386 1107 3248 
Q 813 3110 617 2870 
Q 422 2630 326 2307 
Q 230 1984 230 1613 
Q 230 1242 329 931 
Q 429 621 624 397 
Q 819 173 1110 51 
Q 1402 -70 1779 -70 
Q 2413 -70 2781 262 
Q 3149 595 3238 1210 
L 2682 1210 
Q 2630 826 2403 614 
Q 2176 403 1773 403 
Q 1517 403 1331 505 
Q 1146 608 1030 777 
Q 915 947 860 1164 
Q 806 1382 806 1613 
Q 806 1862 857 2096 
Q 909 2330 1027 2509 
Q 1146 2688 1344 2797 
Q 1542 2906 1837 2906 
Q 2182 2906 2387 2733 
Q 2592 2560 2656 2246 
z
" transform="scale(0.015625)"/>
       </defs>
       <use xlink:href="#HelveticaNeue-50"/>
       <use xlink:href="#HelveticaNeue-65" transform="translate(64.799988 0)"/>
       <use xlink:href="#HelveticaNeue-72" transform="translate(118.499985 0)"/>
       <use xlink:href="#HelveticaNeue-66" transform="translate(151.799973 0)"/>
       <use xlink:href="#HelveticaNeue-6f" transform="translate(181.399963 0)"/>
       <use xlink:href="#HelveticaNeue-72" transform="translate(238.799957 0)"/>
       <use xlink:href="#HelveticaNeue-6d" transform="translate(272.099945 0)"/>
       <use xlink:href="#HelveticaNeue-61" transform="translate(357.399933 0)"/>
       <use xlink:href="#HelveticaNeue-6e" transform="translate(411.09993 0)"/>
       <use xlink:href="#HelveticaNeue-63" transform="translate(466.699921 0)"/>
       <use xlink:href="#HelveticaNeue-65" transform="translate(520.399918 0)"/>
      </g>
     </g>
    </g>
    <g id="xtick_2">
     <g id="line2d_2">
      <g>
       <use xlink:href="#m36aec45eb9" x="290.333436" y="454.993125" style="stroke: #000000; stroke-width: 0.8"/>
      </g>
     </g>
     <g id="text_2">
      <!-- Resource Opt. -->
      <g transform="translate(254.773358 470.033437) scale(0.11 -0.11)">
       <defs>
        <path id="HelveticaNeue-52" d="M 499 4570 
L 499 0 
L 1107 0 
L 1107 1952 
L 2592 1952 
Q 2816 1952 2950 1885 
Q 3085 1818 3168 1706 
Q 3251 1594 3289 1443 
Q 3328 1293 3354 1126 
Q 3386 960 3392 787 
Q 3398 614 3404 464 
Q 3411 314 3433 192 
Q 3456 70 3520 0 
L 4198 0 
Q 4102 115 4054 265 
Q 4006 416 3980 582 
Q 3955 749 3948 921 
Q 3942 1094 3930 1261 
Q 3910 1427 3875 1580 
Q 3840 1734 3766 1859 
Q 3693 1984 3568 2073 
Q 3443 2163 3245 2202 
L 3245 2214 
Q 3661 2330 3849 2643 
Q 4038 2957 4038 3373 
Q 4038 3930 3670 4250 
Q 3302 4570 2650 4570 
L 499 4570 
z
M 2374 2464 
L 1107 2464 
L 1107 4058 
L 2618 4058 
Q 3046 4058 3238 3840 
Q 3430 3622 3430 3277 
Q 3430 3027 3344 2870 
Q 3258 2714 3114 2621 
Q 2970 2528 2778 2496 
Q 2586 2464 2374 2464 
z
" transform="scale(0.015625)"/>
        <path id="HelveticaNeue-73" d="M 742 1043 
L 198 1043 
Q 211 736 326 521 
Q 442 307 634 176 
Q 826 45 1075 -12 
Q 1325 -70 1600 -70 
Q 1850 -70 2102 -22 
Q 2355 26 2556 147 
Q 2758 269 2883 467 
Q 3008 666 3008 966 
Q 3008 1203 2915 1363 
Q 2822 1523 2672 1628 
Q 2522 1734 2326 1798 
Q 2131 1862 1926 1907 
Q 1734 1952 1542 1993 
Q 1350 2035 1196 2096 
Q 1043 2157 944 2249 
Q 845 2342 845 2483 
Q 845 2611 909 2691 
Q 973 2771 1075 2819 
Q 1178 2867 1302 2886 
Q 1427 2906 1549 2906 
Q 1683 2906 1814 2877 
Q 1946 2848 2054 2784 
Q 2163 2720 2233 2614 
Q 2304 2509 2317 2349 
L 2861 2349 
Q 2842 2650 2733 2851 
Q 2624 3053 2441 3171 
Q 2259 3290 2022 3338 
Q 1786 3386 1504 3386 
Q 1286 3386 1065 3331 
Q 845 3277 669 3165 
Q 493 3053 381 2873 
Q 269 2694 269 2445 
Q 269 2125 429 1945 
Q 589 1766 829 1667 
Q 1069 1568 1350 1513 
Q 1632 1459 1872 1392 
Q 2112 1325 2272 1216 
Q 2432 1107 2432 896 
Q 2432 742 2355 643 
Q 2278 544 2160 493 
Q 2042 442 1901 422 
Q 1760 403 1632 403 
Q 1466 403 1309 435 
Q 1152 467 1027 540 
Q 902 614 825 739 
Q 749 864 742 1043 
z
" transform="scale(0.015625)"/>
        <path id="HelveticaNeue-75" d="M 3149 0 
L 3149 3309 
L 2605 3309 
L 2605 1440 
Q 2605 1216 2544 1027 
Q 2483 838 2361 697 
Q 2240 557 2057 480 
Q 1875 403 1626 403 
Q 1312 403 1133 582 
Q 954 762 954 1069 
L 954 3309 
L 410 3309 
L 410 1133 
Q 410 864 464 643 
Q 518 422 652 262 
Q 787 102 1004 16 
Q 1222 -70 1549 -70 
Q 1914 -70 2182 74 
Q 2451 218 2624 525 
L 2637 525 
L 2637 0 
L 3149 0 
z
" transform="scale(0.015625)"/>
        <path id="HelveticaNeue-20" transform="scale(0.015625)"/>
        <path id="HelveticaNeue-4f" d="M 851 2285 
Q 851 2630 940 2966 
Q 1030 3302 1222 3571 
Q 1414 3840 1715 4003 
Q 2016 4166 2432 4166 
Q 2848 4166 3149 4003 
Q 3450 3840 3642 3571 
Q 3834 3302 3923 2966 
Q 4013 2630 4013 2285 
Q 4013 1939 3923 1603 
Q 3834 1267 3642 998 
Q 3450 730 3149 566 
Q 2848 403 2432 403 
Q 2016 403 1715 566 
Q 1414 730 1222 998 
Q 1030 1267 940 1603 
Q 851 1939 851 2285 
z
M 243 2285 
Q 243 1818 380 1386 
Q 518 954 793 621 
Q 1069 288 1478 93 
Q 1888 -102 2432 -102 
Q 2976 -102 3385 93 
Q 3795 288 4070 621 
Q 4346 954 4483 1386 
Q 4621 1818 4621 2285 
Q 4621 2752 4483 3184 
Q 4346 3616 4070 3949 
Q 3795 4282 3385 4480 
Q 2976 4678 2432 4678 
Q 1888 4678 1478 4480 
Q 1069 4282 793 3949 
Q 518 3616 380 3184 
Q 243 2752 243 2285 
z
" transform="scale(0.015625)"/>
        <path id="HelveticaNeue-70" d="M 429 3309 
L 429 -1261 
L 973 -1261 
L 973 442 
L 986 442 
Q 1075 294 1206 195 
Q 1338 96 1485 38 
Q 1632 -19 1782 -44 
Q 1933 -70 2054 -70 
Q 2432 -70 2717 64 
Q 3002 198 3190 432 
Q 3379 666 3472 979 
Q 3565 1293 3565 1645 
Q 3565 1997 3469 2310 
Q 3373 2624 3184 2864 
Q 2995 3104 2710 3245 
Q 2426 3386 2042 3386 
Q 1696 3386 1408 3261 
Q 1120 3136 986 2861 
L 973 2861 
L 973 3309 
L 429 3309 
z
M 2989 1683 
Q 2989 1440 2937 1209 
Q 2886 979 2771 800 
Q 2656 621 2467 512 
Q 2278 403 1997 403 
Q 1715 403 1516 508 
Q 1318 614 1193 787 
Q 1069 960 1011 1187 
Q 954 1414 954 1658 
Q 954 1888 1008 2112 
Q 1062 2336 1184 2512 
Q 1306 2688 1498 2797 
Q 1690 2906 1965 2906 
Q 2227 2906 2422 2803 
Q 2618 2701 2742 2528 
Q 2867 2355 2928 2134 
Q 2989 1914 2989 1683 
z
" transform="scale(0.015625)"/>
        <path id="HelveticaNeue-74" d="M 1165 3309 
L 1165 4301 
L 621 4301 
L 621 3309 
L 58 3309 
L 58 2829 
L 621 2829 
L 621 723 
Q 621 493 665 352 
Q 710 211 803 134 
Q 896 58 1046 29 
Q 1197 0 1408 0 
L 1824 0 
L 1824 480 
L 1574 480 
Q 1446 480 1366 489 
Q 1286 499 1241 531 
Q 1197 563 1181 620 
Q 1165 678 1165 774 
L 1165 2829 
L 1824 2829 
L 1824 3309 
L 1165 3309 
z
" transform="scale(0.015625)"/>
        <path id="HelveticaNeue-2e" d="M 531 710 
L 531 0 
L 1242 0 
L 1242 710 
L 531 710 
z
" transform="scale(0.015625)"/>
       </defs>
       <use xlink:href="#HelveticaNeue-52"/>
       <use xlink:href="#HelveticaNeue-65" transform="translate(68.499985 0)"/>
       <use xlink:href="#HelveticaNeue-73" transform="translate(122.199982 0)"/>
       <use xlink:href="#HelveticaNeue-6f" transform="translate(172.199966 0)"/>
       <use xlink:href="#HelveticaNeue-75" transform="translate(229.59996 0)"/>
       <use xlink:href="#HelveticaNeue-72" transform="translate(285.199951 0)"/>
       <use xlink:href="#HelveticaNeue-63" transform="translate(316.749939 0)"/>
       <use xlink:href="#HelveticaNeue-65" transform="translate(370.449936 0)"/>
       <use xlink:href="#HelveticaNeue-20" transform="translate(424.149933 0)"/>
       <use xlink:href="#HelveticaNeue-4f" transform="translate(451.949921 0)"/>
       <use xlink:href="#HelveticaNeue-70" transform="translate(527.949905 0)"/>
       <use xlink:href="#HelveticaNeue-74" transform="translate(587.249893 0)"/>
       <use xlink:href="#HelveticaNeue-2e" transform="translate(618.749878 0)"/>
      </g>
     </g>
    </g>
    <g id="xtick_3">
     <g id="line2d_3">
      <g>
       <use xlink:href="#m36aec45eb9" x="444.518125" y="454.993125" style="stroke: #000000; stroke-width: 0.8"/>
      </g>
     </g>
     <g id="text_3">
      <!-- Operations -->
      <g transform="translate(417.419453 470.033437) scale(0.11 -0.11)">
       <defs>
        <path id="HelveticaNeue-69" d="M 986 3904 
L 986 4570 
L 442 4570 
L 442 3904 
L 986 3904 
z
M 442 3309 
L 442 0 
L 986 0 
L 986 3309 
L 442 3309 
z
" transform="scale(0.015625)"/>
       </defs>
       <use xlink:href="#HelveticaNeue-4f"/>
       <use xlink:href="#HelveticaNeue-70" transform="translate(75.999985 0)"/>
       <use xlink:href="#HelveticaNeue-65" transform="translate(135.299973 0)"/>
       <use xlink:href="#HelveticaNeue-72" transform="translate(188.999969 0)"/>
       <use xlink:href="#HelveticaNeue-61" transform="translate(222.299957 0)"/>
       <use xlink:href="#HelveticaNeue-74" transform="translate(275.999954 0)"/>
       <use xlink:href="#HelveticaNeue-69" transform="translate(307.499939 0)"/>
       <use xlink:href="#HelveticaNeue-6f" transform="translate(329.699936 0)"/>
       <use xlink:href="#HelveticaNeue-6e" transform="translate(387.09993 0)"/>
       <use xlink:href="#HelveticaNeue-73" transform="translate(442.699921 0)"/>
      </g>
     </g>
    </g>
    <g id="xtick_4">
     <g id="line2d_4">
      <g>
       <use xlink:href="#m36aec45eb9" x="598.702814" y="454.993125" style="stroke: #000000; stroke-width: 0.8"/>
      </g>
     </g>
     <g id="text_4">
      <!-- Scalability -->
      <g transform="translate(573.649455 470.033437) scale(0.11 -0.11)">
       <defs>
        <path id="HelveticaNeue-53" d="M 3142 3232 
L 3718 3232 
Q 3706 3610 3574 3882 
Q 3443 4154 3216 4333 
Q 2989 4512 2688 4595 
Q 2387 4678 2035 4678 
Q 1722 4678 1424 4598 
Q 1126 4518 892 4355 
Q 659 4192 518 3939 
Q 378 3686 378 3341 
Q 378 3027 502 2819 
Q 627 2611 835 2480 
Q 1043 2349 1305 2269 
Q 1568 2189 1840 2128 
Q 2112 2067 2374 2009 
Q 2637 1952 2845 1859 
Q 3053 1766 3177 1619 
Q 3302 1472 3302 1235 
Q 3302 986 3200 826 
Q 3098 666 2931 573 
Q 2765 480 2557 441 
Q 2349 403 2144 403 
Q 1888 403 1645 467 
Q 1402 531 1219 665 
Q 1037 800 925 1008 
Q 813 1216 813 1504 
L 237 1504 
Q 237 1088 387 784 
Q 538 480 797 285 
Q 1056 90 1398 -6 
Q 1741 -102 2125 -102 
Q 2438 -102 2755 -28 
Q 3072 45 3328 208 
Q 3584 371 3747 630 
Q 3910 890 3910 1254 
Q 3910 1594 3785 1818 
Q 3661 2042 3453 2189 
Q 3245 2336 2982 2422 
Q 2720 2509 2448 2573 
Q 2176 2637 1913 2691 
Q 1651 2746 1443 2829 
Q 1235 2912 1110 3043 
Q 986 3174 986 3386 
Q 986 3610 1072 3760 
Q 1158 3910 1302 4000 
Q 1446 4090 1632 4128 
Q 1818 4166 2010 4166 
Q 2483 4166 2787 3945 
Q 3091 3725 3142 3232 
z
" transform="scale(0.015625)"/>
        <path id="HelveticaNeue-6c" d="M 442 4570 
L 442 0 
L 986 0 
L 986 4570 
L 442 4570 
z
" transform="scale(0.015625)"/>
        <path id="HelveticaNeue-62" d="M 429 4570 
L 429 0 
L 973 0 
L 973 442 
L 986 442 
Q 1075 294 1206 195 
Q 1338 96 1485 38 
Q 1632 -19 1782 -44 
Q 1933 -70 2054 -70 
Q 2432 -70 2717 64 
Q 3002 198 3190 432 
Q 3379 666 3472 979 
Q 3565 1293 3565 1645 
Q 3565 1997 3469 2310 
Q 3373 2624 3184 2864 
Q 2995 3104 2710 3245 
Q 2426 3386 2042 3386 
Q 1696 3386 1408 3261 
Q 1120 3136 986 2861 
L 973 2861 
L 973 4570 
L 429 4570 
z
M 2989 1683 
Q 2989 1440 2937 1209 
Q 2886 979 2771 800 
Q 2656 621 2467 512 
Q 2278 403 1997 403 
Q 1715 403 1516 508 
Q 1318 614 1193 787 
Q 1069 960 1011 1187 
Q 954 1414 954 1658 
Q 954 1888 1008 2112 
Q 1062 2336 1184 2512 
Q 1306 2688 1498 2797 
Q 1690 2906 1965 2906 
Q 2227 2906 2422 2803 
Q 2618 2701 2742 2528 
Q 2867 2355 2928 2134 
Q 2989 1914 2989 1683 
z
" transform="scale(0.015625)"/>
        <path id="HelveticaNeue-79" d="M 1709 -442 
Q 1613 -685 1520 -851 
Q 1427 -1018 1315 -1123 
Q 1203 -1229 1065 -1277 
Q 928 -1325 749 -1325 
Q 653 -1325 557 -1312 
Q 461 -1299 371 -1267 
L 371 -768 
Q 442 -800 534 -822 
Q 627 -845 691 -845 
Q 858 -845 970 -765 
Q 1082 -685 1139 -538 
L 1363 19 
L 51 3309 
L 666 3309 
L 1632 602 
L 1645 602 
L 2573 3309 
L 3149 3309 
L 1709 -442 
z
" transform="scale(0.015625)"/>
       </defs>
       <use xlink:href="#HelveticaNeue-53"/>
       <use xlink:href="#HelveticaNeue-63" transform="translate(64.799988 0)"/>
       <use xlink:href="#HelveticaNeue-61" transform="translate(118.499985 0)"/>
       <use xlink:href="#HelveticaNeue-6c" transform="translate(172.199982 0)"/>
       <use xlink:href="#HelveticaNeue-61" transform="translate(194.399979 0)"/>
       <use xlink:href="#HelveticaNeue-62" transform="translate(248.099976 0)"/>
       <use xlink:href="#HelveticaNeue-69" transform="translate(307.399963 0)"/>
       <use xlink:href="#HelveticaNeue-6c" transform="translate(329.59996 0)"/>
       <use xlink:href="#HelveticaNeue-69" transform="translate(351.799957 0)"/>
       <use xlink:href="#HelveticaNeue-74" transform="translate(373.999954 0)"/>
       <use xlink:href="#HelveticaNeue-79" transform="translate(405.499939 0)"/>
      </g>
     </g>
    </g>
    <g id="xtick_5">
     <g id="line2d_5">
      <g>
       <use xlink:href="#m36aec45eb9" x="752.887503" y="454.993125" style="stroke: #000000; stroke-width: 0.8"/>
      </g>
     </g>
     <g id="text_5">
      <!-- Economic -->
      <g transform="translate(728.335159 469.847812) scale(0.11 -0.11)">
       <defs>
        <path id="HelveticaNeue-45" d="M 499 4570 
L 499 0 
L 3674 0 
L 3674 512 
L 1107 512 
L 1107 2093 
L 3482 2093 
L 3482 2605 
L 1107 2605 
L 1107 4058 
L 3654 4058 
L 3654 4570 
L 499 4570 
z
" transform="scale(0.015625)"/>
       </defs>
       <use xlink:href="#HelveticaNeue-45"/>
       <use xlink:href="#HelveticaNeue-63" transform="translate(61.099991 0)"/>
       <use xlink:href="#HelveticaNeue-6f" transform="translate(114.799988 0)"/>
       <use xlink:href="#HelveticaNeue-6e" transform="translate(172.199982 0)"/>
       <use xlink:href="#HelveticaNeue-6f" transform="translate(227.799973 0)"/>
       <use xlink:href="#HelveticaNeue-6d" transform="translate(285.199966 0)"/>
       <use xlink:href="#HelveticaNeue-69" transform="translate(370.499954 0)"/>
       <use xlink:href="#HelveticaNeue-63" transform="translate(392.699951 0)"/>
      </g>
     </g>
    </g>
    <g id="text_6">
     <!-- PROSE Dimension -->
     <g transform="translate(394.394687 484.879531) scale(0.12 -0.12)">
      <defs>
       <path id="HelveticaNeue-44" d="M 1107 512 
L 1107 4058 
L 2131 4058 
Q 2554 4058 2842 3939 
Q 3130 3821 3312 3593 
Q 3494 3366 3574 3043 
Q 3654 2720 3654 2310 
Q 3654 1888 3568 1590 
Q 3482 1293 3347 1094 
Q 3213 896 3043 781 
Q 2874 666 2701 605 
Q 2528 544 2374 528 
Q 2221 512 2118 512 
L 1107 512 
z
M 499 4570 
L 499 0 
L 2067 0 
Q 2637 0 3053 160 
Q 3469 320 3737 624 
Q 4006 928 4134 1373 
Q 4262 1818 4262 2394 
Q 4262 3494 3692 4032 
Q 3123 4570 2067 4570 
L 499 4570 
z
" transform="scale(0.015625)"/>
      </defs>
      <use xlink:href="#HelveticaNeue-50"/>
      <use xlink:href="#HelveticaNeue-52" transform="translate(64.799988 0)"/>
      <use xlink:href="#HelveticaNeue-4f" transform="translate(133.299973 0)"/>
      <use xlink:href="#HelveticaNeue-53" transform="translate(209.299957 0)"/>
      <use xlink:href="#HelveticaNeue-45" transform="translate(274.099945 0)"/>
      <use xlink:href="#HelveticaNeue-20" transform="translate(335.199936 0)"/>
      <use xlink:href="#HelveticaNeue-44" transform="translate(362.999924 0)"/>
      <use xlink:href="#HelveticaNeue-69" transform="translate(433.399918 0)"/>
      <use xlink:href="#HelveticaNeue-6d" transform="translate(455.599915 0)"/>
      <use xlink:href="#HelveticaNeue-65" transform="translate(540.899902 0)"/>
      <use xlink:href="#HelveticaNeue-6e" transform="translate(594.599899 0)"/>
      <use xlink:href="#HelveticaNeue-73" transform="translate(650.19989 0)"/>
      <use xlink:href="#HelveticaNeue-69" transform="translate(700.199875 0)"/>
      <use xlink:href="#HelveticaNeue-6f" transform="translate(722.399872 0)"/>
      <use xlink:href="#HelveticaNeue-6e" transform="translate(779.799866 0)"/>
     </g>
    </g>
   </g>
   <g id="matplotlib.axis_2">
    <g id="ytick_1">
     <g id="line2d_6">
      <defs>
       <path id="mbe4026402b" d="M 0 0 
L -3.5 0 
" style="stroke: #000000; stroke-width: 0.8"/>
      </defs>
      <g>
       <use xlink:href="#mbe4026402b" x="41.710625" y="454.993125" style="stroke: #000000; stroke-width: 0.8"/>
      </g>
     </g>
     <g id="text_7">
      <!-- 0 -->
      <g transform="translate(28.595312 458.920469) scale(0.11 -0.11)">
       <defs>
        <path id="HelveticaNeue-30" d="M 845 2234 
Q 845 2400 848 2601 
Q 851 2803 880 3004 
Q 909 3206 963 3398 
Q 1018 3590 1123 3734 
Q 1229 3878 1389 3968 
Q 1549 4058 1779 4058 
Q 2010 4058 2170 3968 
Q 2330 3878 2435 3734 
Q 2541 3590 2595 3398 
Q 2650 3206 2678 3004 
Q 2707 2803 2710 2601 
Q 2714 2400 2714 2234 
Q 2714 1978 2698 1661 
Q 2682 1344 2595 1065 
Q 2509 787 2317 595 
Q 2125 403 1779 403 
Q 1434 403 1242 595 
Q 1050 787 963 1065 
Q 877 1344 861 1661 
Q 845 1978 845 2234 
z
M 269 2227 
Q 269 1978 281 1709 
Q 294 1440 345 1184 
Q 397 928 493 701 
Q 589 474 755 301 
Q 922 128 1174 29 
Q 1427 -70 1779 -70 
Q 2138 -70 2387 29 
Q 2637 128 2803 301 
Q 2970 474 3066 701 
Q 3162 928 3213 1184 
Q 3264 1440 3277 1709 
Q 3290 1978 3290 2227 
Q 3290 2477 3277 2745 
Q 3264 3014 3213 3270 
Q 3162 3526 3066 3756 
Q 2970 3987 2803 4160 
Q 2637 4333 2384 4435 
Q 2131 4538 1779 4538 
Q 1427 4538 1174 4435 
Q 922 4333 755 4160 
Q 589 3987 493 3756 
Q 397 3526 345 3270 
Q 294 3014 281 2745 
Q 269 2477 269 2227 
z
" transform="scale(0.015625)"/>
       </defs>
       <use xlink:href="#HelveticaNeue-30"/>
      </g>
     </g>
    </g>
    <g id="ytick_2">
     <g id="line2d_7">
      <g>
       <use xlink:href="#mbe4026402b" x="41.710625" y="401.048125" style="stroke: #000000; stroke-width: 0.8"/>
      </g>
     </g>
     <g id="text_8">
      <!-- 5 -->
      <g transform="translate(28.595312 404.975469) scale(0.11 -0.11)">
       <defs>
        <path id="HelveticaNeue-35" d="M 3008 3981 
L 3008 4461 
L 768 4461 
L 346 2106 
L 813 2080 
Q 973 2272 1181 2390 
Q 1389 2509 1658 2509 
Q 1888 2509 2077 2432 
Q 2266 2355 2400 2217 
Q 2534 2080 2608 1891 
Q 2682 1702 2682 1478 
Q 2682 1210 2605 1008 
Q 2528 806 2397 672 
Q 2266 538 2090 470 
Q 1914 403 1722 403 
Q 1517 403 1347 464 
Q 1178 525 1053 637 
Q 928 749 854 899 
Q 781 1050 768 1222 
L 224 1222 
Q 230 915 345 672 
Q 461 429 659 265 
Q 858 102 1117 16 
Q 1376 -70 1670 -70 
Q 2067 -70 2364 54 
Q 2662 179 2860 390 
Q 3059 602 3158 874 
Q 3258 1146 3258 1434 
Q 3258 1824 3142 2115 
Q 3027 2406 2828 2601 
Q 2630 2797 2361 2893 
Q 2093 2989 1792 2989 
Q 1562 2989 1328 2909 
Q 1094 2829 947 2662 
L 934 2675 
L 1178 3981 
L 3008 3981 
z
" transform="scale(0.015625)"/>
       </defs>
       <use xlink:href="#HelveticaNeue-35"/>
      </g>
     </g>
    </g>
    <g id="ytick_3">
     <g id="line2d_8">
      <g>
       <use xlink:href="#mbe4026402b" x="41.710625" y="347.103125" style="stroke: #000000; stroke-width: 0.8"/>
      </g>
     </g>
     <g id="text_9">
      <!-- 10 -->
      <g transform="translate(22.48 351.030469) scale(0.11 -0.11)">
       <defs>
        <path id="HelveticaNeue-31" d="M 2278 0 
L 2278 4538 
L 1862 4538 
Q 1818 4282 1696 4115 
Q 1574 3949 1398 3853 
Q 1222 3757 1004 3721 
Q 787 3686 557 3686 
L 557 3251 
L 1734 3251 
L 1734 0 
L 2278 0 
z
" transform="scale(0.015625)"/>
       </defs>
       <use xlink:href="#HelveticaNeue-31"/>
       <use xlink:href="#HelveticaNeue-30" transform="translate(55.599991 0)"/>
      </g>
     </g>
    </g>
    <g id="ytick_4">
     <g id="line2d_9">
      <g>
       <use xlink:href="#mbe4026402b" x="41.710625" y="293.158125" style="stroke: #000000; stroke-width: 0.8"/>
      </g>
     </g>
     <g id="text_10">
      <!-- 15 -->
      <g transform="translate(22.48 297.085469) scale(0.11 -0.11)">
       <use xlink:href="#HelveticaNeue-31"/>
       <use xlink:href="#HelveticaNeue-35" transform="translate(55.599991 0)"/>
      </g>
     </g>
    </g>
    <g id="ytick_5">
     <g id="line2d_10">
      <g>
       <use xlink:href="#mbe4026402b" x="41.710625" y="239.213125" style="stroke: #000000; stroke-width: 0.8"/>
      </g>
     </g>
     <g id="text_11">
      <!-- 20 -->
      <g transform="translate(22.48 243.140469) scale(0.11 -0.11)">
       <defs>
        <path id="HelveticaNeue-32" d="M 282 2931 
L 826 2931 
Q 819 3136 867 3337 
Q 915 3539 1024 3699 
Q 1133 3859 1302 3958 
Q 1472 4058 1709 4058 
Q 1888 4058 2048 4000 
Q 2208 3942 2326 3833 
Q 2445 3725 2515 3574 
Q 2586 3424 2586 3238 
Q 2586 3002 2512 2822 
Q 2438 2643 2294 2489 
Q 2150 2336 1932 2185 
Q 1715 2035 1427 1856 
Q 1190 1715 972 1555 
Q 755 1395 582 1184 
Q 410 973 298 688 
Q 186 403 154 0 
L 3117 0 
L 3117 480 
L 787 480 
Q 826 691 950 854 
Q 1075 1018 1251 1158 
Q 1427 1299 1638 1424 
Q 1850 1549 2061 1677 
Q 2272 1811 2470 1958 
Q 2669 2106 2822 2288 
Q 2976 2470 3069 2700 
Q 3162 2931 3162 3232 
Q 3162 3552 3050 3795 
Q 2938 4038 2746 4201 
Q 2554 4365 2294 4451 
Q 2035 4538 1741 4538 
Q 1382 4538 1100 4416 
Q 819 4294 630 4080 
Q 442 3866 352 3571 
Q 262 3277 282 2931 
z
" transform="scale(0.015625)"/>
       </defs>
       <use xlink:href="#HelveticaNeue-32"/>
       <use xlink:href="#HelveticaNeue-30" transform="translate(55.599991 0)"/>
      </g>
     </g>
    </g>
    <g id="ytick_6">
     <g id="line2d_11">
      <g>
       <use xlink:href="#mbe4026402b" x="41.710625" y="185.268125" style="stroke: #000000; stroke-width: 0.8"/>
      </g>
     </g>
     <g id="text_12">
      <!-- 25 -->
      <g transform="translate(22.48 189.195469) scale(0.11 -0.11)">
       <use xlink:href="#HelveticaNeue-32"/>
       <use xlink:href="#HelveticaNeue-35" transform="translate(55.599991 0)"/>
      </g>
     </g>
    </g>
    <g id="ytick_7">
     <g id="line2d_12">
      <g>
       <use xlink:href="#mbe4026402b" x="41.710625" y="131.323125" style="stroke: #000000; stroke-width: 0.8"/>
      </g>
     </g>
     <g id="text_13">
      <!-- 30 -->
      <g transform="translate(22.48 135.250469) scale(0.11 -0.11)">
       <defs>
        <path id="HelveticaNeue-33" d="M 1395 2592 
L 1395 2131 
Q 1549 2150 1722 2150 
Q 1926 2150 2102 2096 
Q 2278 2042 2406 1930 
Q 2534 1818 2611 1654 
Q 2688 1491 2688 1280 
Q 2688 1075 2608 912 
Q 2528 749 2393 637 
Q 2259 525 2080 464 
Q 1901 403 1702 403 
Q 1235 403 992 681 
Q 749 960 736 1402 
L 192 1402 
Q 186 1050 291 774 
Q 397 499 595 310 
Q 794 122 1075 26 
Q 1357 -70 1702 -70 
Q 2022 -70 2307 16 
Q 2592 102 2803 275 
Q 3014 448 3139 707 
Q 3264 966 3264 1306 
Q 3264 1715 3062 2016 
Q 2861 2317 2445 2406 
L 2445 2419 
Q 2714 2541 2893 2777 
Q 3072 3014 3072 3322 
Q 3072 3635 2966 3865 
Q 2861 4096 2675 4243 
Q 2490 4390 2237 4464 
Q 1984 4538 1690 4538 
Q 1350 4538 1091 4429 
Q 832 4320 659 4128 
Q 486 3936 393 3667 
Q 301 3398 288 3072 
L 832 3072 
Q 832 3270 883 3449 
Q 934 3629 1040 3763 
Q 1146 3898 1309 3978 
Q 1472 4058 1690 4058 
Q 2035 4058 2265 3875 
Q 2496 3693 2496 3328 
Q 2496 3149 2425 3008 
Q 2355 2867 2236 2774 
Q 2118 2682 1961 2634 
Q 1805 2586 1632 2586 
L 1517 2586 
Q 1485 2586 1453 2586 
Q 1427 2586 1395 2592 
z
" transform="scale(0.015625)"/>
       </defs>
       <use xlink:href="#HelveticaNeue-33"/>
       <use xlink:href="#HelveticaNeue-30" transform="translate(55.599991 0)"/>
      </g>
     </g>
    </g>
    <g id="ytick_8">
     <g id="line2d_13">
      <g>
       <use xlink:href="#mbe4026402b" x="41.710625" y="77.378125" style="stroke: #000000; stroke-width: 0.8"/>
      </g>
     </g>
     <g id="text_14">
      <!-- 35 -->
      <g transform="translate(22.48 81.305469) scale(0.11 -0.11)">
       <use xlink:href="#HelveticaNeue-33"/>
       <use xlink:href="#HelveticaNeue-35" transform="translate(55.599991 0)"/>
      </g>
     </g>
    </g>
    <g id="ytick_9">
     <g id="line2d_14">
      <g>
       <use xlink:href="#mbe4026402b" x="41.710625" y="23.433125" style="stroke: #000000; stroke-width: 0.8"/>
      </g>
     </g>
     <g id="text_15">
      <!-- 40 -->
      <g transform="translate(22.48 27.360469) scale(0.11 -0.11)">
       <defs>
        <path id="HelveticaNeue-34" d="M 2170 1542 
L 646 1542 
L 2157 3763 
L 2170 3763 
L 2170 1542 
z
M 2682 1542 
L 2682 4538 
L 2246 4538 
L 179 1587 
L 179 1062 
L 2170 1062 
L 2170 0 
L 2682 0 
L 2682 1062 
L 3296 1062 
L 3296 1542 
L 2682 1542 
z
" transform="scale(0.015625)"/>
       </defs>
       <use xlink:href="#HelveticaNeue-34"/>
       <use xlink:href="#HelveticaNeue-30" transform="translate(55.599991 0)"/>
      </g>
     </g>
    </g>
    <g id="text_16">
     <!-- Weight (%) -->
     <g transform="translate(15.97125 268.424687) rotate(-90) scale(0.12 -0.12)">
      <defs>
       <path id="HelveticaNeue-57" d="M 4627 0 
L 5850 4570 
L 5242 4570 
L 4314 768 
L 4301 768 
L 3290 4570 
L 2630 4570 
L 1606 768 
L 1594 768 
L 698 4570 
L 77 4570 
L 1248 0 
L 1882 0 
L 2938 3840 
L 2950 3840 
L 3994 0 
L 4627 0 
z
" transform="scale(0.015625)"/>
       <path id="HelveticaNeue-67" d="M 3264 282 
L 3264 3309 
L 2752 3309 
L 2752 2835 
L 2746 2835 
Q 2598 3110 2336 3248 
Q 2074 3386 1760 3386 
Q 1331 3386 1036 3222 
Q 742 3059 563 2806 
Q 384 2554 307 2243 
Q 230 1933 230 1638 
Q 230 1299 323 995 
Q 416 691 601 464 
Q 787 237 1062 102 
Q 1338 -32 1709 -32 
Q 2029 -32 2313 112 
Q 2598 256 2739 563 
L 2752 563 
L 2752 346 
Q 2752 70 2697 -160 
Q 2643 -390 2521 -553 
Q 2400 -717 2214 -809 
Q 2029 -902 1760 -902 
Q 1626 -902 1478 -873 
Q 1331 -845 1206 -781 
Q 1082 -717 995 -614 
Q 909 -512 902 -365 
L 358 -365 
Q 371 -634 499 -819 
Q 627 -1005 822 -1120 
Q 1018 -1235 1258 -1286 
Q 1498 -1338 1728 -1338 
Q 2522 -1338 2893 -934 
Q 3264 -531 3264 282 
z
M 1741 442 
Q 1472 442 1293 554 
Q 1114 666 1005 848 
Q 896 1030 851 1254 
Q 806 1478 806 1702 
Q 806 1939 860 2156 
Q 915 2374 1033 2540 
Q 1152 2707 1337 2806 
Q 1523 2906 1786 2906 
Q 2042 2906 2221 2803 
Q 2400 2701 2512 2531 
Q 2624 2362 2675 2150 
Q 2726 1939 2726 1722 
Q 2726 1491 2672 1260 
Q 2618 1030 2502 848 
Q 2387 666 2198 554 
Q 2010 442 1741 442 
z
" transform="scale(0.015625)"/>
       <path id="HelveticaNeue-68" d="M 410 4570 
L 410 0 
L 954 0 
L 954 1869 
Q 954 2093 1014 2281 
Q 1075 2470 1196 2611 
Q 1318 2752 1500 2829 
Q 1683 2906 1933 2906 
Q 2246 2906 2425 2726 
Q 2605 2547 2605 2240 
L 2605 0 
L 3149 0 
L 3149 2176 
Q 3149 2445 3094 2665 
Q 3040 2886 2905 3046 
Q 2771 3206 2553 3296 
Q 2336 3386 2010 3386 
Q 1862 3386 1705 3354 
Q 1549 3322 1405 3254 
Q 1261 3187 1145 3081 
Q 1030 2976 966 2822 
L 954 2822 
L 954 4570 
L 410 4570 
z
" transform="scale(0.015625)"/>
       <path id="HelveticaNeue-28" d="M 1306 -1261 
L 1722 -1261 
Q 1267 -525 1072 198 
Q 877 922 877 1728 
Q 877 2515 1069 3232 
Q 1261 3949 1722 4678 
L 1306 4678 
Q 806 4019 553 3251 
Q 301 2483 301 1728 
Q 301 1306 371 922 
Q 442 538 573 173 
Q 704 -192 889 -547 
Q 1075 -902 1306 -1261 
z
" transform="scale(0.015625)"/>
       <path id="HelveticaNeue-25" d="M 1069 3251 
Q 1069 3398 1088 3561 
Q 1107 3725 1168 3862 
Q 1229 4000 1337 4093 
Q 1446 4186 1626 4186 
Q 1811 4186 1916 4093 
Q 2022 4000 2080 3862 
Q 2138 3725 2154 3561 
Q 2170 3398 2170 3258 
Q 2170 3110 2150 2944 
Q 2131 2778 2070 2640 
Q 2010 2502 1901 2412 
Q 1792 2323 1606 2323 
Q 1427 2323 1321 2416 
Q 1216 2509 1158 2646 
Q 1101 2784 1085 2947 
Q 1069 3110 1069 3251 
z
M 589 3238 
Q 589 2976 643 2745 
Q 698 2515 819 2342 
Q 941 2170 1139 2070 
Q 1338 1971 1626 1971 
Q 1907 1971 2099 2080 
Q 2291 2189 2416 2365 
Q 2541 2541 2595 2774 
Q 2650 3008 2650 3258 
Q 2650 3520 2602 3753 
Q 2554 3987 2435 4160 
Q 2317 4333 2121 4435 
Q 1926 4538 1626 4538 
Q 1331 4538 1132 4432 
Q 934 4326 812 4147 
Q 691 3968 640 3734 
Q 589 3501 589 3238 
z
M 4230 1203 
Q 4230 1350 4249 1513 
Q 4269 1677 4329 1814 
Q 4390 1952 4499 2045 
Q 4608 2138 4787 2138 
Q 4973 2138 5078 2045 
Q 5184 1952 5241 1814 
Q 5299 1677 5315 1513 
Q 5331 1350 5331 1210 
Q 5331 1062 5312 896 
Q 5293 730 5232 592 
Q 5171 454 5062 364 
Q 4954 275 4768 275 
Q 4589 275 4483 368 
Q 4378 461 4320 598 
Q 4262 736 4246 899 
Q 4230 1062 4230 1203 
z
M 3750 1190 
Q 3750 928 3804 697 
Q 3859 467 3980 297 
Q 4102 128 4300 29 
Q 4499 -70 4787 -70 
Q 5069 -70 5261 35 
Q 5453 141 5577 317 
Q 5702 493 5756 726 
Q 5811 960 5811 1210 
Q 5811 1472 5763 1705 
Q 5715 1939 5596 2112 
Q 5478 2285 5283 2387 
Q 5088 2490 4787 2490 
Q 4493 2490 4294 2384 
Q 4096 2278 3974 2099 
Q 3853 1920 3801 1686 
Q 3750 1453 3750 1190 
z
M 4646 4621 
L 1203 -134 
L 1754 -134 
L 5190 4621 
L 4646 4621 
z
" transform="scale(0.015625)"/>
       <path id="HelveticaNeue-29" d="M -58 -1261 
L 352 -1261 
Q 851 -602 1104 163 
Q 1357 928 1357 1683 
Q 1357 2106 1286 2490 
Q 1216 2874 1085 3242 
Q 954 3610 768 3965 
Q 582 4320 352 4678 
L -58 4678 
Q 390 3942 585 3216 
Q 781 2490 781 1683 
Q 781 902 589 182 
Q 397 -538 -58 -1261 
z
" transform="scale(0.015625)"/>
      </defs>
      <use xlink:href="#HelveticaNeue-57"/>
      <use xlink:href="#HelveticaNeue-65" transform="translate(86.849991 0)"/>
      <use xlink:href="#HelveticaNeue-69" transform="translate(140.549988 0)"/>
      <use xlink:href="#HelveticaNeue-67" transform="translate(162.749985 0)"/>
      <use xlink:href="#HelveticaNeue-68" transform="translate(220.149979 0)"/>
      <use xlink:href="#HelveticaNeue-74" transform="translate(275.749969 0)"/>
      <use xlink:href="#HelveticaNeue-20" transform="translate(307.249954 0)"/>
      <use xlink:href="#HelveticaNeue-28" transform="translate(335.049942 0)"/>
      <use xlink:href="#HelveticaNeue-25" transform="translate(360.949936 0)"/>
      <use xlink:href="#HelveticaNeue-29" transform="translate(460.949921 0)"/>
     </g>
    </g>
   </g>
   <g id="patch_18">
    <path d="M 41.710625 454.993125 
L 41.710625 23.433125 
" style="fill: none; stroke: #000000; stroke-width: 0.8; stroke-linejoin: miter; stroke-linecap: square"/>
   </g>
   <g id="patch_19">
    <path d="M 41.710625 454.993125 
L 847.325625 454.993125 
" style="fill: none; stroke: #000000; stroke-width: 0.8; stroke-linejoin: miter; stroke-linecap: square"/>
   </g>
   <g id="text_17">
    <!-- 30% -->
    <g transform="translate(88.099137 126.549844) scale(0.09 -0.09)">
     <use xlink:href="#HelveticaNeue-33"/>
     <use xlink:href="#HelveticaNeue-30" transform="translate(55.599991 0)"/>
     <use xlink:href="#HelveticaNeue-25" transform="translate(111.199982 0)"/>
    </g>
   </g>
   <g id="text_18">
    <!-- 15% -->
    <g transform="translate(242.283826 288.384844) scale(0.09 -0.09)">
     <use xlink:href="#HelveticaNeue-31"/>
     <use xlink:href="#HelveticaNeue-35" transform="translate(55.599991 0)"/>
     <use xlink:href="#HelveticaNeue-25" transform="translate(111.199982 0)"/>
    </g>
   </g>
   <g id="text_19">
    <!-- 20% -->
    <g transform="translate(396.468515 234.439844) scale(0.09 -0.09)">
     <use xlink:href="#HelveticaNeue-32"/>
     <use xlink:href="#HelveticaNeue-30" transform="translate(55.599991 0)"/>
     <use xlink:href="#HelveticaNeue-25" transform="translate(111.199982 0)"/>
    </g>
   </g>
   <g id="text_20">
    <!-- 25% -->
    <g transform="translate(550.653204 180.494844) scale(0.09 -0.09)">
     <use xlink:href="#HelveticaNeue-32"/>
     <use xlink:href="#HelveticaNeue-35" transform="translate(55.599991 0)"/>
     <use xlink:href="#HelveticaNeue-25" transform="translate(111.199982 0)"/>
    </g>
   </g>
   <g id="text_21">
    <!-- 10% -->
    <g transform="translate(704.837893 342.329844) scale(0.09 -0.09)">
     <use xlink:href="#HelveticaNeue-31"/>
     <use xlink:href="#HelveticaNeue-30" transform="translate(55.599991 0)"/>
     <use xlink:href="#HelveticaNeue-25" transform="translate(111.199982 0)"/>
    </g>
   </g>
   <g id="text_22">
    <!-- 25% -->
    <g transform="translate(126.64531 180.494844) scale(0.09 -0.09)">
     <use xlink:href="#HelveticaNeue-32"/>
     <use xlink:href="#HelveticaNeue-35" transform="translate(55.599991 0)"/>
     <use xlink:href="#HelveticaNeue-25" transform="translate(111.199982 0)"/>
    </g>
   </g>
   <g id="text_23">
    <!-- 15% -->
    <g transform="translate(280.829999 288.384844) scale(0.09 -0.09)">
     <use xlink:href="#HelveticaNeue-31"/>
     <use xlink:href="#HelveticaNeue-35" transform="translate(55.599991 0)"/>
     <use xlink:href="#HelveticaNeue-25" transform="translate(111.199982 0)"/>
    </g>
   </g>
   <g id="text_24">
    <!-- 30% -->
    <g transform="translate(435.014687 126.549844) scale(0.09 -0.09)">
     <use xlink:href="#HelveticaNeue-33"/>
     <use xlink:href="#HelveticaNeue-30" transform="translate(55.599991 0)"/>
     <use xlink:href="#HelveticaNeue-25" transform="translate(111.199982 0)"/>
    </g>
   </g>
   <g id="text_25">
    <!-- 15% -->
    <g transform="translate(589.199376 288.384844) scale(0.09 -0.09)">
     <use xlink:href="#HelveticaNeue-31"/>
     <use xlink:href="#HelveticaNeue-35" transform="translate(55.599991 0)"/>
     <use xlink:href="#HelveticaNeue-25" transform="translate(111.199982 0)"/>
    </g>
   </g>
   <g id="text_26">
    <!-- 15% -->
    <g transform="translate(743.384065 288.384844) scale(0.09 -0.09)">
     <use xlink:href="#HelveticaNeue-31"/>
     <use xlink:href="#HelveticaNeue-35" transform="translate(55.599991 0)"/>
     <use xlink:href="#HelveticaNeue-25" transform="translate(111.199982 0)"/>
    </g>
   </g>
   <g id="text_27">
    <!-- 20% -->
    <g transform="translate(165.191482 234.439844) scale(0.09 -0.09)">
     <use xlink:href="#HelveticaNeue-32"/>
     <use xlink:href="#HelveticaNeue-30" transform="translate(55.599991 0)"/>
     <use xlink:href="#HelveticaNeue-25" transform="translate(111.199982 0)"/>
    </g>
   </g>
   <g id="text_28">
    <!-- 15% -->
    <g transform="translate(319.376171 288.384844) scale(0.09 -0.09)">
     <use xlink:href="#HelveticaNeue-31"/>
     <use xlink:href="#HelveticaNeue-35" transform="translate(55.599991 0)"/>
     <use xlink:href="#HelveticaNeue-25" transform="translate(111.199982 0)"/>
    </g>
   </g>
   <g id="text_29">
    <!-- 35% -->
    <g transform="translate(473.56086 72.604844) scale(0.09 -0.09)">
     <use xlink:href="#HelveticaNeue-33"/>
     <use xlink:href="#HelveticaNeue-35" transform="translate(55.599991 0)"/>
     <use xlink:href="#HelveticaNeue-25" transform="translate(111.199982 0)"/>
    </g>
   </g>
   <g id="text_30">
    <!-- 10% -->
    <g transform="translate(627.745549 342.329844) scale(0.09 -0.09)">
     <use xlink:href="#HelveticaNeue-31"/>
     <use xlink:href="#HelveticaNeue-30" transform="translate(55.599991 0)"/>
     <use xlink:href="#HelveticaNeue-25" transform="translate(111.199982 0)"/>
    </g>
   </g>
   <g id="text_31">
    <!-- 20% -->
    <g transform="translate(781.930238 234.439844) scale(0.09 -0.09)">
     <use xlink:href="#HelveticaNeue-32"/>
     <use xlink:href="#HelveticaNeue-30" transform="translate(55.599991 0)"/>
     <use xlink:href="#HelveticaNeue-25" transform="translate(111.199982 0)"/>
    </g>
   </g>
   <g id="text_32">
    <g id="patch_20">
     <path d="M 549.872892 168.253406 
L 647.532736 168.253406 
Q 650.232736 168.253406 650.232736 165.553406 
L 650.232736 147.630469 
Q 650.232736 144.930469 647.532736 144.930469 
L 549.872892 144.930469 
Q 547.172892 144.930469 547.172892 147.630469 
L 547.172892 165.553406 
Q 547.172892 168.253406 549.872892 168.253406 
z
" style="fill: #ffffff; opacity: 0.8; stroke: #000000; stroke-linejoin: miter"/>
    </g>
    <!-- E-Commerce prioritizes -->
    <g style="fill: #ff6600" transform="translate(551.283361 154.118906) scale(0.09 -0.09)">
     <defs>
      <path id="HelveticaNeue-2d" d="M 320 2035 
L 320 1523 
L 2170 1523 
L 2170 2035 
L 320 2035 
z
" transform="scale(0.015625)"/>
      <path id="HelveticaNeue-43" d="M 3712 3194 
L 4320 3194 
Q 4269 3558 4102 3836 
Q 3936 4115 3686 4300 
Q 3437 4486 3117 4582 
Q 2797 4678 2438 4678 
Q 1914 4678 1507 4489 
Q 1101 4301 829 3974 
Q 557 3648 416 3209 
Q 275 2771 275 2272 
Q 275 1773 406 1337 
Q 538 902 800 582 
Q 1062 262 1459 80 
Q 1856 -102 2387 -102 
Q 3264 -102 3769 378 
Q 4275 858 4365 1722 
L 3757 1722 
Q 3738 1440 3642 1197 
Q 3546 954 3376 778 
Q 3206 602 2972 502 
Q 2739 403 2438 403 
Q 2029 403 1734 556 
Q 1440 710 1251 969 
Q 1062 1229 972 1577 
Q 883 1926 883 2317 
Q 883 2675 972 3008 
Q 1062 3341 1251 3600 
Q 1440 3859 1731 4012 
Q 2022 4166 2432 4166 
Q 2912 4166 3261 3923 
Q 3610 3680 3712 3194 
z
" transform="scale(0.015625)"/>
      <path id="HelveticaNeue-7a" d="M 141 416 
L 141 0 
L 2931 0 
L 2931 480 
L 819 480 
L 2842 2938 
L 2842 3309 
L 269 3309 
L 269 2829 
L 2138 2829 
L 141 416 
z
" transform="scale(0.015625)"/>
     </defs>
     <use xlink:href="#HelveticaNeue-45"/>
     <use xlink:href="#HelveticaNeue-2d" transform="translate(61.099991 0)"/>
     <use xlink:href="#HelveticaNeue-43" transform="translate(99.999985 0)"/>
     <use xlink:href="#HelveticaNeue-6f" transform="translate(172.199966 0)"/>
     <use xlink:href="#HelveticaNeue-6d" transform="translate(229.59996 0)"/>
     <use xlink:href="#HelveticaNeue-6d" transform="translate(314.899948 0)"/>
     <use xlink:href="#HelveticaNeue-65" transform="translate(400.199936 0)"/>
     <use xlink:href="#HelveticaNeue-72" transform="translate(453.899933 0)"/>
     <use xlink:href="#HelveticaNeue-63" transform="translate(485.449921 0)"/>
     <use xlink:href="#HelveticaNeue-65" transform="translate(539.149918 0)"/>
     <use xlink:href="#HelveticaNeue-20" transform="translate(592.849915 0)"/>
     <use xlink:href="#HelveticaNeue-70" transform="translate(620.649902 0)"/>
     <use xlink:href="#HelveticaNeue-72" transform="translate(679.94989 0)"/>
     <use xlink:href="#HelveticaNeue-69" transform="translate(713.249878 0)"/>
     <use xlink:href="#HelveticaNeue-6f" transform="translate(735.449875 0)"/>
     <use xlink:href="#HelveticaNeue-72" transform="translate(792.849869 0)"/>
     <use xlink:href="#HelveticaNeue-69" transform="translate(826.149857 0)"/>
     <use xlink:href="#HelveticaNeue-74" transform="translate(848.349854 0)"/>
     <use xlink:href="#HelveticaNeue-69" transform="translate(879.849838 0)"/>
     <use xlink:href="#HelveticaNeue-7a" transform="translate(902.049835 0)"/>
     <use xlink:href="#HelveticaNeue-65" transform="translate(950.04982 0)"/>
     <use xlink:href="#HelveticaNeue-73" transform="translate(1003.749817 0)"/>
    </g>
    <!-- scalability for flash sales -->
    <g style="fill: #ff6600" transform="translate(549.872892 163.690125) scale(0.09 -0.09)">
     <use xlink:href="#HelveticaNeue-73"/>
     <use xlink:href="#HelveticaNeue-63" transform="translate(49.999985 0)"/>
     <use xlink:href="#HelveticaNeue-61" transform="translate(103.699982 0)"/>
     <use xlink:href="#HelveticaNeue-6c" transform="translate(157.399979 0)"/>
     <use xlink:href="#HelveticaNeue-61" transform="translate(179.599976 0)"/>
     <use xlink:href="#HelveticaNeue-62" transform="translate(233.299973 0)"/>
     <use xlink:href="#HelveticaNeue-69" transform="translate(292.59996 0)"/>
     <use xlink:href="#HelveticaNeue-6c" transform="translate(314.799957 0)"/>
     <use xlink:href="#HelveticaNeue-69" transform="translate(336.999954 0)"/>
     <use xlink:href="#HelveticaNeue-74" transform="translate(359.199951 0)"/>
     <use xlink:href="#HelveticaNeue-79" transform="translate(390.699936 0)"/>
     <use xlink:href="#HelveticaNeue-20" transform="translate(440.699921 0)"/>
     <use xlink:href="#HelveticaNeue-66" transform="translate(468.499908 0)"/>
     <use xlink:href="#HelveticaNeue-6f" transform="translate(498.099899 0)"/>
     <use xlink:href="#HelveticaNeue-72" transform="translate(555.499893 0)"/>
     <use xlink:href="#HelveticaNeue-20" transform="translate(588.799881 0)"/>
     <use xlink:href="#HelveticaNeue-66" transform="translate(616.599869 0)"/>
     <use xlink:href="#HelveticaNeue-6c" transform="translate(646.19986 0)"/>
     <use xlink:href="#HelveticaNeue-61" transform="translate(668.399857 0)"/>
     <use xlink:href="#HelveticaNeue-73" transform="translate(722.099854 0)"/>
     <use xlink:href="#HelveticaNeue-68" transform="translate(772.099838 0)"/>
     <use xlink:href="#HelveticaNeue-20" transform="translate(827.699829 0)"/>
     <use xlink:href="#HelveticaNeue-73" transform="translate(855.499817 0)"/>
     <use xlink:href="#HelveticaNeue-61" transform="translate(905.499802 0)"/>
     <use xlink:href="#HelveticaNeue-6c" transform="translate(959.199799 0)"/>
     <use xlink:href="#HelveticaNeue-65" transform="translate(981.399796 0)"/>
     <use xlink:href="#HelveticaNeue-73" transform="translate(1035.099792 0)"/>
    </g>
   </g>
   <g id="text_33">
    <g id="patch_21">
     <path d="M 404.513125 103.429406 
L 484.523125 103.429406 
Q 487.223125 103.429406 487.223125 100.729406 
L 487.223125 73.290938 
Q 487.223125 70.590938 484.523125 70.590938 
L 404.513125 70.590938 
Q 401.813125 70.590938 401.813125 73.290938 
L 401.813125 100.729406 
Q 401.813125 103.429406 404.513125 103.429406 
z
" style="fill: #ffffff; opacity: 0.8; stroke: #000000; stroke-linejoin: miter"/>
    </g>
    <!-- Financial services -->
    <g style="fill: #0066cc" transform="translate(408.935781 79.7175) scale(0.09 -0.09)">
     <defs>
      <path id="HelveticaNeue-46" d="M 499 4570 
L 499 0 
L 1107 0 
L 1107 2093 
L 3206 2093 
L 3206 2605 
L 1107 2605 
L 1107 4058 
L 3501 4058 
L 3501 4570 
L 499 4570 
z
" transform="scale(0.015625)"/>
      <path id="HelveticaNeue-76" d="M 1901 0 
L 3110 3309 
L 2541 3309 
L 1638 550 
L 1626 550 
L 698 3309 
L 90 3309 
L 1318 0 
L 1901 0 
z
" transform="scale(0.015625)"/>
     </defs>
     <use xlink:href="#HelveticaNeue-46"/>
     <use xlink:href="#HelveticaNeue-69" transform="translate(57.399994 0)"/>
     <use xlink:href="#HelveticaNeue-6e" transform="translate(79.599991 0)"/>
     <use xlink:href="#HelveticaNeue-61" transform="translate(135.199982 0)"/>
     <use xlink:href="#HelveticaNeue-6e" transform="translate(188.899979 0)"/>
     <use xlink:href="#HelveticaNeue-63" transform="translate(244.499969 0)"/>
     <use xlink:href="#HelveticaNeue-69" transform="translate(298.199966 0)"/>
     <use xlink:href="#HelveticaNeue-61" transform="translate(320.399963 0)"/>
     <use xlink:href="#HelveticaNeue-6c" transform="translate(374.09996 0)"/>
     <use xlink:href="#HelveticaNeue-20" transform="translate(396.299957 0)"/>
     <use xlink:href="#HelveticaNeue-73" transform="translate(424.099945 0)"/>
     <use xlink:href="#HelveticaNeue-65" transform="translate(474.09993 0)"/>
     <use xlink:href="#HelveticaNeue-72" transform="translate(527.799927 0)"/>
     <use xlink:href="#HelveticaNeue-76" transform="translate(561.099915 0)"/>
     <use xlink:href="#HelveticaNeue-69" transform="translate(611.099899 0)"/>
     <use xlink:href="#HelveticaNeue-63" transform="translate(633.299896 0)"/>
     <use xlink:href="#HelveticaNeue-65" transform="translate(686.999893 0)"/>
     <use xlink:href="#HelveticaNeue-73" transform="translate(740.69989 0)"/>
    </g>
    <!-- focus on operations -->
    <g style="fill: #0066cc" transform="translate(404.513125 89.288719) scale(0.09 -0.09)">
     <use xlink:href="#HelveticaNeue-66"/>
     <use xlink:href="#HelveticaNeue-6f" transform="translate(29.599991 0)"/>
     <use xlink:href="#HelveticaNeue-63" transform="translate(86.999985 0)"/>
     <use xlink:href="#HelveticaNeue-75" transform="translate(140.699982 0)"/>
     <use xlink:href="#HelveticaNeue-73" transform="translate(196.299973 0)"/>
     <use xlink:href="#HelveticaNeue-20" transform="translate(246.299957 0)"/>
     <use xlink:href="#HelveticaNeue-6f" transform="translate(274.099945 0)"/>
     <use xlink:href="#HelveticaNeue-6e" transform="translate(331.499939 0)"/>
     <use xlink:href="#HelveticaNeue-20" transform="translate(387.09993 0)"/>
     <use xlink:href="#HelveticaNeue-6f" transform="translate(414.899918 0)"/>
     <use xlink:href="#HelveticaNeue-70" transform="translate(472.299911 0)"/>
     <use xlink:href="#HelveticaNeue-65" transform="translate(531.599899 0)"/>
     <use xlink:href="#HelveticaNeue-72" transform="translate(585.299896 0)"/>
     <use xlink:href="#HelveticaNeue-61" transform="translate(618.599884 0)"/>
     <use xlink:href="#HelveticaNeue-74" transform="translate(672.299881 0)"/>
     <use xlink:href="#HelveticaNeue-69" transform="translate(703.799866 0)"/>
     <use xlink:href="#HelveticaNeue-6f" transform="translate(725.999863 0)"/>
     <use xlink:href="#HelveticaNeue-6e" transform="translate(783.399857 0)"/>
     <use xlink:href="#HelveticaNeue-73" transform="translate(838.999847 0)"/>
    </g>
    <!-- (compliance) -->
    <g style="fill: #0066cc" transform="translate(418.93 98.956125) scale(0.09 -0.09)">
     <use xlink:href="#HelveticaNeue-28"/>
     <use xlink:href="#HelveticaNeue-63" transform="translate(25.899994 0)"/>
     <use xlink:href="#HelveticaNeue-6f" transform="translate(79.599991 0)"/>
     <use xlink:href="#HelveticaNeue-6d" transform="translate(136.999985 0)"/>
     <use xlink:href="#HelveticaNeue-70" transform="translate(222.299973 0)"/>
     <use xlink:href="#HelveticaNeue-6c" transform="translate(281.59996 0)"/>
     <use xlink:href="#HelveticaNeue-69" transform="translate(303.799957 0)"/>
     <use xlink:href="#HelveticaNeue-61" transform="translate(325.999954 0)"/>
     <use xlink:href="#HelveticaNeue-6e" transform="translate(379.699951 0)"/>
     <use xlink:href="#HelveticaNeue-63" transform="translate(435.299942 0)"/>
     <use xlink:href="#HelveticaNeue-65" transform="translate(488.999939 0)"/>
     <use xlink:href="#HelveticaNeue-29" transform="translate(542.699936 0)"/>
    </g>
   </g>
   <g id="text_34">
    <!-- Industry-Specific PROSE Dimension Weights -->
    <g transform="translate(303.990937 17.433125) scale(0.14 -0.14)">
     <defs>
      <path id="HelveticaNeue-49" d="M 525 4570 
L 525 0 
L 1133 0 
L 1133 4570 
L 525 4570 
z
" transform="scale(0.015625)"/>
      <path id="HelveticaNeue-64" d="M 806 1626 
Q 806 1869 857 2099 
Q 909 2330 1024 2509 
Q 1139 2688 1331 2797 
Q 1523 2906 1798 2906 
Q 2080 2906 2278 2800 
Q 2477 2694 2601 2521 
Q 2726 2349 2784 2121 
Q 2842 1894 2842 1651 
Q 2842 1421 2787 1197 
Q 2733 973 2611 797 
Q 2490 621 2298 512 
Q 2106 403 1830 403 
Q 1568 403 1373 505 
Q 1178 608 1053 781 
Q 928 954 867 1174 
Q 806 1395 806 1626 
z
M 3366 0 
L 3366 4570 
L 2822 4570 
L 2822 2867 
L 2810 2867 
Q 2720 3014 2589 3113 
Q 2458 3213 2310 3273 
Q 2163 3334 2016 3360 
Q 1869 3386 1741 3386 
Q 1363 3386 1078 3248 
Q 794 3110 605 2876 
Q 416 2643 323 2329 
Q 230 2016 230 1664 
Q 230 1312 326 998 
Q 422 685 611 448 
Q 800 211 1085 70 
Q 1370 -70 1754 -70 
Q 2099 -70 2387 51 
Q 2675 173 2810 448 
L 2822 448 
L 2822 0 
L 3366 0 
z
" transform="scale(0.015625)"/>
     </defs>
     <use xlink:href="#HelveticaNeue-49"/>
     <use xlink:href="#HelveticaNeue-6e" transform="translate(25.899994 0)"/>
     <use xlink:href="#HelveticaNeue-64" transform="translate(81.499985 0)"/>
     <use xlink:href="#HelveticaNeue-75" transform="translate(140.799973 0)"/>
     <use xlink:href="#HelveticaNeue-73" transform="translate(196.399963 0)"/>
     <use xlink:href="#HelveticaNeue-74" transform="translate(246.399948 0)"/>
     <use xlink:href="#HelveticaNeue-72" transform="translate(277.899933 0)"/>
     <use xlink:href="#HelveticaNeue-79" transform="translate(311.199921 0)"/>
     <use xlink:href="#HelveticaNeue-2d" transform="translate(361.199905 0)"/>
     <use xlink:href="#HelveticaNeue-53" transform="translate(400.099899 0)"/>
     <use xlink:href="#HelveticaNeue-70" transform="translate(464.899887 0)"/>
     <use xlink:href="#HelveticaNeue-65" transform="translate(524.199875 0)"/>
     <use xlink:href="#HelveticaNeue-63" transform="translate(577.899872 0)"/>
     <use xlink:href="#HelveticaNeue-69" transform="translate(631.599869 0)"/>
     <use xlink:href="#HelveticaNeue-66" transform="translate(653.799866 0)"/>
     <use xlink:href="#HelveticaNeue-69" transform="translate(683.399857 0)"/>
     <use xlink:href="#HelveticaNeue-63" transform="translate(705.599854 0)"/>
     <use xlink:href="#HelveticaNeue-20" transform="translate(759.29985 0)"/>
     <use xlink:href="#HelveticaNeue-50" transform="translate(787.099838 0)"/>
     <use xlink:href="#HelveticaNeue-52" transform="translate(851.899826 0)"/>
     <use xlink:href="#HelveticaNeue-4f" transform="translate(920.399811 0)"/>
     <use xlink:href="#HelveticaNeue-53" transform="translate(996.399796 0)"/>
     <use xlink:href="#HelveticaNeue-45" transform="translate(1061.199783 0)"/>
     <use xlink:href="#HelveticaNeue-20" transform="translate(1122.299774 0)"/>
     <use xlink:href="#HelveticaNeue-44" transform="translate(1150.099762 0)"/>
     <use xlink:href="#HelveticaNeue-69" transform="translate(1220.499756 0)"/>
     <use xlink:href="#HelveticaNeue-6d" transform="translate(1242.699753 0)"/>
     <use xlink:href="#HelveticaNeue-65" transform="translate(1327.999741 0)"/>
     <use xlink:href="#HelveticaNeue-6e" transform="translate(1381.699738 0)"/>
     <use xlink:href="#HelveticaNeue-73" transform="translate(1437.299728 0)"/>
     <use xlink:href="#HelveticaNeue-69" transform="translate(1487.299713 0)"/>
     <use xlink:href="#HelveticaNeue-6f" transform="translate(1509.49971 0)"/>
     <use xlink:href="#HelveticaNeue-6e" transform="translate(1566.899704 0)"/>
     <use xlink:href="#HelveticaNeue-20" transform="translate(1622.499695 0)"/>
     <use xlink:href="#HelveticaNeue-57" transform="translate(1650.299683 0)"/>
     <use xlink:href="#HelveticaNeue-65" transform="translate(1737.149673 0)"/>
     <use xlink:href="#HelveticaNeue-69" transform="translate(1790.84967 0)"/>
     <use xlink:href="#HelveticaNeue-67" transform="translate(1813.049667 0)"/>
     <use xlink:href="#HelveticaNeue-68" transform="translate(1870.449661 0)"/>
     <use xlink:href="#HelveticaNeue-74" transform="translate(1926.049652 0)"/>
     <use xlink:href="#HelveticaNeue-73" transform="translate(1957.549637 0)"/>
    </g>
   </g>
   <g id="legend_1">
    <g id="patch_22">
     <path d="M 715.818906 78.799219 
L 839.625625 78.799219 
Q 841.825625 78.799219 841.825625 76.599219 
L 841.825625 31.133125 
Q 841.825625 28.933125 839.625625 28.933125 
L 715.818906 28.933125 
Q 713.618906 28.933125 713.618906 31.133125 
L 713.618906 76.599219 
Q 713.618906 78.799219 715.818906 78.799219 
z
" style="fill: #ffffff; opacity: 0.8; stroke: #cccccc; stroke-linejoin: miter"/>
    </g>
    <g id="patch_23">
     <path d="M 718.018906 41.187812 
L 740.018906 41.187812 
L 740.018906 33.487812 
L 718.018906 33.487812 
z
" style="fill: #ff6600"/>
    </g>
    <g id="text_35">
     <!-- E-Commerce -->
     <g transform="translate(748.818906 41.187812) scale(0.11 -0.11)">
      <use xlink:href="#HelveticaNeue-45"/>
      <use xlink:href="#HelveticaNeue-2d" transform="translate(61.099991 0)"/>
      <use xlink:href="#HelveticaNeue-43" transform="translate(99.999985 0)"/>
      <use xlink:href="#HelveticaNeue-6f" transform="translate(172.199966 0)"/>
      <use xlink:href="#HelveticaNeue-6d" transform="translate(229.59996 0)"/>
      <use xlink:href="#HelveticaNeue-6d" transform="translate(314.899948 0)"/>
      <use xlink:href="#HelveticaNeue-65" transform="translate(400.199936 0)"/>
      <use xlink:href="#HelveticaNeue-72" transform="translate(453.899933 0)"/>
      <use xlink:href="#HelveticaNeue-63" transform="translate(485.449921 0)"/>
      <use xlink:href="#HelveticaNeue-65" transform="translate(539.149918 0)"/>
     </g>
    </g>
    <g id="patch_24">
     <path d="M 718.018906 56.709844 
L 740.018906 56.709844 
L 740.018906 49.009844 
L 718.018906 49.009844 
z
" style="fill: #0066cc"/>
    </g>
    <g id="text_36">
     <!-- Financial Services -->
     <g transform="translate(748.818906 56.709844) scale(0.11 -0.11)">
      <use xlink:href="#HelveticaNeue-46"/>
      <use xlink:href="#HelveticaNeue-69" transform="translate(57.399994 0)"/>
      <use xlink:href="#HelveticaNeue-6e" transform="translate(79.599991 0)"/>
      <use xlink:href="#HelveticaNeue-61" transform="translate(135.199982 0)"/>
      <use xlink:href="#HelveticaNeue-6e" transform="translate(188.899979 0)"/>
      <use xlink:href="#HelveticaNeue-63" transform="translate(244.499969 0)"/>
      <use xlink:href="#HelveticaNeue-69" transform="translate(298.199966 0)"/>
      <use xlink:href="#HelveticaNeue-61" transform="translate(320.399963 0)"/>
      <use xlink:href="#HelveticaNeue-6c" transform="translate(374.09996 0)"/>
      <use xlink:href="#HelveticaNeue-20" transform="translate(396.299957 0)"/>
      <use xlink:href="#HelveticaNeue-53" transform="translate(424.099945 0)"/>
      <use xlink:href="#HelveticaNeue-65" transform="translate(488.899933 0)"/>
      <use xlink:href="#HelveticaNeue-72" transform="translate(542.59993 0)"/>
      <use xlink:href="#HelveticaNeue-76" transform="translate(575.899918 0)"/>
      <use xlink:href="#HelveticaNeue-69" transform="translate(625.899902 0)"/>
      <use xlink:href="#HelveticaNeue-63" transform="translate(648.099899 0)"/>
      <use xlink:href="#HelveticaNeue-65" transform="translate(701.799896 0)"/>
      <use xlink:href="#HelveticaNeue-73" transform="translate(755.499893 0)"/>
     </g>
    </g>
    <g id="patch_25">
     <path d="M 718.018906 72.231875 
L 740.018906 72.231875 
L 740.018906 64.531875 
L 718.018906 64.531875 
z
" style="fill: #00aa44"/>
    </g>
    <g id="text_37">
     <!-- Healthcare -->
     <g transform="translate(748.818906 72.231875) scale(0.11 -0.11)">
      <defs>
       <path id="HelveticaNeue-48" d="M 499 4570 
L 499 0 
L 1107 0 
L 1107 2093 
L 3514 2093 
L 3514 0 
L 4122 0 
L 4122 4570 
L 3514 4570 
L 3514 2605 
L 1107 2605 
L 1107 4570 
L 499 4570 
z
" transform="scale(0.015625)"/>
      </defs>
      <use xlink:href="#HelveticaNeue-48"/>
      <use xlink:href="#HelveticaNeue-65" transform="translate(72.199982 0)"/>
      <use xlink:href="#HelveticaNeue-61" transform="translate(125.899979 0)"/>
      <use xlink:href="#HelveticaNeue-6c" transform="translate(179.599976 0)"/>
      <use xlink:href="#HelveticaNeue-74" transform="translate(201.799973 0)"/>
      <use xlink:href="#HelveticaNeue-68" transform="translate(233.299957 0)"/>
      <use xlink:href="#HelveticaNeue-63" transform="translate(288.899948 0)"/>
      <use xlink:href="#HelveticaNeue-61" transform="translate(342.599945 0)"/>
      <use xlink:href="#HelveticaNeue-72" transform="translate(396.299942 0)"/>
      <use xlink:href="#HelveticaNeue-65" transform="translate(427.84993 0)"/>
     </g>
    </g>
   </g>
  </g>
 </g>
 <defs>
  <clipPath id="p5d8f5443be">
   <rect x="41.710625" y="23.433125" width="805.615" height="431.56"/>
  </clipPath>
 </defs>
</svg>
