<?xml version="1.0" encoding="utf-8" standalone="no"?>
<!DOCTYPE svg PUBLIC "-//W3C//DTD SVG 1.1//EN"
  "http://www.w3.org/Graphics/SVG/1.1/DTD/svg11.dtd">
<svg xmlns:xlink="http://www.w3.org/1999/xlink" width="998.543437pt" height="422.461719pt" viewBox="0 0 998.543437 422.461719" xmlns="http://www.w3.org/2000/svg" version="1.1">
 <metadata>
  <rdf:RDF xmlns:dc="http://purl.org/dc/elements/1.1/" xmlns:cc="http://creativecommons.org/ns#" xmlns:rdf="http://www.w3.org/1999/02/22-rdf-syntax-ns#">
   <cc:Work>
    <dc:type rdf:resource="http://purl.org/dc/dcmitype/StillImage"/>
    <dc:date>2025-12-15T21:43:58.242073</dc:date>
    <dc:format>image/svg+xml</dc:format>
    <dc:creator>
     <cc:Agent>
      <dc:title>Matplotlib v3.10.8, https://matplotlib.org/</dc:title>
     </cc:Agent>
    </dc:creator>
   </cc:Work>
  </rdf:RDF>
 </metadata>
 <defs>
  <style type="text/css">*{stroke-linejoin: round; stroke-linecap: butt}</style>
 </defs>
 <g id="figure_1">
  <g id="patch_1">
   <path d="M 0 422.461719 
L 998.543437 422.461719 
L 998.543437 0 
L 0 0 
z
" style="fill: #ffffff"/>
  </g>
  <g id="axes_1">
   <g id="patch_2">
    <path d="M 47.623438 383.162188 
L 487.073437 383.162188 
L 487.073437 22.702187 
L 47.623438 22.702187 
z
" style="fill: #ffffff"/>
   </g>
   <g id="matplotlib.axis_1">
    <g id="xtick_1">
     <g id="line2d_1">
      <defs>
       <path id="m85dd5eb53c" d="M 0 0 
L 0 3.5 
" style="stroke: #000000; stroke-width: 0.8"/>
      </defs>
      <g>
       <use xlink:href="#m85dd5eb53c" x="47.623438" y="383.162188" style="stroke: #000000; stroke-width: 0.8"/>
      </g>
     </g>
     <g id="text_1">
      <!-- 0 -->
      <g transform="translate(44.565781 398.016875) scale(0.11 -0.11)">
       <defs>
        <path id="HelveticaNeue-30" d="M 845 2234 
Q 845 2400 848 2601 
Q 851 2803 880 3004 
Q 909 3206 963 3398 
Q 1018 3590 1123 3734 
Q 1229 3878 1389 3968 
Q 1549 4058 1779 4058 
Q 2010 4058 2170 3968 
Q 2330 3878 2435 3734 
Q 2541 3590 2595 3398 
Q 2650 3206 2678 3004 
Q 2707 2803 2710 2601 
Q 2714 2400 2714 2234 
Q 2714 1978 2698 1661 
Q 2682 1344 2595 1065 
Q 2509 787 2317 595 
Q 2125 403 1779 403 
Q 1434 403 1242 595 
Q 1050 787 963 1065 
Q 877 1344 861 1661 
Q 845 1978 845 2234 
z
M 269 2227 
Q 269 1978 281 1709 
Q 294 1440 345 1184 
Q 397 928 493 701 
Q 589 474 755 301 
Q 922 128 1174 29 
Q 1427 -70 1779 -70 
Q 2138 -70 2387 29 
Q 2637 128 2803 301 
Q 2970 474 3066 701 
Q 3162 928 3213 1184 
Q 3264 1440 3277 1709 
Q 3290 1978 3290 2227 
Q 3290 2477 3277 2745 
Q 3264 3014 3213 3270 
Q 3162 3526 3066 3756 
Q 2970 3987 2803 4160 
Q 2637 4333 2384 4435 
Q 2131 4538 1779 4538 
Q 1427 4538 1174 4435 
Q 922 4333 755 4160 
Q 589 3987 493 3756 
Q 397 3526 345 3270 
Q 294 3014 281 2745 
Q 269 2477 269 2227 
z
" transform="scale(0.015625)"/>
       </defs>
       <use xlink:href="#HelveticaNeue-30"/>
      </g>
     </g>
    </g>
    <g id="xtick_2">
     <g id="line2d_2">
      <g>
       <use xlink:href="#m85dd5eb53c" x="135.513437" y="383.162188" style="stroke: #000000; stroke-width: 0.8"/>
      </g>
     </g>
     <g id="text_2">
      <!-- 200 -->
      <g transform="translate(126.340469 398.016875) scale(0.11 -0.11)">
       <defs>
        <path id="HelveticaNeue-32" d="M 282 2931 
L 826 2931 
Q 819 3136 867 3337 
Q 915 3539 1024 3699 
Q 1133 3859 1302 3958 
Q 1472 4058 1709 4058 
Q 1888 4058 2048 4000 
Q 2208 3942 2326 3833 
Q 2445 3725 2515 3574 
Q 2586 3424 2586 3238 
Q 2586 3002 2512 2822 
Q 2438 2643 2294 2489 
Q 2150 2336 1932 2185 
Q 1715 2035 1427 1856 
Q 1190 1715 972 1555 
Q 755 1395 582 1184 
Q 410 973 298 688 
Q 186 403 154 0 
L 3117 0 
L 3117 480 
L 787 480 
Q 826 691 950 854 
Q 1075 1018 1251 1158 
Q 1427 1299 1638 1424 
Q 1850 1549 2061 1677 
Q 2272 1811 2470 1958 
Q 2669 2106 2822 2288 
Q 2976 2470 3069 2700 
Q 3162 2931 3162 3232 
Q 3162 3552 3050 3795 
Q 2938 4038 2746 4201 
Q 2554 4365 2294 4451 
Q 2035 4538 1741 4538 
Q 1382 4538 1100 4416 
Q 819 4294 630 4080 
Q 442 3866 352 3571 
Q 262 3277 282 2931 
z
" transform="scale(0.015625)"/>
       </defs>
       <use xlink:href="#HelveticaNeue-32"/>
       <use xlink:href="#HelveticaNeue-30" transform="translate(55.599991 0)"/>
       <use xlink:href="#HelveticaNeue-30" transform="translate(111.199982 0)"/>
      </g>
     </g>
    </g>
    <g id="xtick_3">
     <g id="line2d_3">
      <g>
       <use xlink:href="#m85dd5eb53c" x="223.403437" y="383.162188" style="stroke: #000000; stroke-width: 0.8"/>
      </g>
     </g>
     <g id="text_3">
      <!-- 400 -->
      <g transform="translate(214.230469 398.016875) scale(0.11 -0.11)">
       <defs>
        <path id="HelveticaNeue-34" d="M 2170 1542 
L 646 1542 
L 2157 3763 
L 2170 3763 
L 2170 1542 
z
M 2682 1542 
L 2682 4538 
L 2246 4538 
L 179 1587 
L 179 1062 
L 2170 1062 
L 2170 0 
L 2682 0 
L 2682 1062 
L 3296 1062 
L 3296 1542 
L 2682 1542 
z
" transform="scale(0.015625)"/>
       </defs>
       <use xlink:href="#HelveticaNeue-34"/>
       <use xlink:href="#HelveticaNeue-30" transform="translate(55.599991 0)"/>
       <use xlink:href="#HelveticaNeue-30" transform="translate(111.199982 0)"/>
      </g>
     </g>
    </g>
    <g id="xtick_4">
     <g id="line2d_4">
      <g>
       <use xlink:href="#m85dd5eb53c" x="311.293437" y="383.162188" style="stroke: #000000; stroke-width: 0.8"/>
      </g>
     </g>
     <g id="text_4">
      <!-- 600 -->
      <g transform="translate(302.120469 398.016875) scale(0.11 -0.11)">
       <defs>
        <path id="HelveticaNeue-36" d="M 2650 3379 
L 3194 3379 
Q 3142 3942 2809 4240 
Q 2477 4538 1914 4538 
Q 1427 4538 1107 4333 
Q 787 4128 595 3789 
Q 403 3450 323 3011 
Q 243 2573 243 2106 
Q 243 1747 297 1363 
Q 352 979 518 659 
Q 685 339 992 134 
Q 1299 -70 1805 -70 
Q 2234 -70 2525 74 
Q 2816 218 2992 438 
Q 3168 659 3245 928 
Q 3322 1197 3322 1446 
Q 3322 1760 3226 2029 
Q 3130 2298 2954 2496 
Q 2778 2694 2518 2806 
Q 2259 2918 1933 2918 
Q 1562 2918 1277 2777 
Q 992 2637 800 2323 
L 787 2336 
Q 794 2598 838 2899 
Q 883 3200 1001 3459 
Q 1120 3718 1331 3888 
Q 1542 4058 1888 4058 
Q 2214 4058 2412 3872 
Q 2611 3686 2650 3379 
z
M 1830 2438 
Q 2061 2438 2233 2355 
Q 2406 2272 2521 2134 
Q 2637 1997 2691 1808 
Q 2746 1619 2746 1408 
Q 2746 1210 2685 1027 
Q 2624 845 2509 704 
Q 2394 563 2224 483 
Q 2054 403 1830 403 
Q 1606 403 1430 483 
Q 1254 563 1136 697 
Q 1018 832 954 1017 
Q 890 1203 890 1414 
Q 890 1626 950 1814 
Q 1011 2003 1132 2140 
Q 1254 2278 1427 2358 
Q 1600 2438 1830 2438 
z
" transform="scale(0.015625)"/>
       </defs>
       <use xlink:href="#HelveticaNeue-36"/>
       <use xlink:href="#HelveticaNeue-30" transform="translate(55.599991 0)"/>
       <use xlink:href="#HelveticaNeue-30" transform="translate(111.199982 0)"/>
      </g>
     </g>
    </g>
    <g id="xtick_5">
     <g id="line2d_5">
      <g>
       <use xlink:href="#m85dd5eb53c" x="399.183437" y="383.162188" style="stroke: #000000; stroke-width: 0.8"/>
      </g>
     </g>
     <g id="text_5">
      <!-- 800 -->
      <g transform="translate(390.010469 398.016875) scale(0.11 -0.11)">
       <defs>
        <path id="HelveticaNeue-38" d="M 992 3360 
Q 992 3533 1056 3661 
Q 1120 3789 1225 3878 
Q 1331 3968 1478 4013 
Q 1626 4058 1786 4058 
Q 2118 4058 2332 3882 
Q 2547 3706 2547 3360 
Q 2547 3014 2336 2822 
Q 2125 2630 1798 2630 
Q 1632 2630 1485 2675 
Q 1338 2720 1229 2809 
Q 1120 2899 1056 3036 
Q 992 3174 992 3360 
z
M 416 3379 
Q 416 3072 589 2813 
Q 762 2554 1050 2438 
Q 666 2304 461 2006 
Q 256 1709 256 1306 
Q 256 960 374 701 
Q 493 442 701 269 
Q 909 96 1190 13 
Q 1472 -70 1798 -70 
Q 2112 -70 2387 19 
Q 2662 109 2864 285 
Q 3066 461 3184 717 
Q 3302 973 3302 1306 
Q 3302 1728 3104 2019 
Q 2906 2310 2496 2438 
Q 2784 2566 2953 2819 
Q 3123 3072 3123 3379 
Q 3123 3597 3046 3805 
Q 2970 4013 2806 4176 
Q 2643 4339 2380 4438 
Q 2118 4538 1747 4538 
Q 1485 4538 1245 4461 
Q 1005 4384 819 4237 
Q 634 4090 525 3875 
Q 416 3661 416 3379 
z
M 832 1280 
Q 832 1478 905 1638 
Q 979 1798 1110 1913 
Q 1242 2029 1418 2089 
Q 1594 2150 1792 2150 
Q 1984 2150 2153 2083 
Q 2323 2016 2451 1901 
Q 2579 1786 2652 1629 
Q 2726 1472 2726 1286 
Q 2726 1094 2659 934 
Q 2592 774 2467 656 
Q 2342 538 2172 470 
Q 2003 403 1798 403 
Q 1376 403 1104 636 
Q 832 870 832 1280 
z
" transform="scale(0.015625)"/>
       </defs>
       <use xlink:href="#HelveticaNeue-38"/>
       <use xlink:href="#HelveticaNeue-30" transform="translate(55.599991 0)"/>
       <use xlink:href="#HelveticaNeue-30" transform="translate(111.199982 0)"/>
      </g>
     </g>
    </g>
    <g id="xtick_6">
     <g id="line2d_6">
      <g>
       <use xlink:href="#m85dd5eb53c" x="487.073437" y="383.162188" style="stroke: #000000; stroke-width: 0.8"/>
      </g>
     </g>
     <g id="text_6">
      <!-- 1000 -->
      <g transform="translate(474.842812 398.016875) scale(0.11 -0.11)">
       <defs>
        <path id="HelveticaNeue-31" d="M 2278 0 
L 2278 4538 
L 1862 4538 
Q 1818 4282 1696 4115 
Q 1574 3949 1398 3853 
Q 1222 3757 1004 3721 
Q 787 3686 557 3686 
L 557 3251 
L 1734 3251 
L 1734 0 
L 2278 0 
z
" transform="scale(0.015625)"/>
       </defs>
       <use xlink:href="#HelveticaNeue-31"/>
       <use xlink:href="#HelveticaNeue-30" transform="translate(55.599991 0)"/>
       <use xlink:href="#HelveticaNeue-30" transform="translate(111.199982 0)"/>
       <use xlink:href="#HelveticaNeue-30" transform="translate(166.799973 0)"/>
      </g>
     </g>
    </g>
    <g id="text_7">
     <!-- Training Iterations -->
     <g transform="translate(219.9025 412.752969) scale(0.12 -0.12)">
      <defs>
       <path id="HelveticaNeue-54" d="M 1536 4058 
L 1536 0 
L 2144 0 
L 2144 4058 
L 3667 4058 
L 3667 4570 
L 13 4570 
L 13 4058 
L 1536 4058 
z
" transform="scale(0.015625)"/>
       <path id="HelveticaNeue-72" d="M 390 3309 
L 390 0 
L 934 0 
L 934 1472 
Q 934 1792 998 2038 
Q 1062 2285 1203 2457 
Q 1344 2630 1574 2720 
Q 1805 2810 2131 2810 
L 2131 3386 
Q 1690 3398 1402 3206 
Q 1114 3014 915 2611 
L 902 2611 
L 902 3309 
L 390 3309 
z
" transform="scale(0.015625)"/>
       <path id="HelveticaNeue-61" d="M 3341 13 
Q 3200 -70 2950 -70 
Q 2739 -70 2614 48 
Q 2490 166 2490 435 
Q 2266 166 1968 48 
Q 1670 -70 1325 -70 
Q 1101 -70 899 -19 
Q 698 32 550 141 
Q 403 250 316 426 
Q 230 602 230 851 
Q 230 1133 326 1312 
Q 422 1491 579 1603 
Q 736 1715 937 1772 
Q 1139 1830 1350 1869 
Q 1574 1914 1776 1936 
Q 1978 1958 2131 2000 
Q 2285 2042 2374 2122 
Q 2464 2202 2464 2355 
Q 2464 2534 2397 2643 
Q 2330 2752 2224 2809 
Q 2118 2867 1987 2886 
Q 1856 2906 1728 2906 
Q 1382 2906 1152 2774 
Q 922 2643 902 2278 
L 358 2278 
Q 371 2586 486 2797 
Q 602 3008 794 3139 
Q 986 3270 1232 3328 
Q 1478 3386 1760 3386 
Q 1984 3386 2205 3354 
Q 2426 3322 2605 3222 
Q 2784 3123 2893 2944 
Q 3002 2765 3002 2477 
L 3002 774 
Q 3002 582 3024 492 
Q 3046 403 3174 403 
Q 3245 403 3341 435 
L 3341 13 
z
M 2458 1709 
Q 2355 1632 2188 1597 
Q 2022 1562 1840 1539 
Q 1658 1517 1472 1488 
Q 1286 1459 1139 1395 
Q 992 1331 899 1212 
Q 806 1094 806 890 
Q 806 755 860 662 
Q 915 570 1001 512 
Q 1088 454 1203 428 
Q 1318 403 1446 403 
Q 1715 403 1907 476 
Q 2099 550 2220 662 
Q 2342 774 2400 905 
Q 2458 1037 2458 1152 
L 2458 1709 
z
" transform="scale(0.015625)"/>
       <path id="HelveticaNeue-69" d="M 986 3904 
L 986 4570 
L 442 4570 
L 442 3904 
L 986 3904 
z
M 442 3309 
L 442 0 
L 986 0 
L 986 3309 
L 442 3309 
z
" transform="scale(0.015625)"/>
       <path id="HelveticaNeue-6e" d="M 410 3309 
L 410 0 
L 954 0 
L 954 1869 
Q 954 2093 1014 2281 
Q 1075 2470 1196 2611 
Q 1318 2752 1500 2829 
Q 1683 2906 1933 2906 
Q 2246 2906 2425 2726 
Q 2605 2547 2605 2240 
L 2605 0 
L 3149 0 
L 3149 2176 
Q 3149 2445 3094 2665 
Q 3040 2886 2905 3046 
Q 2771 3206 2553 3296 
Q 2336 3386 2010 3386 
Q 1274 3386 934 2784 
L 922 2784 
L 922 3309 
L 410 3309 
z
" transform="scale(0.015625)"/>
       <path id="HelveticaNeue-67" d="M 3264 282 
L 3264 3309 
L 2752 3309 
L 2752 2835 
L 2746 2835 
Q 2598 3110 2336 3248 
Q 2074 3386 1760 3386 
Q 1331 3386 1036 3222 
Q 742 3059 563 2806 
Q 384 2554 307 2243 
Q 230 1933 230 1638 
Q 230 1299 323 995 
Q 416 691 601 464 
Q 787 237 1062 102 
Q 1338 -32 1709 -32 
Q 2029 -32 2313 112 
Q 2598 256 2739 563 
L 2752 563 
L 2752 346 
Q 2752 70 2697 -160 
Q 2643 -390 2521 -553 
Q 2400 -717 2214 -809 
Q 2029 -902 1760 -902 
Q 1626 -902 1478 -873 
Q 1331 -845 1206 -781 
Q 1082 -717 995 -614 
Q 909 -512 902 -365 
L 358 -365 
Q 371 -634 499 -819 
Q 627 -1005 822 -1120 
Q 1018 -1235 1258 -1286 
Q 1498 -1338 1728 -1338 
Q 2522 -1338 2893 -934 
Q 3264 -531 3264 282 
z
M 1741 442 
Q 1472 442 1293 554 
Q 1114 666 1005 848 
Q 896 1030 851 1254 
Q 806 1478 806 1702 
Q 806 1939 860 2156 
Q 915 2374 1033 2540 
Q 1152 2707 1337 2806 
Q 1523 2906 1786 2906 
Q 2042 2906 2221 2803 
Q 2400 2701 2512 2531 
Q 2624 2362 2675 2150 
Q 2726 1939 2726 1722 
Q 2726 1491 2672 1260 
Q 2618 1030 2502 848 
Q 2387 666 2198 554 
Q 2010 442 1741 442 
z
" transform="scale(0.015625)"/>
       <path id="HelveticaNeue-20" transform="scale(0.015625)"/>
       <path id="HelveticaNeue-49" d="M 525 4570 
L 525 0 
L 1133 0 
L 1133 4570 
L 525 4570 
z
" transform="scale(0.015625)"/>
       <path id="HelveticaNeue-74" d="M 1165 3309 
L 1165 4301 
L 621 4301 
L 621 3309 
L 58 3309 
L 58 2829 
L 621 2829 
L 621 723 
Q 621 493 665 352 
Q 710 211 803 134 
Q 896 58 1046 29 
Q 1197 0 1408 0 
L 1824 0 
L 1824 480 
L 1574 480 
Q 1446 480 1366 489 
Q 1286 499 1241 531 
Q 1197 563 1181 620 
Q 1165 678 1165 774 
L 1165 2829 
L 1824 2829 
L 1824 3309 
L 1165 3309 
z
" transform="scale(0.015625)"/>
       <path id="HelveticaNeue-65" d="M 2707 1971 
L 806 1971 
Q 819 2163 889 2332 
Q 960 2502 1081 2630 
Q 1203 2758 1372 2832 
Q 1542 2906 1754 2906 
Q 1958 2906 2128 2832 
Q 2298 2758 2422 2633 
Q 2547 2509 2620 2336 
Q 2694 2163 2707 1971 
z
M 3232 1050 
L 2694 1050 
Q 2624 723 2403 563 
Q 2182 403 1837 403 
Q 1568 403 1369 492 
Q 1171 582 1043 732 
Q 915 883 857 1078 
Q 800 1274 806 1491 
L 3283 1491 
Q 3296 1792 3229 2125 
Q 3162 2458 2986 2739 
Q 2810 3021 2518 3203 
Q 2227 3386 1786 3386 
Q 1446 3386 1161 3258 
Q 877 3130 669 2899 
Q 461 2669 345 2355 
Q 230 2042 230 1664 
Q 243 1286 342 966 
Q 442 646 640 416 
Q 838 186 1129 58 
Q 1421 -70 1818 -70 
Q 2381 -70 2752 211 
Q 3123 493 3232 1050 
z
" transform="scale(0.015625)"/>
       <path id="HelveticaNeue-6f" d="M 806 1651 
Q 806 1952 886 2185 
Q 966 2419 1107 2579 
Q 1248 2739 1437 2822 
Q 1626 2906 1837 2906 
Q 2048 2906 2237 2822 
Q 2426 2739 2566 2579 
Q 2707 2419 2787 2185 
Q 2867 1952 2867 1651 
Q 2867 1350 2787 1116 
Q 2707 883 2566 726 
Q 2426 570 2237 486 
Q 2048 403 1837 403 
Q 1626 403 1437 486 
Q 1248 570 1107 726 
Q 966 883 886 1116 
Q 806 1350 806 1651 
z
M 230 1651 
Q 230 1286 332 972 
Q 435 659 640 425 
Q 845 192 1145 61 
Q 1446 -70 1837 -70 
Q 2234 -70 2531 61 
Q 2829 192 3033 425 
Q 3238 659 3340 972 
Q 3443 1286 3443 1651 
Q 3443 2016 3340 2333 
Q 3238 2650 3033 2883 
Q 2829 3117 2531 3251 
Q 2234 3386 1837 3386 
Q 1446 3386 1145 3251 
Q 845 3117 640 2883 
Q 435 2650 332 2333 
Q 230 2016 230 1651 
z
" transform="scale(0.015625)"/>
       <path id="HelveticaNeue-73" d="M 742 1043 
L 198 1043 
Q 211 736 326 521 
Q 442 307 634 176 
Q 826 45 1075 -12 
Q 1325 -70 1600 -70 
Q 1850 -70 2102 -22 
Q 2355 26 2556 147 
Q 2758 269 2883 467 
Q 3008 666 3008 966 
Q 3008 1203 2915 1363 
Q 2822 1523 2672 1628 
Q 2522 1734 2326 1798 
Q 2131 1862 1926 1907 
Q 1734 1952 1542 1993 
Q 1350 2035 1196 2096 
Q 1043 2157 944 2249 
Q 845 2342 845 2483 
Q 845 2611 909 2691 
Q 973 2771 1075 2819 
Q 1178 2867 1302 2886 
Q 1427 2906 1549 2906 
Q 1683 2906 1814 2877 
Q 1946 2848 2054 2784 
Q 2163 2720 2233 2614 
Q 2304 2509 2317 2349 
L 2861 2349 
Q 2842 2650 2733 2851 
Q 2624 3053 2441 3171 
Q 2259 3290 2022 3338 
Q 1786 3386 1504 3386 
Q 1286 3386 1065 3331 
Q 845 3277 669 3165 
Q 493 3053 381 2873 
Q 269 2694 269 2445 
Q 269 2125 429 1945 
Q 589 1766 829 1667 
Q 1069 1568 1350 1513 
Q 1632 1459 1872 1392 
Q 2112 1325 2272 1216 
Q 2432 1107 2432 896 
Q 2432 742 2355 643 
Q 2278 544 2160 493 
Q 2042 442 1901 422 
Q 1760 403 1632 403 
Q 1466 403 1309 435 
Q 1152 467 1027 540 
Q 902 614 825 739 
Q 749 864 742 1043 
z
" transform="scale(0.015625)"/>
      </defs>
      <use xlink:href="#HelveticaNeue-54"/>
      <use xlink:href="#HelveticaNeue-72" transform="translate(48.149994 0)"/>
      <use xlink:href="#HelveticaNeue-61" transform="translate(81.449982 0)"/>
      <use xlink:href="#HelveticaNeue-69" transform="translate(135.149979 0)"/>
      <use xlink:href="#HelveticaNeue-6e" transform="translate(157.349976 0)"/>
      <use xlink:href="#HelveticaNeue-69" transform="translate(212.949966 0)"/>
      <use xlink:href="#HelveticaNeue-6e" transform="translate(235.149963 0)"/>
      <use xlink:href="#HelveticaNeue-67" transform="translate(290.749954 0)"/>
      <use xlink:href="#HelveticaNeue-20" transform="translate(348.149948 0)"/>
      <use xlink:href="#HelveticaNeue-49" transform="translate(375.949936 0)"/>
      <use xlink:href="#HelveticaNeue-74" transform="translate(401.84993 0)"/>
      <use xlink:href="#HelveticaNeue-65" transform="translate(433.349915 0)"/>
      <use xlink:href="#HelveticaNeue-72" transform="translate(487.049911 0)"/>
      <use xlink:href="#HelveticaNeue-61" transform="translate(520.349899 0)"/>
      <use xlink:href="#HelveticaNeue-74" transform="translate(574.049896 0)"/>
      <use xlink:href="#HelveticaNeue-69" transform="translate(605.549881 0)"/>
      <use xlink:href="#HelveticaNeue-6f" transform="translate(627.749878 0)"/>
      <use xlink:href="#HelveticaNeue-6e" transform="translate(685.149872 0)"/>
      <use xlink:href="#HelveticaNeue-73" transform="translate(740.749863 0)"/>
     </g>
    </g>
   </g>
   <g id="matplotlib.axis_2">
    <g id="ytick_1">
     <g id="line2d_7">
      <defs>
       <path id="mceff6a7816" d="M 0 0 
L -3.5 0 
" style="stroke: #000000; stroke-width: 0.8"/>
      </defs>
      <g>
       <use xlink:href="#mceff6a7816" x="47.623438" y="383.162187" style="stroke: #000000; stroke-width: 0.8"/>
      </g>
     </g>
     <g id="text_8">
      <!-- 30 -->
      <g transform="translate(28.392813 387.089531) scale(0.11 -0.11)">
       <defs>
        <path id="HelveticaNeue-33" d="M 1395 2592 
L 1395 2131 
Q 1549 2150 1722 2150 
Q 1926 2150 2102 2096 
Q 2278 2042 2406 1930 
Q 2534 1818 2611 1654 
Q 2688 1491 2688 1280 
Q 2688 1075 2608 912 
Q 2528 749 2393 637 
Q 2259 525 2080 464 
Q 1901 403 1702 403 
Q 1235 403 992 681 
Q 749 960 736 1402 
L 192 1402 
Q 186 1050 291 774 
Q 397 499 595 310 
Q 794 122 1075 26 
Q 1357 -70 1702 -70 
Q 2022 -70 2307 16 
Q 2592 102 2803 275 
Q 3014 448 3139 707 
Q 3264 966 3264 1306 
Q 3264 1715 3062 2016 
Q 2861 2317 2445 2406 
L 2445 2419 
Q 2714 2541 2893 2777 
Q 3072 3014 3072 3322 
Q 3072 3635 2966 3865 
Q 2861 4096 2675 4243 
Q 2490 4390 2237 4464 
Q 1984 4538 1690 4538 
Q 1350 4538 1091 4429 
Q 832 4320 659 4128 
Q 486 3936 393 3667 
Q 301 3398 288 3072 
L 832 3072 
Q 832 3270 883 3449 
Q 934 3629 1040 3763 
Q 1146 3898 1309 3978 
Q 1472 4058 1690 4058 
Q 2035 4058 2265 3875 
Q 2496 3693 2496 3328 
Q 2496 3149 2425 3008 
Q 2355 2867 2236 2774 
Q 2118 2682 1961 2634 
Q 1805 2586 1632 2586 
L 1517 2586 
Q 1485 2586 1453 2586 
Q 1427 2586 1395 2592 
z
" transform="scale(0.015625)"/>
       </defs>
       <use xlink:href="#HelveticaNeue-33"/>
       <use xlink:href="#HelveticaNeue-30" transform="translate(55.599991 0)"/>
      </g>
     </g>
    </g>
    <g id="ytick_2">
     <g id="line2d_8">
      <g>
       <use xlink:href="#mceff6a7816" x="47.623438" y="331.667902" style="stroke: #000000; stroke-width: 0.8"/>
      </g>
     </g>
     <g id="text_9">
      <!-- 40 -->
      <g transform="translate(28.392813 335.595246) scale(0.11 -0.11)">
       <use xlink:href="#HelveticaNeue-34"/>
       <use xlink:href="#HelveticaNeue-30" transform="translate(55.599991 0)"/>
      </g>
     </g>
    </g>
    <g id="ytick_3">
     <g id="line2d_9">
      <g>
       <use xlink:href="#mceff6a7816" x="47.623438" y="280.173616" style="stroke: #000000; stroke-width: 0.8"/>
      </g>
     </g>
     <g id="text_10">
      <!-- 50 -->
      <g transform="translate(28.392813 284.10096) scale(0.11 -0.11)">
       <defs>
        <path id="HelveticaNeue-35" d="M 3008 3981 
L 3008 4461 
L 768 4461 
L 346 2106 
L 813 2080 
Q 973 2272 1181 2390 
Q 1389 2509 1658 2509 
Q 1888 2509 2077 2432 
Q 2266 2355 2400 2217 
Q 2534 2080 2608 1891 
Q 2682 1702 2682 1478 
Q 2682 1210 2605 1008 
Q 2528 806 2397 672 
Q 2266 538 2090 470 
Q 1914 403 1722 403 
Q 1517 403 1347 464 
Q 1178 525 1053 637 
Q 928 749 854 899 
Q 781 1050 768 1222 
L 224 1222 
Q 230 915 345 672 
Q 461 429 659 265 
Q 858 102 1117 16 
Q 1376 -70 1670 -70 
Q 2067 -70 2364 54 
Q 2662 179 2860 390 
Q 3059 602 3158 874 
Q 3258 1146 3258 1434 
Q 3258 1824 3142 2115 
Q 3027 2406 2828 2601 
Q 2630 2797 2361 2893 
Q 2093 2989 1792 2989 
Q 1562 2989 1328 2909 
Q 1094 2829 947 2662 
L 934 2675 
L 1178 3981 
L 3008 3981 
z
" transform="scale(0.015625)"/>
       </defs>
       <use xlink:href="#HelveticaNeue-35"/>
       <use xlink:href="#HelveticaNeue-30" transform="translate(55.599991 0)"/>
      </g>
     </g>
    </g>
    <g id="ytick_4">
     <g id="line2d_10">
      <g>
       <use xlink:href="#mceff6a7816" x="47.623438" y="228.67933" style="stroke: #000000; stroke-width: 0.8"/>
      </g>
     </g>
     <g id="text_11">
      <!-- 60 -->
      <g transform="translate(28.392813 232.606674) scale(0.11 -0.11)">
       <use xlink:href="#HelveticaNeue-36"/>
       <use xlink:href="#HelveticaNeue-30" transform="translate(55.599991 0)"/>
      </g>
     </g>
    </g>
    <g id="ytick_5">
     <g id="line2d_11">
      <g>
       <use xlink:href="#mceff6a7816" x="47.623438" y="177.185045" style="stroke: #000000; stroke-width: 0.8"/>
      </g>
     </g>
     <g id="text_12">
      <!-- 70 -->
      <g transform="translate(28.392813 181.112388) scale(0.11 -0.11)">
       <defs>
        <path id="HelveticaNeue-37" d="M 3258 3994 
L 3258 4461 
L 320 4461 
L 320 3949 
L 2701 3949 
Q 2342 3571 2032 3123 
Q 1722 2675 1485 2172 
Q 1248 1670 1097 1123 
Q 947 576 909 0 
L 1517 0 
Q 1549 531 1696 1094 
Q 1843 1658 2076 2189 
Q 2310 2720 2611 3187 
Q 2912 3654 3258 3994 
z
" transform="scale(0.015625)"/>
       </defs>
       <use xlink:href="#HelveticaNeue-37"/>
       <use xlink:href="#HelveticaNeue-30" transform="translate(55.599991 0)"/>
      </g>
     </g>
    </g>
    <g id="ytick_6">
     <g id="line2d_12">
      <g>
       <use xlink:href="#mceff6a7816" x="47.623438" y="125.690759" style="stroke: #000000; stroke-width: 0.8"/>
      </g>
     </g>
     <g id="text_13">
      <!-- 80 -->
      <g transform="translate(28.392813 129.618103) scale(0.11 -0.11)">
       <use xlink:href="#HelveticaNeue-38"/>
       <use xlink:href="#HelveticaNeue-30" transform="translate(55.599991 0)"/>
      </g>
     </g>
    </g>
    <g id="ytick_7">
     <g id="line2d_13">
      <g>
       <use xlink:href="#mceff6a7816" x="47.623438" y="74.196473" style="stroke: #000000; stroke-width: 0.8"/>
      </g>
     </g>
     <g id="text_14">
      <!-- 90 -->
      <g transform="translate(28.392813 78.123817) scale(0.11 -0.11)">
       <defs>
        <path id="HelveticaNeue-39" d="M 858 1094 
L 314 1094 
Q 365 506 742 218 
Q 1120 -70 1690 -70 
Q 2515 -70 2889 560 
Q 3264 1190 3264 2368 
Q 3264 3014 3139 3433 
Q 3014 3853 2803 4096 
Q 2592 4339 2310 4438 
Q 2029 4538 1709 4538 
Q 1382 4538 1107 4429 
Q 832 4320 633 4125 
Q 435 3930 326 3658 
Q 218 3386 218 3059 
Q 218 2726 310 2444 
Q 403 2163 585 1964 
Q 768 1766 1037 1654 
Q 1306 1542 1651 1542 
Q 1984 1542 2265 1712 
Q 2547 1882 2701 2170 
L 2714 2157 
Q 2688 1267 2438 835 
Q 2189 403 1690 403 
Q 1363 403 1126 582 
Q 890 762 858 1094 
z
M 2618 3021 
Q 2618 2822 2554 2640 
Q 2490 2458 2368 2320 
Q 2246 2182 2073 2102 
Q 1901 2022 1690 2022 
Q 1491 2022 1328 2102 
Q 1165 2182 1046 2316 
Q 928 2451 861 2624 
Q 794 2797 794 2982 
Q 794 3194 842 3386 
Q 890 3578 995 3728 
Q 1101 3878 1270 3968 
Q 1440 4058 1683 4058 
Q 1914 4058 2086 3974 
Q 2259 3891 2377 3747 
Q 2496 3603 2557 3417 
Q 2618 3232 2618 3021 
z
" transform="scale(0.015625)"/>
       </defs>
       <use xlink:href="#HelveticaNeue-39"/>
       <use xlink:href="#HelveticaNeue-30" transform="translate(55.599991 0)"/>
      </g>
     </g>
    </g>
    <g id="ytick_8">
     <g id="line2d_14">
      <g>
       <use xlink:href="#mceff6a7816" x="47.623438" y="22.702187" style="stroke: #000000; stroke-width: 0.8"/>
      </g>
     </g>
     <g id="text_15">
      <!-- 100 -->
      <g transform="translate(22.2775 26.629531) scale(0.11 -0.11)">
       <use xlink:href="#HelveticaNeue-31"/>
       <use xlink:href="#HelveticaNeue-30" transform="translate(55.599991 0)"/>
       <use xlink:href="#HelveticaNeue-30" transform="translate(111.199982 0)"/>
      </g>
     </g>
    </g>
    <g id="text_16">
     <!-- Average Reward -->
     <g transform="translate(15.76875 247.044375) rotate(-90) scale(0.12 -0.12)">
      <defs>
       <path id="HelveticaNeue-41" d="M 1286 1888 
L 2061 4019 
L 2074 4019 
L 2835 1888 
L 1286 1888 
z
M 1741 4570 
L -38 0 
L 582 0 
L 1094 1376 
L 3027 1376 
L 3526 0 
L 4198 0 
L 2413 4570 
L 1741 4570 
z
" transform="scale(0.015625)"/>
       <path id="HelveticaNeue-76" d="M 1901 0 
L 3110 3309 
L 2541 3309 
L 1638 550 
L 1626 550 
L 698 3309 
L 90 3309 
L 1318 0 
L 1901 0 
z
" transform="scale(0.015625)"/>
       <path id="HelveticaNeue-52" d="M 499 4570 
L 499 0 
L 1107 0 
L 1107 1952 
L 2592 1952 
Q 2816 1952 2950 1885 
Q 3085 1818 3168 1706 
Q 3251 1594 3289 1443 
Q 3328 1293 3354 1126 
Q 3386 960 3392 787 
Q 3398 614 3404 464 
Q 3411 314 3433 192 
Q 3456 70 3520 0 
L 4198 0 
Q 4102 115 4054 265 
Q 4006 416 3980 582 
Q 3955 749 3948 921 
Q 3942 1094 3930 1261 
Q 3910 1427 3875 1580 
Q 3840 1734 3766 1859 
Q 3693 1984 3568 2073 
Q 3443 2163 3245 2202 
L 3245 2214 
Q 3661 2330 3849 2643 
Q 4038 2957 4038 3373 
Q 4038 3930 3670 4250 
Q 3302 4570 2650 4570 
L 499 4570 
z
M 2374 2464 
L 1107 2464 
L 1107 4058 
L 2618 4058 
Q 3046 4058 3238 3840 
Q 3430 3622 3430 3277 
Q 3430 3027 3344 2870 
Q 3258 2714 3114 2621 
Q 2970 2528 2778 2496 
Q 2586 2464 2374 2464 
z
" transform="scale(0.015625)"/>
       <path id="HelveticaNeue-77" d="M 3686 0 
L 4742 3309 
L 4179 3309 
L 3437 602 
L 3424 602 
L 2733 3309 
L 2138 3309 
L 1472 602 
L 1459 602 
L 710 3309 
L 109 3309 
L 1171 0 
L 1760 0 
L 2426 2630 
L 2438 2630 
L 3110 0 
L 3686 0 
z
" transform="scale(0.015625)"/>
       <path id="HelveticaNeue-64" d="M 806 1626 
Q 806 1869 857 2099 
Q 909 2330 1024 2509 
Q 1139 2688 1331 2797 
Q 1523 2906 1798 2906 
Q 2080 2906 2278 2800 
Q 2477 2694 2601 2521 
Q 2726 2349 2784 2121 
Q 2842 1894 2842 1651 
Q 2842 1421 2787 1197 
Q 2733 973 2611 797 
Q 2490 621 2298 512 
Q 2106 403 1830 403 
Q 1568 403 1373 505 
Q 1178 608 1053 781 
Q 928 954 867 1174 
Q 806 1395 806 1626 
z
M 3366 0 
L 3366 4570 
L 2822 4570 
L 2822 2867 
L 2810 2867 
Q 2720 3014 2589 3113 
Q 2458 3213 2310 3273 
Q 2163 3334 2016 3360 
Q 1869 3386 1741 3386 
Q 1363 3386 1078 3248 
Q 794 3110 605 2876 
Q 416 2643 323 2329 
Q 230 2016 230 1664 
Q 230 1312 326 998 
Q 422 685 611 448 
Q 800 211 1085 70 
Q 1370 -70 1754 -70 
Q 2099 -70 2387 51 
Q 2675 173 2810 448 
L 2822 448 
L 2822 0 
L 3366 0 
z
" transform="scale(0.015625)"/>
      </defs>
      <use xlink:href="#HelveticaNeue-41"/>
      <use xlink:href="#HelveticaNeue-76" transform="translate(63.049988 0)"/>
      <use xlink:href="#HelveticaNeue-65" transform="translate(113.049973 0)"/>
      <use xlink:href="#HelveticaNeue-72" transform="translate(166.749969 0)"/>
      <use xlink:href="#HelveticaNeue-61" transform="translate(200.049957 0)"/>
      <use xlink:href="#HelveticaNeue-67" transform="translate(253.749954 0)"/>
      <use xlink:href="#HelveticaNeue-65" transform="translate(311.149948 0)"/>
      <use xlink:href="#HelveticaNeue-20" transform="translate(364.849945 0)"/>
      <use xlink:href="#HelveticaNeue-52" transform="translate(392.649933 0)"/>
      <use xlink:href="#HelveticaNeue-65" transform="translate(461.149918 0)"/>
      <use xlink:href="#HelveticaNeue-77" transform="translate(514.849915 0)"/>
      <use xlink:href="#HelveticaNeue-61" transform="translate(590.649902 0)"/>
      <use xlink:href="#HelveticaNeue-72" transform="translate(644.349899 0)"/>
      <use xlink:href="#HelveticaNeue-64" transform="translate(675.899887 0)"/>
     </g>
    </g>
   </g>
   <g id="line2d_15">
    <path d="M 47.623438 289.709248 
L 52.017938 289.835712 
L 56.412438 289.945759 
L 60.806938 289.837677 
L 65.201437 289.380172 
L 69.595937 288.574686 
L 73.990437 287.526139 
L 78.384938 286.315986 
L 82.779438 284.88635 
L 87.173937 283.019303 
L 91.568437 280.454749 
L 95.962937 277.064292 
L 100.357438 272.976321 
L 104.751937 268.561151 
L 109.146437 264.281701 
L 113.540937 260.496567 
L 117.935438 257.319232 
L 122.329937 254.583301 
L 126.724437 251.947331 
L 131.118937 249.062355 
L 135.513437 245.731965 
L 139.907938 241.995803 
L 144.302437 238.094377 
L 148.696937 234.357981 
L 153.091437 231.076596 
L 157.485937 228.421509 
L 161.880437 226.443408 
L 166.274937 225.119438 
L 170.669437 224.377721 
L 175.063937 224.07804 
L 179.458437 223.978308 
L 183.852937 223.73796 
L 188.247437 223.003282 
L 192.641937 221.533883 
L 197.036437 219.31284 
L 201.430937 216.554892 
L 205.825437 213.615623 
L 210.219937 210.837055 
L 214.614437 208.432224 
L 219.008937 206.441866 
L 223.403437 204.763194 
L 227.797937 203.224245 
L 232.192437 201.671211 
L 236.586937 200.019096 
L 240.981437 198.270766 
L 245.375937 196.484143 
L 249.770437 194.716362 
L 254.164937 192.994085 
L 258.559438 191.31252 
L 262.953937 189.645267 
L 267.348437 187.958666 
L 271.742937 186.214936 
L 276.137437 184.408695 
L 280.531937 182.648584 
L 284.926437 181.194246 
L 289.320937 180.399443 
L 293.715438 180.537136 
L 298.109938 181.608335 
L 302.504437 183.265056 
L 306.898937 184.900455 
L 311.293437 185.864991 
L 315.687937 185.686042 
L 320.082437 184.201979 
L 324.476938 181.570136 
L 328.871438 178.187723 
L 333.265938 174.568225 
L 337.660438 171.196777 
L 342.054937 168.399274 
L 346.449437 166.299045 
L 350.843937 164.856204 
L 355.238437 163.979886 
L 359.632937 163.615019 
L 364.027437 163.750993 
L 368.421938 164.372844 
L 372.816438 165.400695 
L 377.210938 166.654097 
L 381.605437 167.859616 
L 385.999937 168.685562 
L 390.394437 168.802711 
L 394.788937 167.989757 
L 399.183437 166.226776 
L 403.577937 163.739057 
L 407.972437 160.937695 
L 412.366938 158.269412 
L 416.761437 156.065488 
L 421.155937 154.458687 
L 425.550437 153.406535 
L 429.944937 152.784386 
L 434.339437 152.49106 
L 438.733937 152.491522 
L 443.128437 152.784777 
L 447.522937 153.327091 
L 451.917438 153.963509 
L 456.311937 154.420023 
L 460.706437 154.385634 
L 465.100937 153.655198 
L 469.495437 152.26427 
L 473.889937 150.524075 
L 478.284437 148.931253 
L 482.678937 147.981971 
" clip-path="url(#pcc36937d59)" style="fill: none; stroke: #cccccc; stroke-width: 2; stroke-linecap: square"/>
   </g>
   <g id="line2d_16">
    <path d="M 47.623438 280.952775 
L 52.017938 279.371007 
L 56.412438 276.472276 
L 60.806938 272.669449 
L 65.201437 268.355223 
L 69.595937 263.782732 
L 73.990437 259.057876 
L 78.384938 254.223933 
L 82.779438 249.37079 
L 87.173937 244.672429 
L 91.568437 240.322226 
L 95.962937 236.43315 
L 100.357438 232.973676 
L 104.751937 229.794379 
L 109.146437 226.7147 
L 113.540937 223.59178 
L 117.935438 220.338977 
L 122.329937 216.909626 
L 126.724437 213.295862 
L 131.118937 209.540222 
L 135.513437 205.747437 
L 139.907938 202.064974 
L 144.302437 198.634731 
L 148.696937 195.541208 
L 153.091437 192.772714 
L 157.485937 190.201529 
L 161.880437 187.61866 
L 166.274937 184.807501 
L 170.669437 181.643047 
L 175.063937 178.148751 
L 179.458437 174.47656 
L 183.852937 170.815061 
L 188.247437 167.279632 
L 192.641937 163.868635 
L 197.036437 160.512348 
L 201.430937 157.182846 
L 205.825437 153.994099 
L 210.219937 151.21215 
L 214.614437 149.15113 
L 219.008937 147.997331 
L 223.403437 147.682203 
L 227.797937 147.874279 
L 232.192437 148.095172 
L 236.586937 147.891623 
L 240.981437 146.960487 
L 245.375937 145.202799 
L 249.770437 142.710048 
L 254.164937 139.723829 
L 258.559438 136.585073 
L 262.953937 133.655516 
L 267.348437 131.231449 
L 271.742937 129.448237 
L 276.137437 128.222612 
L 280.531937 127.266423 
L 284.926437 126.171048 
L 289.320937 124.541245 
L 293.715438 122.139399 
L 298.109938 118.987485 
L 302.504437 115.3701 
L 306.898937 111.748434 
L 311.293437 108.609191 
L 315.687937 106.317449 
L 320.082437 105.042409 
L 324.476938 104.7529 
L 328.871438 105.263561 
L 333.265938 106.277422 
L 337.660438 107.438197 
L 342.054937 108.391342 
L 346.449437 108.854578 
L 350.843937 108.689191 
L 355.238437 107.919597 
L 359.632937 106.717579 
L 364.027437 105.364987 
L 368.421938 104.188448 
L 372.816438 103.496612 
L 377.210938 103.498087 
L 381.605437 104.245998 
L 385.999937 105.62259 
L 390.394437 107.372284 
L 394.788937 109.167517 
L 399.183437 110.673902 
L 403.577937 111.600883 
L 407.972437 111.740975 
L 412.366938 110.992148 
L 416.761437 109.363668 
L 421.155937 106.979686 
L 425.550437 104.085492 
L 429.944937 101.025426 
L 434.339437 98.184382 
L 438.733937 95.88037 
L 443.128437 94.263477 
L 447.522937 93.284448 
L 451.917438 92.756207 
L 456.311937 92.466434 
L 460.706437 92.266563 
L 465.100937 92.094321 
L 469.495437 91.940812 
L 473.889937 91.810001 
L 478.284437 91.711945 
L 482.678937 91.657883 
" clip-path="url(#pcc36937d59)" style="fill: none; stroke: #ff6600; stroke-width: 2; stroke-linecap: square"/>
   </g>
   <g id="line2d_17">
    <path d="M 47.623438 241.236817 
L 52.017938 239.046396 
L 56.412438 234.871277 
L 60.806938 229.103273 
L 65.201437 222.267483 
L 69.595937 214.935007 
L 73.990437 207.61823 
L 78.384938 200.692634 
L 82.779438 194.363048 
L 87.173937 188.676093 
L 91.568437 183.557625 
L 95.962937 178.869173 
L 100.357438 174.473472 
L 104.751937 170.291182 
L 109.146437 166.323093 
L 113.540937 162.620652 
L 117.935438 159.212355 
L 122.329937 156.034171 
L 126.724437 152.900692 
L 131.118937 149.537698 
L 135.513437 145.66703 
L 139.907938 141.118988 
L 144.302437 135.930246 
L 148.696937 130.38095 
L 153.091437 124.949337 
L 157.485937 120.170265 
L 161.880437 116.457358 
L 166.274937 113.945151 
L 170.669437 112.446645 
L 175.063937 111.529178 
L 179.458437 110.693949 
L 183.852937 109.561186 
L 188.247437 107.972132 
L 192.641937 105.96333 
L 197.036437 103.656083 
L 201.430937 101.150938 
L 205.825437 98.498982 
L 210.219937 95.74607 
L 214.614437 92.98625 
L 219.008937 90.367341 
L 223.403437 88.028463 
L 227.797937 86.022566 
L 232.192437 84.276812 
L 236.586937 82.623181 
L 240.981437 80.884155 
L 245.375937 78.964318 
L 249.770437 76.890175 
L 254.164937 74.79206 
L 258.559438 72.851357 
L 262.953937 71.236364 
L 267.348437 70.066716 
L 271.742937 69.387126 
L 276.137437 69.161128 
L 280.531937 69.263286 
L 284.926437 69.509464 
L 289.320937 69.706941 
L 293.715438 69.715534 
L 298.109938 69.486851 
L 302.504437 69.060343 
L 306.898937 68.521356 
L 311.293437 67.956662 
L 315.687937 67.423247 
L 320.082437 66.939256 
L 324.476938 66.484366 
L 328.871438 66.013448 
L 333.265938 65.483952 
L 337.660438 64.883861 
L 342.054937 64.251153 
L 346.449437 63.661077 
L 350.843937 63.183483 
L 355.238437 62.837097 
L 359.632937 62.560657 
L 364.027437 62.224818 
L 368.421938 61.680246 
L 372.816438 60.825098 
L 377.210938 59.65173 
L 381.605437 58.256369 
L 385.999937 56.797406 
L 390.394437 55.438575 
L 394.788937 54.301004 
L 399.183437 53.449072 
L 403.577937 52.898628 
L 407.972437 52.626715 
L 412.366938 52.586817 
L 416.761437 52.730196 
L 421.155937 53.032722 
L 425.550437 53.509776 
L 429.944937 54.199428 
L 434.339437 55.118545 
L 438.733937 56.215684 
L 443.128437 57.355456 
L 447.522937 58.341005 
L 451.917438 58.962868 
L 456.311937 59.056724 
L 460.706437 58.555562 
L 465.100937 57.517919 
L 469.495437 56.134113 
L 473.889937 54.690177 
L 478.284437 53.500494 
L 482.678937 52.830575 
" clip-path="url(#pcc36937d59)" style="fill: none; stroke: #0066cc; stroke-width: 2.5; stroke-linecap: square"/>
   </g>
   <g id="patch_3">
    <path d="M 47.623438 383.162187 
L 47.623438 22.702187 
" style="fill: none; stroke: #000000; stroke-width: 0.8; stroke-linejoin: miter; stroke-linecap: square"/>
   </g>
   <g id="patch_4">
    <path d="M 47.623438 383.162188 
L 487.073437 383.162188 
" style="fill: none; stroke: #000000; stroke-width: 0.8; stroke-linejoin: miter; stroke-linecap: square"/>
   </g>
   <g id="text_17">
    <!-- GRPO converges -->
    <g style="fill: #0066cc" transform="translate(184.650312 63.537098) scale(0.1 -0.1)">
     <defs>
      <path id="HelveticaNeue-47" d="M 3917 570 
L 4077 0 
L 4461 0 
L 4461 2406 
L 2458 2406 
L 2458 1894 
L 3917 1894 
Q 3930 1581 3834 1309 
Q 3738 1037 3549 835 
Q 3360 634 3085 518 
Q 2810 403 2451 403 
Q 2067 403 1776 553 
Q 1485 704 1286 957 
Q 1088 1210 985 1539 
Q 883 1869 883 2227 
Q 883 2592 972 2941 
Q 1062 3290 1251 3562 
Q 1440 3834 1737 4000 
Q 2035 4166 2451 4166 
Q 2707 4166 2934 4105 
Q 3162 4045 3341 3923 
Q 3520 3802 3641 3613 
Q 3763 3424 3808 3162 
L 4416 3162 
Q 4352 3565 4176 3849 
Q 4000 4134 3741 4320 
Q 3482 4506 3152 4592 
Q 2822 4678 2451 4678 
Q 1907 4678 1500 4476 
Q 1094 4275 822 3936 
Q 550 3597 412 3145 
Q 275 2694 275 2195 
Q 275 1747 422 1331 
Q 570 915 851 595 
Q 1133 275 1536 86 
Q 1939 -102 2451 -102 
Q 2854 -102 3251 54 
Q 3648 211 3917 570 
z
" transform="scale(0.015625)"/>
      <path id="HelveticaNeue-50" d="M 1107 2381 
L 1107 4058 
L 2298 4058 
Q 2816 4058 3056 3843 
Q 3296 3629 3296 3219 
Q 3296 2810 3056 2592 
Q 2816 2374 2298 2381 
L 1107 2381 
z
M 499 4570 
L 499 0 
L 1107 0 
L 1107 1869 
L 2502 1869 
Q 3194 1862 3549 2220 
Q 3904 2579 3904 3219 
Q 3904 3859 3549 4214 
Q 3194 4570 2502 4570 
L 499 4570 
z
" transform="scale(0.015625)"/>
      <path id="HelveticaNeue-4f" d="M 851 2285 
Q 851 2630 940 2966 
Q 1030 3302 1222 3571 
Q 1414 3840 1715 4003 
Q 2016 4166 2432 4166 
Q 2848 4166 3149 4003 
Q 3450 3840 3642 3571 
Q 3834 3302 3923 2966 
Q 4013 2630 4013 2285 
Q 4013 1939 3923 1603 
Q 3834 1267 3642 998 
Q 3450 730 3149 566 
Q 2848 403 2432 403 
Q 2016 403 1715 566 
Q 1414 730 1222 998 
Q 1030 1267 940 1603 
Q 851 1939 851 2285 
z
M 243 2285 
Q 243 1818 380 1386 
Q 518 954 793 621 
Q 1069 288 1478 93 
Q 1888 -102 2432 -102 
Q 2976 -102 3385 93 
Q 3795 288 4070 621 
Q 4346 954 4483 1386 
Q 4621 1818 4621 2285 
Q 4621 2752 4483 3184 
Q 4346 3616 4070 3949 
Q 3795 4282 3385 4480 
Q 2976 4678 2432 4678 
Q 1888 4678 1478 4480 
Q 1069 4282 793 3949 
Q 518 3616 380 3184 
Q 243 2752 243 2285 
z
" transform="scale(0.015625)"/>
      <path id="HelveticaNeue-63" d="M 2656 2246 
L 3219 2246 
Q 3187 2541 3065 2755 
Q 2944 2970 2755 3110 
Q 2566 3251 2320 3318 
Q 2074 3386 1792 3386 
Q 1402 3386 1107 3248 
Q 813 3110 617 2870 
Q 422 2630 326 2307 
Q 230 1984 230 1613 
Q 230 1242 329 931 
Q 429 621 624 397 
Q 819 173 1110 51 
Q 1402 -70 1779 -70 
Q 2413 -70 2781 262 
Q 3149 595 3238 1210 
L 2682 1210 
Q 2630 826 2403 614 
Q 2176 403 1773 403 
Q 1517 403 1331 505 
Q 1146 608 1030 777 
Q 915 947 860 1164 
Q 806 1382 806 1613 
Q 806 1862 857 2096 
Q 909 2330 1027 2509 
Q 1146 2688 1344 2797 
Q 1542 2906 1837 2906 
Q 2182 2906 2387 2733 
Q 2592 2560 2656 2246 
z
" transform="scale(0.015625)"/>
     </defs>
     <use xlink:href="#HelveticaNeue-47"/>
     <use xlink:href="#HelveticaNeue-52" transform="translate(75.899994 0)"/>
     <use xlink:href="#HelveticaNeue-50" transform="translate(144.399979 0)"/>
     <use xlink:href="#HelveticaNeue-4f" transform="translate(209.199966 0)"/>
     <use xlink:href="#HelveticaNeue-20" transform="translate(285.199951 0)"/>
     <use xlink:href="#HelveticaNeue-63" transform="translate(312.999939 0)"/>
     <use xlink:href="#HelveticaNeue-6f" transform="translate(366.699936 0)"/>
     <use xlink:href="#HelveticaNeue-6e" transform="translate(424.09993 0)"/>
     <use xlink:href="#HelveticaNeue-76" transform="translate(479.699921 0)"/>
     <use xlink:href="#HelveticaNeue-65" transform="translate(529.699905 0)"/>
     <use xlink:href="#HelveticaNeue-72" transform="translate(583.399902 0)"/>
     <use xlink:href="#HelveticaNeue-67" transform="translate(613.94989 0)"/>
     <use xlink:href="#HelveticaNeue-65" transform="translate(671.349884 0)"/>
     <use xlink:href="#HelveticaNeue-73" transform="translate(725.049881 0)"/>
    </g>
    <!-- ~40% faster -->
    <g style="fill: #0066cc" transform="translate(195.864375 74.196473) scale(0.1 -0.1)">
     <defs>
      <path id="HelveticaNeue-7e" d="M 3514 2368 
Q 3437 2234 3347 2109 
Q 3258 1984 3149 1885 
Q 3040 1786 2905 1725 
Q 2771 1664 2598 1664 
Q 2400 1664 2217 1741 
Q 2035 1818 1865 1907 
Q 1696 1997 1533 2073 
Q 1370 2150 1210 2150 
Q 1005 2150 867 1993 
Q 730 1837 653 1664 
L 307 1971 
Q 365 2099 448 2227 
Q 531 2355 646 2454 
Q 762 2554 909 2614 
Q 1056 2675 1242 2675 
Q 1414 2675 1596 2598 
Q 1779 2522 1955 2432 
Q 2131 2342 2297 2265 
Q 2464 2189 2605 2189 
Q 2701 2189 2781 2233 
Q 2861 2278 2928 2348 
Q 2995 2419 3052 2505 
Q 3110 2592 3168 2675 
L 3514 2368 
L 3514 2368 
z
" transform="scale(0.015625)"/>
      <path id="HelveticaNeue-25" d="M 1069 3251 
Q 1069 3398 1088 3561 
Q 1107 3725 1168 3862 
Q 1229 4000 1337 4093 
Q 1446 4186 1626 4186 
Q 1811 4186 1916 4093 
Q 2022 4000 2080 3862 
Q 2138 3725 2154 3561 
Q 2170 3398 2170 3258 
Q 2170 3110 2150 2944 
Q 2131 2778 2070 2640 
Q 2010 2502 1901 2412 
Q 1792 2323 1606 2323 
Q 1427 2323 1321 2416 
Q 1216 2509 1158 2646 
Q 1101 2784 1085 2947 
Q 1069 3110 1069 3251 
z
M 589 3238 
Q 589 2976 643 2745 
Q 698 2515 819 2342 
Q 941 2170 1139 2070 
Q 1338 1971 1626 1971 
Q 1907 1971 2099 2080 
Q 2291 2189 2416 2365 
Q 2541 2541 2595 2774 
Q 2650 3008 2650 3258 
Q 2650 3520 2602 3753 
Q 2554 3987 2435 4160 
Q 2317 4333 2121 4435 
Q 1926 4538 1626 4538 
Q 1331 4538 1132 4432 
Q 934 4326 812 4147 
Q 691 3968 640 3734 
Q 589 3501 589 3238 
z
M 4230 1203 
Q 4230 1350 4249 1513 
Q 4269 1677 4329 1814 
Q 4390 1952 4499 2045 
Q 4608 2138 4787 2138 
Q 4973 2138 5078 2045 
Q 5184 1952 5241 1814 
Q 5299 1677 5315 1513 
Q 5331 1350 5331 1210 
Q 5331 1062 5312 896 
Q 5293 730 5232 592 
Q 5171 454 5062 364 
Q 4954 275 4768 275 
Q 4589 275 4483 368 
Q 4378 461 4320 598 
Q 4262 736 4246 899 
Q 4230 1062 4230 1203 
z
M 3750 1190 
Q 3750 928 3804 697 
Q 3859 467 3980 297 
Q 4102 128 4300 29 
Q 4499 -70 4787 -70 
Q 5069 -70 5261 35 
Q 5453 141 5577 317 
Q 5702 493 5756 726 
Q 5811 960 5811 1210 
Q 5811 1472 5763 1705 
Q 5715 1939 5596 2112 
Q 5478 2285 5283 2387 
Q 5088 2490 4787 2490 
Q 4493 2490 4294 2384 
Q 4096 2278 3974 2099 
Q 3853 1920 3801 1686 
Q 3750 1453 3750 1190 
z
M 4646 4621 
L 1203 -134 
L 1754 -134 
L 5190 4621 
L 4646 4621 
z
" transform="scale(0.015625)"/>
      <path id="HelveticaNeue-66" d="M 634 2829 
L 634 0 
L 1178 0 
L 1178 2829 
L 1818 2829 
L 1818 3309 
L 1178 3309 
L 1178 3770 
Q 1178 3987 1286 4064 
Q 1395 4141 1594 4141 
Q 1664 4141 1747 4131 
Q 1830 4122 1901 4096 
L 1901 4570 
Q 1824 4595 1725 4608 
Q 1626 4621 1549 4621 
Q 1101 4621 867 4413 
Q 634 4205 634 3802 
L 634 3309 
L 77 3309 
L 77 2829 
L 634 2829 
z
" transform="scale(0.015625)"/>
     </defs>
     <use xlink:href="#HelveticaNeue-7e"/>
     <use xlink:href="#HelveticaNeue-34" transform="translate(59.999985 0)"/>
     <use xlink:href="#HelveticaNeue-30" transform="translate(115.599976 0)"/>
     <use xlink:href="#HelveticaNeue-25" transform="translate(171.199966 0)"/>
     <use xlink:href="#HelveticaNeue-20" transform="translate(271.199951 0)"/>
     <use xlink:href="#HelveticaNeue-66" transform="translate(298.999939 0)"/>
     <use xlink:href="#HelveticaNeue-61" transform="translate(328.59993 0)"/>
     <use xlink:href="#HelveticaNeue-73" transform="translate(382.299927 0)"/>
     <use xlink:href="#HelveticaNeue-74" transform="translate(432.299911 0)"/>
     <use xlink:href="#HelveticaNeue-65" transform="translate(463.799896 0)"/>
     <use xlink:href="#HelveticaNeue-72" transform="translate(517.499893 0)"/>
    </g>
   </g>
   <g id="text_18">
    <!-- Convergence Speed Comparison -->
    <g transform="translate(170.735078 16.702187) scale(0.13 -0.13)">
     <defs>
      <path id="HelveticaNeue-43" d="M 3712 3194 
L 4320 3194 
Q 4269 3558 4102 3836 
Q 3936 4115 3686 4300 
Q 3437 4486 3117 4582 
Q 2797 4678 2438 4678 
Q 1914 4678 1507 4489 
Q 1101 4301 829 3974 
Q 557 3648 416 3209 
Q 275 2771 275 2272 
Q 275 1773 406 1337 
Q 538 902 800 582 
Q 1062 262 1459 80 
Q 1856 -102 2387 -102 
Q 3264 -102 3769 378 
Q 4275 858 4365 1722 
L 3757 1722 
Q 3738 1440 3642 1197 
Q 3546 954 3376 778 
Q 3206 602 2972 502 
Q 2739 403 2438 403 
Q 2029 403 1734 556 
Q 1440 710 1251 969 
Q 1062 1229 972 1577 
Q 883 1926 883 2317 
Q 883 2675 972 3008 
Q 1062 3341 1251 3600 
Q 1440 3859 1731 4012 
Q 2022 4166 2432 4166 
Q 2912 4166 3261 3923 
Q 3610 3680 3712 3194 
z
" transform="scale(0.015625)"/>
      <path id="HelveticaNeue-53" d="M 3142 3232 
L 3718 3232 
Q 3706 3610 3574 3882 
Q 3443 4154 3216 4333 
Q 2989 4512 2688 4595 
Q 2387 4678 2035 4678 
Q 1722 4678 1424 4598 
Q 1126 4518 892 4355 
Q 659 4192 518 3939 
Q 378 3686 378 3341 
Q 378 3027 502 2819 
Q 627 2611 835 2480 
Q 1043 2349 1305 2269 
Q 1568 2189 1840 2128 
Q 2112 2067 2374 2009 
Q 2637 1952 2845 1859 
Q 3053 1766 3177 1619 
Q 3302 1472 3302 1235 
Q 3302 986 3200 826 
Q 3098 666 2931 573 
Q 2765 480 2557 441 
Q 2349 403 2144 403 
Q 1888 403 1645 467 
Q 1402 531 1219 665 
Q 1037 800 925 1008 
Q 813 1216 813 1504 
L 237 1504 
Q 237 1088 387 784 
Q 538 480 797 285 
Q 1056 90 1398 -6 
Q 1741 -102 2125 -102 
Q 2438 -102 2755 -28 
Q 3072 45 3328 208 
Q 3584 371 3747 630 
Q 3910 890 3910 1254 
Q 3910 1594 3785 1818 
Q 3661 2042 3453 2189 
Q 3245 2336 2982 2422 
Q 2720 2509 2448 2573 
Q 2176 2637 1913 2691 
Q 1651 2746 1443 2829 
Q 1235 2912 1110 3043 
Q 986 3174 986 3386 
Q 986 3610 1072 3760 
Q 1158 3910 1302 4000 
Q 1446 4090 1632 4128 
Q 1818 4166 2010 4166 
Q 2483 4166 2787 3945 
Q 3091 3725 3142 3232 
z
" transform="scale(0.015625)"/>
      <path id="HelveticaNeue-70" d="M 429 3309 
L 429 -1261 
L 973 -1261 
L 973 442 
L 986 442 
Q 1075 294 1206 195 
Q 1338 96 1485 38 
Q 1632 -19 1782 -44 
Q 1933 -70 2054 -70 
Q 2432 -70 2717 64 
Q 3002 198 3190 432 
Q 3379 666 3472 979 
Q 3565 1293 3565 1645 
Q 3565 1997 3469 2310 
Q 3373 2624 3184 2864 
Q 2995 3104 2710 3245 
Q 2426 3386 2042 3386 
Q 1696 3386 1408 3261 
Q 1120 3136 986 2861 
L 973 2861 
L 973 3309 
L 429 3309 
z
M 2989 1683 
Q 2989 1440 2937 1209 
Q 2886 979 2771 800 
Q 2656 621 2467 512 
Q 2278 403 1997 403 
Q 1715 403 1516 508 
Q 1318 614 1193 787 
Q 1069 960 1011 1187 
Q 954 1414 954 1658 
Q 954 1888 1008 2112 
Q 1062 2336 1184 2512 
Q 1306 2688 1498 2797 
Q 1690 2906 1965 2906 
Q 2227 2906 2422 2803 
Q 2618 2701 2742 2528 
Q 2867 2355 2928 2134 
Q 2989 1914 2989 1683 
z
" transform="scale(0.015625)"/>
      <path id="HelveticaNeue-6d" d="M 410 3309 
L 410 0 
L 954 0 
L 954 2061 
Q 954 2157 1002 2301 
Q 1050 2445 1155 2579 
Q 1261 2714 1430 2810 
Q 1600 2906 1837 2906 
Q 2022 2906 2140 2851 
Q 2259 2797 2329 2697 
Q 2400 2598 2429 2464 
Q 2458 2330 2458 2170 
L 2458 0 
L 3002 0 
L 3002 2061 
Q 3002 2445 3232 2675 
Q 3462 2906 3866 2906 
Q 4064 2906 4189 2848 
Q 4314 2790 4384 2691 
Q 4454 2592 4480 2457 
Q 4506 2323 4506 2170 
L 4506 0 
L 5050 0 
L 5050 2426 
Q 5050 2682 4970 2864 
Q 4890 3046 4746 3161 
Q 4602 3277 4400 3331 
Q 4198 3386 3949 3386 
Q 3622 3386 3350 3238 
Q 3078 3091 2912 2822 
Q 2810 3130 2560 3258 
Q 2310 3386 2003 3386 
Q 1306 3386 934 2822 
L 922 2822 
L 922 3309 
L 410 3309 
z
" transform="scale(0.015625)"/>
     </defs>
     <use xlink:href="#HelveticaNeue-43"/>
     <use xlink:href="#HelveticaNeue-6f" transform="translate(72.199982 0)"/>
     <use xlink:href="#HelveticaNeue-6e" transform="translate(129.599976 0)"/>
     <use xlink:href="#HelveticaNeue-76" transform="translate(185.199966 0)"/>
     <use xlink:href="#HelveticaNeue-65" transform="translate(235.199951 0)"/>
     <use xlink:href="#HelveticaNeue-72" transform="translate(288.899948 0)"/>
     <use xlink:href="#HelveticaNeue-67" transform="translate(319.449936 0)"/>
     <use xlink:href="#HelveticaNeue-65" transform="translate(376.84993 0)"/>
     <use xlink:href="#HelveticaNeue-6e" transform="translate(430.549927 0)"/>
     <use xlink:href="#HelveticaNeue-63" transform="translate(486.149918 0)"/>
     <use xlink:href="#HelveticaNeue-65" transform="translate(539.849915 0)"/>
     <use xlink:href="#HelveticaNeue-20" transform="translate(593.549911 0)"/>
     <use xlink:href="#HelveticaNeue-53" transform="translate(621.349899 0)"/>
     <use xlink:href="#HelveticaNeue-70" transform="translate(686.149887 0)"/>
     <use xlink:href="#HelveticaNeue-65" transform="translate(745.449875 0)"/>
     <use xlink:href="#HelveticaNeue-65" transform="translate(799.149872 0)"/>
     <use xlink:href="#HelveticaNeue-64" transform="translate(852.849869 0)"/>
     <use xlink:href="#HelveticaNeue-20" transform="translate(912.149857 0)"/>
     <use xlink:href="#HelveticaNeue-43" transform="translate(939.949844 0)"/>
     <use xlink:href="#HelveticaNeue-6f" transform="translate(1012.149826 0)"/>
     <use xlink:href="#HelveticaNeue-6d" transform="translate(1069.54982 0)"/>
     <use xlink:href="#HelveticaNeue-70" transform="translate(1154.849808 0)"/>
     <use xlink:href="#HelveticaNeue-61" transform="translate(1214.149796 0)"/>
     <use xlink:href="#HelveticaNeue-72" transform="translate(1267.849792 0)"/>
     <use xlink:href="#HelveticaNeue-69" transform="translate(1301.14978 0)"/>
     <use xlink:href="#HelveticaNeue-73" transform="translate(1323.349777 0)"/>
     <use xlink:href="#HelveticaNeue-6f" transform="translate(1373.349762 0)"/>
     <use xlink:href="#HelveticaNeue-6e" transform="translate(1430.749756 0)"/>
    </g>
   </g>
   <g id="legend_1">
    <g id="patch_5">
     <path d="M 412.801094 377.662188 
L 479.373437 377.662188 
Q 481.573437 377.662188 481.573437 375.462188 
L 481.573437 329.996094 
Q 481.573437 327.796094 479.373437 327.796094 
L 412.801094 327.796094 
Q 410.601094 327.796094 410.601094 329.996094 
L 410.601094 375.462188 
Q 410.601094 377.662188 412.801094 377.662188 
z
" style="fill: #ffffff; opacity: 0.8; stroke: #cccccc; stroke-linejoin: miter"/>
    </g>
    <g id="line2d_18">
     <path d="M 415.001094 336.200781 
L 426.001094 336.200781 
L 437.001094 336.200781 
" style="fill: none; stroke: #cccccc; stroke-width: 2; stroke-linecap: square"/>
    </g>
    <g id="text_19">
     <!-- A2C -->
     <g transform="translate(445.801094 340.050781) scale(0.11 -0.11)">
      <use xlink:href="#HelveticaNeue-41"/>
      <use xlink:href="#HelveticaNeue-32" transform="translate(64.799988 0)"/>
      <use xlink:href="#HelveticaNeue-43" transform="translate(120.399979 0)"/>
     </g>
    </g>
    <g id="line2d_19">
     <path d="M 415.001094 351.722812 
L 426.001094 351.722812 
L 437.001094 351.722812 
" style="fill: none; stroke: #ff6600; stroke-width: 2; stroke-linecap: square"/>
    </g>
    <g id="text_20">
     <!-- PPO -->
     <g transform="translate(445.801094 355.572812) scale(0.11 -0.11)">
      <use xlink:href="#HelveticaNeue-50"/>
      <use xlink:href="#HelveticaNeue-50" transform="translate(64.799988 0)"/>
      <use xlink:href="#HelveticaNeue-4f" transform="translate(129.599976 0)"/>
     </g>
    </g>
    <g id="line2d_20">
     <path d="M 415.001094 367.244844 
L 426.001094 367.244844 
L 437.001094 367.244844 
" style="fill: none; stroke: #0066cc; stroke-width: 2.5; stroke-linecap: square"/>
    </g>
    <g id="text_21">
     <!-- GRPO -->
     <g transform="translate(445.801094 371.094844) scale(0.11 -0.11)">
      <use xlink:href="#HelveticaNeue-47"/>
      <use xlink:href="#HelveticaNeue-52" transform="translate(75.899994 0)"/>
      <use xlink:href="#HelveticaNeue-50" transform="translate(144.399979 0)"/>
      <use xlink:href="#HelveticaNeue-4f" transform="translate(209.199966 0)"/>
     </g>
    </g>
   </g>
  </g>
  <g id="axes_2">
   <g id="patch_6">
    <path d="M 551.893438 383.162188 
L 991.343438 383.162188 
L 991.343438 22.702187 
L 551.893438 22.702187 
z
" style="fill: #ffffff"/>
   </g>
   <g id="patch_7">
    <path d="M 571.868438 383.162188 
L 598.501771 383.162188 
L 598.501771 184.909188 
L 571.868438 184.909188 
z
" clip-path="url(#pbbeacf317c)" style="fill: #cccccc"/>
   </g>
   <g id="patch_8">
    <path d="M 678.401771 383.162188 
L 705.035104 383.162188 
L 705.035104 202.932187 
L 678.401771 202.932187 
z
" clip-path="url(#pbbeacf317c)" style="fill: #cccccc"/>
   </g>
   <g id="patch_9">
    <path d="M 784.935104 383.162188 
L 811.568438 383.162188 
L 811.568438 148.863187 
L 784.935104 148.863187 
z
" clip-path="url(#pbbeacf317c)" style="fill: #cccccc"/>
   </g>
   <g id="patch_10">
    <path d="M 891.468438 383.162188 
L 918.101771 383.162188 
L 918.101771 184.909188 
L 891.468438 184.909188 
z
" clip-path="url(#pbbeacf317c)" style="fill: #cccccc"/>
   </g>
   <g id="patch_11">
    <path d="M 598.501771 383.162188 
L 625.135104 383.162188 
L 625.135104 148.863187 
L 598.501771 148.863187 
z
" clip-path="url(#pbbeacf317c)" style="fill: #ff6600"/>
   </g>
   <g id="patch_12">
    <path d="M 705.035104 383.162188 
L 731.668438 383.162188 
L 731.668438 166.886187 
L 705.035104 166.886187 
z
" clip-path="url(#pbbeacf317c)" style="fill: #ff6600"/>
   </g>
   <g id="patch_13">
    <path d="M 811.568438 383.162188 
L 838.201771 383.162188 
L 838.201771 130.840187 
L 811.568438 130.840187 
z
" clip-path="url(#pbbeacf317c)" style="fill: #ff6600"/>
   </g>
   <g id="patch_14">
    <path d="M 918.101771 383.162188 
L 944.735104 383.162188 
L 944.735104 220.955187 
L 918.101771 220.955187 
z
" clip-path="url(#pbbeacf317c)" style="fill: #ff6600"/>
   </g>
   <g id="patch_15">
    <path d="M 625.135104 383.162188 
L 651.768438 383.162188 
L 651.768438 58.748187 
L 625.135104 58.748187 
z
" clip-path="url(#pbbeacf317c)" style="fill: #0066cc"/>
   </g>
   <g id="patch_16">
    <path d="M 731.668438 383.162188 
L 758.301771 383.162188 
L 758.301771 76.771187 
L 731.668438 76.771187 
z
" clip-path="url(#pbbeacf317c)" style="fill: #0066cc"/>
   </g>
   <g id="patch_17">
    <path d="M 838.201771 383.162188 
L 864.835104 383.162188 
L 864.835104 76.771187 
L 838.201771 76.771187 
z
" clip-path="url(#pbbeacf317c)" style="fill: #0066cc"/>
   </g>
   <g id="patch_18">
    <path d="M 944.735104 383.162188 
L 971.368438 383.162188 
L 971.368438 166.886187 
L 944.735104 166.886187 
z
" clip-path="url(#pbbeacf317c)" style="fill: #0066cc"/>
   </g>
   <g id="matplotlib.axis_3">
    <g id="xtick_7">
     <g id="line2d_21">
      <g>
       <use xlink:href="#m85dd5eb53c" x="611.818438" y="383.162188" style="stroke: #000000; stroke-width: 0.8"/>
      </g>
     </g>
     <g id="text_22">
      <!-- Sample -->
      <g transform="translate(594.868438 397.471563) scale(0.1 -0.1)">
       <defs>
        <path id="HelveticaNeue-6c" d="M 442 4570 
L 442 0 
L 986 0 
L 986 4570 
L 442 4570 
z
" transform="scale(0.015625)"/>
       </defs>
       <use xlink:href="#HelveticaNeue-53"/>
       <use xlink:href="#HelveticaNeue-61" transform="translate(64.799988 0)"/>
       <use xlink:href="#HelveticaNeue-6d" transform="translate(118.499985 0)"/>
       <use xlink:href="#HelveticaNeue-70" transform="translate(203.799973 0)"/>
       <use xlink:href="#HelveticaNeue-6c" transform="translate(263.09996 0)"/>
       <use xlink:href="#HelveticaNeue-65" transform="translate(285.299957 0)"/>
      </g>
      <!-- Efficiency -->
      <g transform="translate(590.336406 408.10625) scale(0.1 -0.1)">
       <defs>
        <path id="HelveticaNeue-45" d="M 499 4570 
L 499 0 
L 3674 0 
L 3674 512 
L 1107 512 
L 1107 2093 
L 3482 2093 
L 3482 2605 
L 1107 2605 
L 1107 4058 
L 3654 4058 
L 3654 4570 
L 499 4570 
z
" transform="scale(0.015625)"/>
        <path id="HelveticaNeue-79" d="M 1709 -442 
Q 1613 -685 1520 -851 
Q 1427 -1018 1315 -1123 
Q 1203 -1229 1065 -1277 
Q 928 -1325 749 -1325 
Q 653 -1325 557 -1312 
Q 461 -1299 371 -1267 
L 371 -768 
Q 442 -800 534 -822 
Q 627 -845 691 -845 
Q 858 -845 970 -765 
Q 1082 -685 1139 -538 
L 1363 19 
L 51 3309 
L 666 3309 
L 1632 602 
L 1645 602 
L 2573 3309 
L 3149 3309 
L 1709 -442 
z
" transform="scale(0.015625)"/>
       </defs>
       <use xlink:href="#HelveticaNeue-45"/>
       <use xlink:href="#HelveticaNeue-66" transform="translate(61.099991 0)"/>
       <use xlink:href="#HelveticaNeue-66" transform="translate(88.949982 0)"/>
       <use xlink:href="#HelveticaNeue-69" transform="translate(118.549973 0)"/>
       <use xlink:href="#HelveticaNeue-63" transform="translate(140.749969 0)"/>
       <use xlink:href="#HelveticaNeue-69" transform="translate(194.449966 0)"/>
       <use xlink:href="#HelveticaNeue-65" transform="translate(216.649963 0)"/>
       <use xlink:href="#HelveticaNeue-6e" transform="translate(270.34996 0)"/>
       <use xlink:href="#HelveticaNeue-63" transform="translate(325.949951 0)"/>
       <use xlink:href="#HelveticaNeue-79" transform="translate(379.649948 0)"/>
      </g>
     </g>
    </g>
    <g id="xtick_8">
     <g id="line2d_22">
      <g>
       <use xlink:href="#m85dd5eb53c" x="718.351771" y="383.162188" style="stroke: #000000; stroke-width: 0.8"/>
      </g>
     </g>
     <g id="text_23">
      <!-- Variance -->
      <g transform="translate(699.276771 397.302813) scale(0.1 -0.1)">
       <defs>
        <path id="HelveticaNeue-56" d="M 2298 0 
L 3923 4570 
L 3290 4570 
L 1971 608 
L 1958 608 
L 653 4570 
L 0 4570 
L 1606 0 
L 2298 0 
z
" transform="scale(0.015625)"/>
       </defs>
       <use xlink:href="#HelveticaNeue-56"/>
       <use xlink:href="#HelveticaNeue-61" transform="translate(55.599991 0)"/>
       <use xlink:href="#HelveticaNeue-72" transform="translate(109.299988 0)"/>
       <use xlink:href="#HelveticaNeue-69" transform="translate(142.599976 0)"/>
       <use xlink:href="#HelveticaNeue-61" transform="translate(164.799973 0)"/>
       <use xlink:href="#HelveticaNeue-6e" transform="translate(218.499969 0)"/>
       <use xlink:href="#HelveticaNeue-63" transform="translate(274.09996 0)"/>
       <use xlink:href="#HelveticaNeue-65" transform="translate(327.799957 0)"/>
      </g>
      <!-- Reduction -->
      <g transform="translate(695.476771 407.841875) scale(0.1 -0.1)">
       <defs>
        <path id="HelveticaNeue-75" d="M 3149 0 
L 3149 3309 
L 2605 3309 
L 2605 1440 
Q 2605 1216 2544 1027 
Q 2483 838 2361 697 
Q 2240 557 2057 480 
Q 1875 403 1626 403 
Q 1312 403 1133 582 
Q 954 762 954 1069 
L 954 3309 
L 410 3309 
L 410 1133 
Q 410 864 464 643 
Q 518 422 652 262 
Q 787 102 1004 16 
Q 1222 -70 1549 -70 
Q 1914 -70 2182 74 
Q 2451 218 2624 525 
L 2637 525 
L 2637 0 
L 3149 0 
z
" transform="scale(0.015625)"/>
       </defs>
       <use xlink:href="#HelveticaNeue-52"/>
       <use xlink:href="#HelveticaNeue-65" transform="translate(68.499985 0)"/>
       <use xlink:href="#HelveticaNeue-64" transform="translate(122.199982 0)"/>
       <use xlink:href="#HelveticaNeue-75" transform="translate(181.499969 0)"/>
       <use xlink:href="#HelveticaNeue-63" transform="translate(237.09996 0)"/>
       <use xlink:href="#HelveticaNeue-74" transform="translate(290.799957 0)"/>
       <use xlink:href="#HelveticaNeue-69" transform="translate(322.299942 0)"/>
       <use xlink:href="#HelveticaNeue-6f" transform="translate(344.499939 0)"/>
       <use xlink:href="#HelveticaNeue-6e" transform="translate(401.899933 0)"/>
      </g>
     </g>
    </g>
    <g id="xtick_9">
     <g id="line2d_23">
      <g>
       <use xlink:href="#m85dd5eb53c" x="824.885104" y="383.162188" style="stroke: #000000; stroke-width: 0.8"/>
      </g>
     </g>
     <g id="text_24">
      <!-- Production -->
      <g transform="translate(800.43276 397.302813) scale(0.1 -0.1)">
       <use xlink:href="#HelveticaNeue-50"/>
       <use xlink:href="#HelveticaNeue-72" transform="translate(64.799988 0)"/>
       <use xlink:href="#HelveticaNeue-6f" transform="translate(96.349976 0)"/>
       <use xlink:href="#HelveticaNeue-64" transform="translate(153.749969 0)"/>
       <use xlink:href="#HelveticaNeue-75" transform="translate(213.049957 0)"/>
       <use xlink:href="#HelveticaNeue-63" transform="translate(268.649948 0)"/>
       <use xlink:href="#HelveticaNeue-74" transform="translate(322.349945 0)"/>
       <use xlink:href="#HelveticaNeue-69" transform="translate(353.84993 0)"/>
       <use xlink:href="#HelveticaNeue-6f" transform="translate(376.049927 0)"/>
       <use xlink:href="#HelveticaNeue-6e" transform="translate(433.449921 0)"/>
      </g>
      <!-- Safety -->
      <g transform="translate(810.72026 408.044375) scale(0.1 -0.1)">
       <use xlink:href="#HelveticaNeue-53"/>
       <use xlink:href="#HelveticaNeue-61" transform="translate(64.799988 0)"/>
       <use xlink:href="#HelveticaNeue-66" transform="translate(118.499985 0)"/>
       <use xlink:href="#HelveticaNeue-65" transform="translate(148.099976 0)"/>
       <use xlink:href="#HelveticaNeue-74" transform="translate(201.799973 0)"/>
       <use xlink:href="#HelveticaNeue-79" transform="translate(233.299957 0)"/>
      </g>
     </g>
    </g>
    <g id="xtick_10">
     <g id="line2d_24">
      <g>
       <use xlink:href="#m85dd5eb53c" x="931.418437" y="383.162188" style="stroke: #000000; stroke-width: 0.8"/>
      </g>
     </g>
     <g id="text_25">
      <!-- Implementation -->
      <g transform="translate(896.773125 397.302813) scale(0.1 -0.1)">
       <use xlink:href="#HelveticaNeue-49"/>
       <use xlink:href="#HelveticaNeue-6d" transform="translate(25.899994 0)"/>
       <use xlink:href="#HelveticaNeue-70" transform="translate(111.199982 0)"/>
       <use xlink:href="#HelveticaNeue-6c" transform="translate(170.499969 0)"/>
       <use xlink:href="#HelveticaNeue-65" transform="translate(192.699966 0)"/>
       <use xlink:href="#HelveticaNeue-6d" transform="translate(246.399963 0)"/>
       <use xlink:href="#HelveticaNeue-65" transform="translate(331.699951 0)"/>
       <use xlink:href="#HelveticaNeue-6e" transform="translate(385.399948 0)"/>
       <use xlink:href="#HelveticaNeue-74" transform="translate(440.999939 0)"/>
       <use xlink:href="#HelveticaNeue-61" transform="translate(472.499924 0)"/>
       <use xlink:href="#HelveticaNeue-74" transform="translate(526.199921 0)"/>
       <use xlink:href="#HelveticaNeue-69" transform="translate(557.699905 0)"/>
       <use xlink:href="#HelveticaNeue-6f" transform="translate(579.899902 0)"/>
       <use xlink:href="#HelveticaNeue-6e" transform="translate(637.299896 0)"/>
      </g>
      <!-- Complexity -->
      <g transform="translate(906.137969 408.044375) scale(0.1 -0.1)">
       <defs>
        <path id="HelveticaNeue-78" d="M 1299 1741 
L 58 0 
L 717 0 
L 1638 1370 
L 2560 0 
L 3258 0 
L 1978 1786 
L 3117 3309 
L 2464 3309 
L 1638 2150 
L 845 3309 
L 147 3309 
L 1299 1741 
z
" transform="scale(0.015625)"/>
       </defs>
       <use xlink:href="#HelveticaNeue-43"/>
       <use xlink:href="#HelveticaNeue-6f" transform="translate(72.199982 0)"/>
       <use xlink:href="#HelveticaNeue-6d" transform="translate(129.599976 0)"/>
       <use xlink:href="#HelveticaNeue-70" transform="translate(214.899963 0)"/>
       <use xlink:href="#HelveticaNeue-6c" transform="translate(274.199951 0)"/>
       <use xlink:href="#HelveticaNeue-65" transform="translate(296.399948 0)"/>
       <use xlink:href="#HelveticaNeue-78" transform="translate(350.099945 0)"/>
       <use xlink:href="#HelveticaNeue-69" transform="translate(401.899933 0)"/>
       <use xlink:href="#HelveticaNeue-74" transform="translate(424.09993 0)"/>
       <use xlink:href="#HelveticaNeue-79" transform="translate(455.599915 0)"/>
      </g>
     </g>
    </g>
   </g>
   <g id="matplotlib.axis_4">
    <g id="ytick_9">
     <g id="line2d_25">
      <g>
       <use xlink:href="#mceff6a7816" x="551.893438" y="383.162188" style="stroke: #000000; stroke-width: 0.8"/>
      </g>
     </g>
     <g id="text_26">
      <!-- 0 -->
      <g transform="translate(538.778125 387.089531) scale(0.11 -0.11)">
       <use xlink:href="#HelveticaNeue-30"/>
      </g>
     </g>
    </g>
    <g id="ytick_10">
     <g id="line2d_26">
      <g>
       <use xlink:href="#mceff6a7816" x="551.893438" y="311.070187" style="stroke: #000000; stroke-width: 0.8"/>
      </g>
     </g>
     <g id="text_27">
      <!-- 20 -->
      <g transform="translate(532.662813 314.997531) scale(0.11 -0.11)">
       <use xlink:href="#HelveticaNeue-32"/>
       <use xlink:href="#HelveticaNeue-30" transform="translate(55.599991 0)"/>
      </g>
     </g>
    </g>
    <g id="ytick_11">
     <g id="line2d_27">
      <g>
       <use xlink:href="#mceff6a7816" x="551.893438" y="238.978187" style="stroke: #000000; stroke-width: 0.8"/>
      </g>
     </g>
     <g id="text_28">
      <!-- 40 -->
      <g transform="translate(532.662813 242.905531) scale(0.11 -0.11)">
       <use xlink:href="#HelveticaNeue-34"/>
       <use xlink:href="#HelveticaNeue-30" transform="translate(55.599991 0)"/>
      </g>
     </g>
    </g>
    <g id="ytick_12">
     <g id="line2d_28">
      <g>
       <use xlink:href="#mceff6a7816" x="551.893438" y="166.886187" style="stroke: #000000; stroke-width: 0.8"/>
      </g>
     </g>
     <g id="text_29">
      <!-- 60 -->
      <g transform="translate(532.662813 170.813531) scale(0.11 -0.11)">
       <use xlink:href="#HelveticaNeue-36"/>
       <use xlink:href="#HelveticaNeue-30" transform="translate(55.599991 0)"/>
      </g>
     </g>
    </g>
    <g id="ytick_13">
     <g id="line2d_29">
      <g>
       <use xlink:href="#mceff6a7816" x="551.893438" y="94.794187" style="stroke: #000000; stroke-width: 0.8"/>
      </g>
     </g>
     <g id="text_30">
      <!-- 80 -->
      <g transform="translate(532.662813 98.721531) scale(0.11 -0.11)">
       <use xlink:href="#HelveticaNeue-38"/>
       <use xlink:href="#HelveticaNeue-30" transform="translate(55.599991 0)"/>
      </g>
     </g>
    </g>
    <g id="ytick_14">
     <g id="line2d_30">
      <g>
       <use xlink:href="#mceff6a7816" x="551.893438" y="22.702187" style="stroke: #000000; stroke-width: 0.8"/>
      </g>
     </g>
     <g id="text_31">
      <!-- 100 -->
      <g transform="translate(526.5475 26.629531) scale(0.11 -0.11)">
       <use xlink:href="#HelveticaNeue-31"/>
       <use xlink:href="#HelveticaNeue-30" transform="translate(55.599991 0)"/>
       <use xlink:href="#HelveticaNeue-30" transform="translate(111.199982 0)"/>
      </g>
     </g>
    </g>
    <g id="text_32">
     <!-- Score (0-100) -->
     <g transform="translate(520.183125 239.055) rotate(-90) scale(0.12 -0.12)">
      <defs>
       <path id="HelveticaNeue-28" d="M 1306 -1261 
L 1722 -1261 
Q 1267 -525 1072 198 
Q 877 922 877 1728 
Q 877 2515 1069 3232 
Q 1261 3949 1722 4678 
L 1306 4678 
Q 806 4019 553 3251 
Q 301 2483 301 1728 
Q 301 1306 371 922 
Q 442 538 573 173 
Q 704 -192 889 -547 
Q 1075 -902 1306 -1261 
z
" transform="scale(0.015625)"/>
       <path id="HelveticaNeue-2d" d="M 320 2035 
L 320 1523 
L 2170 1523 
L 2170 2035 
L 320 2035 
z
" transform="scale(0.015625)"/>
       <path id="HelveticaNeue-29" d="M -58 -1261 
L 352 -1261 
Q 851 -602 1104 163 
Q 1357 928 1357 1683 
Q 1357 2106 1286 2490 
Q 1216 2874 1085 3242 
Q 954 3610 768 3965 
Q 582 4320 352 4678 
L -58 4678 
Q 390 3942 585 3216 
Q 781 2490 781 1683 
Q 781 902 589 182 
Q 397 -538 -58 -1261 
z
" transform="scale(0.015625)"/>
      </defs>
      <use xlink:href="#HelveticaNeue-53"/>
      <use xlink:href="#HelveticaNeue-63" transform="translate(64.799988 0)"/>
      <use xlink:href="#HelveticaNeue-6f" transform="translate(118.499985 0)"/>
      <use xlink:href="#HelveticaNeue-72" transform="translate(175.899979 0)"/>
      <use xlink:href="#HelveticaNeue-65" transform="translate(207.449966 0)"/>
      <use xlink:href="#HelveticaNeue-20" transform="translate(261.149963 0)"/>
      <use xlink:href="#HelveticaNeue-28" transform="translate(288.949951 0)"/>
      <use xlink:href="#HelveticaNeue-30" transform="translate(314.849945 0)"/>
      <use xlink:href="#HelveticaNeue-2d" transform="translate(370.449936 0)"/>
      <use xlink:href="#HelveticaNeue-31" transform="translate(409.34993 0)"/>
      <use xlink:href="#HelveticaNeue-30" transform="translate(464.949921 0)"/>
      <use xlink:href="#HelveticaNeue-30" transform="translate(520.549911 0)"/>
      <use xlink:href="#HelveticaNeue-29" transform="translate(576.149902 0)"/>
     </g>
    </g>
   </g>
   <g id="patch_19">
    <path d="M 551.893438 383.162188 
L 551.893438 22.702187 
" style="fill: none; stroke: #000000; stroke-width: 0.8; stroke-linejoin: miter; stroke-linecap: square"/>
   </g>
   <g id="patch_20">
    <path d="M 551.893438 383.162188 
L 991.343437 383.162188 
" style="fill: none; stroke: #000000; stroke-width: 0.8; stroke-linejoin: miter; stroke-linecap: square"/>
   </g>
   <g id="text_33">
    <!-- 55 -->
    <g transform="translate(580.737604 180.332937) scale(0.08 -0.08)">
     <use xlink:href="#HelveticaNeue-35"/>
     <use xlink:href="#HelveticaNeue-35" transform="translate(55.599991 0)"/>
    </g>
   </g>
   <g id="text_34">
    <!-- 50 -->
    <g transform="translate(687.270938 198.355937) scale(0.08 -0.08)">
     <use xlink:href="#HelveticaNeue-35"/>
     <use xlink:href="#HelveticaNeue-30" transform="translate(55.599991 0)"/>
    </g>
   </g>
   <g id="text_35">
    <!-- 65 -->
    <g transform="translate(793.804271 144.286937) scale(0.08 -0.08)">
     <use xlink:href="#HelveticaNeue-36"/>
     <use xlink:href="#HelveticaNeue-35" transform="translate(55.599991 0)"/>
    </g>
   </g>
   <g id="text_36">
    <!-- 55 -->
    <g transform="translate(900.337604 180.332937) scale(0.08 -0.08)">
     <use xlink:href="#HelveticaNeue-35"/>
     <use xlink:href="#HelveticaNeue-35" transform="translate(55.599991 0)"/>
    </g>
   </g>
   <g id="text_37">
    <!-- 65 -->
    <g transform="translate(607.370938 144.286937) scale(0.08 -0.08)">
     <use xlink:href="#HelveticaNeue-36"/>
     <use xlink:href="#HelveticaNeue-35" transform="translate(55.599991 0)"/>
    </g>
   </g>
   <g id="text_38">
    <!-- 60 -->
    <g transform="translate(713.904271 162.309937) scale(0.08 -0.08)">
     <use xlink:href="#HelveticaNeue-36"/>
     <use xlink:href="#HelveticaNeue-30" transform="translate(55.599991 0)"/>
    </g>
   </g>
   <g id="text_39">
    <!-- 70 -->
    <g transform="translate(820.437604 126.263937) scale(0.08 -0.08)">
     <use xlink:href="#HelveticaNeue-37"/>
     <use xlink:href="#HelveticaNeue-30" transform="translate(55.599991 0)"/>
    </g>
   </g>
   <g id="text_40">
    <!-- 45 -->
    <g transform="translate(926.970937 216.378937) scale(0.08 -0.08)">
     <use xlink:href="#HelveticaNeue-34"/>
     <use xlink:href="#HelveticaNeue-35" transform="translate(55.599991 0)"/>
    </g>
   </g>
   <g id="text_41">
    <!-- 90 -->
    <g transform="translate(634.004271 54.171937) scale(0.08 -0.08)">
     <use xlink:href="#HelveticaNeue-39"/>
     <use xlink:href="#HelveticaNeue-30" transform="translate(55.599991 0)"/>
    </g>
   </g>
   <g id="text_42">
    <!-- 85 -->
    <g transform="translate(740.537604 72.194937) scale(0.08 -0.08)">
     <use xlink:href="#HelveticaNeue-38"/>
     <use xlink:href="#HelveticaNeue-35" transform="translate(55.599991 0)"/>
    </g>
   </g>
   <g id="text_43">
    <!-- 85 -->
    <g transform="translate(847.070938 72.194937) scale(0.08 -0.08)">
     <use xlink:href="#HelveticaNeue-38"/>
     <use xlink:href="#HelveticaNeue-35" transform="translate(55.599991 0)"/>
    </g>
   </g>
   <g id="text_44">
    <!-- 60 -->
    <g transform="translate(953.604271 162.309937) scale(0.08 -0.08)">
     <use xlink:href="#HelveticaNeue-36"/>
     <use xlink:href="#HelveticaNeue-30" transform="translate(55.599991 0)"/>
    </g>
   </g>
   <g id="text_45">
    <!-- Algorithm Characteristics Comparison -->
    <g transform="translate(660.987422 16.702187) scale(0.13 -0.13)">
     <defs>
      <path id="HelveticaNeue-68" d="M 410 4570 
L 410 0 
L 954 0 
L 954 1869 
Q 954 2093 1014 2281 
Q 1075 2470 1196 2611 
Q 1318 2752 1500 2829 
Q 1683 2906 1933 2906 
Q 2246 2906 2425 2726 
Q 2605 2547 2605 2240 
L 2605 0 
L 3149 0 
L 3149 2176 
Q 3149 2445 3094 2665 
Q 3040 2886 2905 3046 
Q 2771 3206 2553 3296 
Q 2336 3386 2010 3386 
Q 1862 3386 1705 3354 
Q 1549 3322 1405 3254 
Q 1261 3187 1145 3081 
Q 1030 2976 966 2822 
L 954 2822 
L 954 4570 
L 410 4570 
z
" transform="scale(0.015625)"/>
     </defs>
     <use xlink:href="#HelveticaNeue-41"/>
     <use xlink:href="#HelveticaNeue-6c" transform="translate(64.799988 0)"/>
     <use xlink:href="#HelveticaNeue-67" transform="translate(86.999985 0)"/>
     <use xlink:href="#HelveticaNeue-6f" transform="translate(144.399979 0)"/>
     <use xlink:href="#HelveticaNeue-72" transform="translate(201.799973 0)"/>
     <use xlink:href="#HelveticaNeue-69" transform="translate(235.09996 0)"/>
     <use xlink:href="#HelveticaNeue-74" transform="translate(257.299957 0)"/>
     <use xlink:href="#HelveticaNeue-68" transform="translate(288.799942 0)"/>
     <use xlink:href="#HelveticaNeue-6d" transform="translate(344.399933 0)"/>
     <use xlink:href="#HelveticaNeue-20" transform="translate(429.699921 0)"/>
     <use xlink:href="#HelveticaNeue-43" transform="translate(457.499908 0)"/>
     <use xlink:href="#HelveticaNeue-68" transform="translate(529.69989 0)"/>
     <use xlink:href="#HelveticaNeue-61" transform="translate(585.299881 0)"/>
     <use xlink:href="#HelveticaNeue-72" transform="translate(638.999878 0)"/>
     <use xlink:href="#HelveticaNeue-61" transform="translate(672.299866 0)"/>
     <use xlink:href="#HelveticaNeue-63" transform="translate(725.999863 0)"/>
     <use xlink:href="#HelveticaNeue-74" transform="translate(779.69986 0)"/>
     <use xlink:href="#HelveticaNeue-65" transform="translate(811.199844 0)"/>
     <use xlink:href="#HelveticaNeue-72" transform="translate(864.899841 0)"/>
     <use xlink:href="#HelveticaNeue-69" transform="translate(898.199829 0)"/>
     <use xlink:href="#HelveticaNeue-73" transform="translate(920.399826 0)"/>
     <use xlink:href="#HelveticaNeue-74" transform="translate(970.399811 0)"/>
     <use xlink:href="#HelveticaNeue-69" transform="translate(1001.899796 0)"/>
     <use xlink:href="#HelveticaNeue-63" transform="translate(1024.099792 0)"/>
     <use xlink:href="#HelveticaNeue-73" transform="translate(1077.799789 0)"/>
     <use xlink:href="#HelveticaNeue-20" transform="translate(1127.799774 0)"/>
     <use xlink:href="#HelveticaNeue-43" transform="translate(1155.599762 0)"/>
     <use xlink:href="#HelveticaNeue-6f" transform="translate(1227.799744 0)"/>
     <use xlink:href="#HelveticaNeue-6d" transform="translate(1285.199738 0)"/>
     <use xlink:href="#HelveticaNeue-70" transform="translate(1370.499725 0)"/>
     <use xlink:href="#HelveticaNeue-61" transform="translate(1429.799713 0)"/>
     <use xlink:href="#HelveticaNeue-72" transform="translate(1483.49971 0)"/>
     <use xlink:href="#HelveticaNeue-69" transform="translate(1516.799698 0)"/>
     <use xlink:href="#HelveticaNeue-73" transform="translate(1538.999695 0)"/>
     <use xlink:href="#HelveticaNeue-6f" transform="translate(1588.99968 0)"/>
     <use xlink:href="#HelveticaNeue-6e" transform="translate(1646.399673 0)"/>
    </g>
   </g>
   <g id="legend_2">
    <g id="patch_21">
     <path d="M 917.071094 78.068281 
L 983.643437 78.068281 
Q 985.843437 78.068281 985.843437 75.868281 
L 985.843437 30.402187 
Q 985.843437 28.202187 983.643437 28.202187 
L 917.071094 28.202187 
Q 914.871094 28.202187 914.871094 30.402187 
L 914.871094 75.868281 
Q 914.871094 78.068281 917.071094 78.068281 
z
" style="fill: #ffffff; opacity: 0.8; stroke: #cccccc; stroke-linejoin: miter"/>
    </g>
    <g id="patch_22">
     <path d="M 919.271094 40.456875 
L 941.271094 40.456875 
L 941.271094 32.756875 
L 919.271094 32.756875 
z
" style="fill: #cccccc"/>
    </g>
    <g id="text_46">
     <!-- A2C -->
     <g transform="translate(950.071094 40.456875) scale(0.11 -0.11)">
      <use xlink:href="#HelveticaNeue-41"/>
      <use xlink:href="#HelveticaNeue-32" transform="translate(64.799988 0)"/>
      <use xlink:href="#HelveticaNeue-43" transform="translate(120.399979 0)"/>
     </g>
    </g>
    <g id="patch_23">
     <path d="M 919.271094 55.978906 
L 941.271094 55.978906 
L 941.271094 48.278906 
L 919.271094 48.278906 
z
" style="fill: #ff6600"/>
    </g>
    <g id="text_47">
     <!-- PPO -->
     <g transform="translate(950.071094 55.978906) scale(0.11 -0.11)">
      <use xlink:href="#HelveticaNeue-50"/>
      <use xlink:href="#HelveticaNeue-50" transform="translate(64.799988 0)"/>
      <use xlink:href="#HelveticaNeue-4f" transform="translate(129.599976 0)"/>
     </g>
    </g>
    <g id="patch_24">
     <path d="M 919.271094 71.500937 
L 941.271094 71.500937 
L 941.271094 63.800937 
L 919.271094 63.800937 
z
" style="fill: #0066cc"/>
    </g>
    <g id="text_48">
     <!-- GRPO -->
     <g transform="translate(950.071094 71.500937) scale(0.11 -0.11)">
      <use xlink:href="#HelveticaNeue-47"/>
      <use xlink:href="#HelveticaNeue-52" transform="translate(75.899994 0)"/>
      <use xlink:href="#HelveticaNeue-50" transform="translate(144.399979 0)"/>
      <use xlink:href="#HelveticaNeue-4f" transform="translate(209.199966 0)"/>
     </g>
    </g>
   </g>
  </g>
 </g>
 <defs>
  <clipPath id="pcc36937d59">
   <rect x="47.623438" y="22.702187" width="439.45" height="360.46"/>
  </clipPath>
  <clipPath id="pbbeacf317c">
   <rect x="551.893438" y="22.702187" width="439.45" height="360.46"/>
  </clipPath>
 </defs>
</svg>
