<?xml version="1.0" encoding="utf-8" standalone="no"?>
<!DOCTYPE svg PUBLIC "-//W3C//DTD SVG 1.1//EN"
  "http://www.w3.org/Graphics/SVG/1.1/DTD/svg11.dtd">
<svg xmlns:xlink="http://www.w3.org/1999/xlink" width="998.64pt" height="566.64pt" viewBox="0 0 998.64 566.64" xmlns="http://www.w3.org/2000/svg" version="1.1">
 <metadata>
  <rdf:RDF xmlns:dc="http://purl.org/dc/elements/1.1/" xmlns:cc="http://creativecommons.org/ns#" xmlns:rdf="http://www.w3.org/1999/02/22-rdf-syntax-ns#">
   <cc:Work>
    <dc:type rdf:resource="http://purl.org/dc/dcmitype/StillImage"/>
    <dc:date>2025-12-15T21:43:57.689046</dc:date>
    <dc:format>image/svg+xml</dc:format>
    <dc:creator>
     <cc:Agent>
      <dc:title>Matplotlib v3.10.8, https://matplotlib.org/</dc:title>
     </cc:Agent>
    </dc:creator>
   </cc:Work>
  </rdf:RDF>
 </metadata>
 <defs>
  <style type="text/css">*{stroke-linejoin: round; stroke-linecap: butt}</style>
 </defs>
 <g id="figure_1">
  <g id="patch_1">
   <path d="M 0 566.64 
L 998.64 566.64 
L 998.64 0 
L 0 0 
z
" style="fill: #ffffff"/>
  </g>
  <g id="axes_1">
   <g id="patch_2">
    <path d="M 57.818057 323.3574 
L 174.5208 323.3574 
Q 188.581371 323.3574 188.581371 309.5514 
L 188.581371 229.4766 
Q 188.581371 215.6706 174.5208 215.6706 
L 57.818057 215.6706 
Q 43.757486 215.6706 43.757486 229.4766 
L 43.757486 309.5514 
Q 43.757486 323.3574 57.818057 323.3574 
z
" clip-path="url(#p8500a75394)" style="fill: #808080; opacity: 0.2"/>
   </g>
   <g id="patch_3">
    <path d="M 268.726629 323.3574 
L 385.429371 323.3574 
Q 399.489943 323.3574 399.489943 309.5514 
L 399.489943 229.4766 
Q 399.489943 215.6706 385.429371 215.6706 
L 268.726629 215.6706 
Q 254.666057 215.6706 254.666057 229.4766 
L 254.666057 309.5514 
Q 254.666057 323.3574 268.726629 323.3574 
z
" clip-path="url(#p8500a75394)" style="fill: #808080; opacity: 0.2"/>
   </g>
   <g id="patch_4">
    <path d="M 479.6352 219.8124 
L 631.489371 219.8124 
Q 645.549943 219.8124 645.549943 206.0064 
L 645.549943 125.9316 
Q 645.549943 112.1256 631.489371 112.1256 
L 479.6352 112.1256 
Q 465.574629 112.1256 465.574629 125.9316 
L 465.574629 206.0064 
Q 465.574629 219.8124 479.6352 219.8124 
z
" clip-path="url(#p8500a75394)" style="fill: #808080; opacity: 0.2"/>
   </g>
   <g id="patch_5">
    <path d="M 479.6352 426.9024 
L 631.489371 426.9024 
Q 645.549943 426.9024 645.549943 413.0964 
L 645.549943 333.0216 
Q 645.549943 319.2156 631.489371 319.2156 
L 479.6352 319.2156 
Q 465.574629 319.2156 465.574629 333.0216 
L 465.574629 413.0964 
Q 465.574629 426.9024 479.6352 426.9024 
z
" clip-path="url(#p8500a75394)" style="fill: #808080; opacity: 0.2"/>
   </g>
   <g id="patch_6">
    <path d="M 725.6952 323.3574 
L 877.549371 323.3574 
Q 891.609943 323.3574 891.609943 309.5514 
L 891.609943 229.4766 
Q 891.609943 215.6706 877.549371 215.6706 
L 725.6952 215.6706 
Q 711.634629 215.6706 711.634629 229.4766 
L 711.634629 309.5514 
Q 711.634629 323.3574 725.6952 323.3574 
z
" clip-path="url(#p8500a75394)" style="fill: #808080; opacity: 0.2"/>
   </g>
   <g id="patch_7">
    <path d="M 725.6952 495.9324 
L 877.549371 495.9324 
Q 891.609943 495.9324 891.609943 482.1264 
L 891.609943 402.0516 
Q 891.609943 388.2456 877.549371 388.2456 
L 725.6952 388.2456 
Q 711.634629 388.2456 711.634629 402.0516 
L 711.634629 482.1264 
Q 711.634629 495.9324 725.6952 495.9324 
z
" clip-path="url(#p8500a75394)" style="fill: #808080; opacity: 0.2"/>
   </g>
   <g id="patch_8">
    <path d="M 725.6952 150.7824 
L 877.549371 150.7824 
Q 891.609943 150.7824 891.609943 136.9764 
L 891.609943 56.9016 
Q 891.609943 43.0956 877.549371 43.0956 
L 725.6952 43.0956 
Q 711.634629 43.0956 711.634629 56.9016 
L 711.634629 136.9764 
Q 711.634629 150.7824 725.6952 150.7824 
z
" clip-path="url(#p8500a75394)" style="fill: #808080; opacity: 0.2"/>
   </g>
   <g id="patch_9">
    <path d="M 54.302914 319.9059 
L 171.005657 319.9059 
Q 185.066229 319.9059 185.066229 306.0999 
L 185.066229 226.0251 
Q 185.066229 212.2191 171.005657 212.2191 
L 54.302914 212.2191 
Q 40.242343 212.2191 40.242343 226.0251 
L 40.242343 306.0999 
Q 40.242343 319.9059 54.302914 319.9059 
z
" clip-path="url(#p8500a75394)" style="fill: #333333"/>
   </g>
   <g id="patch_10">
    <path d="M 265.211486 319.9059 
L 381.914229 319.9059 
Q 395.9748 319.9059 395.9748 306.0999 
L 395.9748 226.0251 
Q 395.9748 212.2191 381.914229 212.2191 
L 265.211486 212.2191 
Q 251.150914 212.2191 251.150914 226.0251 
L 251.150914 306.0999 
Q 251.150914 319.9059 265.211486 319.9059 
z
" clip-path="url(#p8500a75394)" style="fill: #0066cc"/>
   </g>
   <g id="patch_11">
    <path d="M 476.120057 216.3609 
L 627.974229 216.3609 
Q 642.0348 216.3609 642.0348 202.5549 
L 642.0348 122.4801 
Q 642.0348 108.6741 627.974229 108.6741 
L 476.120057 108.6741 
Q 462.059486 108.6741 462.059486 122.4801 
L 462.059486 202.5549 
Q 462.059486 216.3609 476.120057 216.3609 
z
" clip-path="url(#p8500a75394)" style="fill: #00aa44"/>
   </g>
   <g id="patch_12">
    <path d="M 476.120057 423.4509 
L 627.974229 423.4509 
Q 642.0348 423.4509 642.0348 409.6449 
L 642.0348 329.5701 
Q 642.0348 315.7641 627.974229 315.7641 
L 476.120057 315.7641 
Q 462.059486 315.7641 462.059486 329.5701 
L 462.059486 409.6449 
Q 462.059486 423.4509 476.120057 423.4509 
z
" clip-path="url(#p8500a75394)" style="fill: #ff6600"/>
   </g>
   <g id="patch_13">
    <path d="M 722.180057 319.9059 
L 874.034229 319.9059 
Q 888.0948 319.9059 888.0948 306.0999 
L 888.0948 226.0251 
Q 888.0948 212.2191 874.034229 212.2191 
L 722.180057 212.2191 
Q 708.119486 212.2191 708.119486 226.0251 
L 708.119486 306.0999 
Q 708.119486 319.9059 722.180057 319.9059 
z
" clip-path="url(#p8500a75394)" style="fill: #6600aa"/>
   </g>
   <g id="patch_14">
    <path d="M 722.180057 492.4809 
L 874.034229 492.4809 
Q 888.0948 492.4809 888.0948 478.6749 
L 888.0948 398.6001 
Q 888.0948 384.7941 874.034229 384.7941 
L 722.180057 384.7941 
Q 708.119486 384.7941 708.119486 398.6001 
L 708.119486 478.6749 
Q 708.119486 492.4809 722.180057 492.4809 
z
" clip-path="url(#p8500a75394)" style="fill: #aa0066"/>
   </g>
   <g id="patch_15">
    <path d="M 722.180057 147.3309 
L 874.034229 147.3309 
Q 888.0948 147.3309 888.0948 133.5249 
L 888.0948 53.4501 
Q 888.0948 39.6441 874.034229 39.6441 
L 722.180057 39.6441 
Q 708.119486 39.6441 708.119486 53.4501 
L 708.119486 133.5249 
Q 708.119486 147.3309 722.180057 147.3309 
z
" clip-path="url(#p8500a75394)" style="fill: #0066cc"/>
   </g>
   <g id="text_1">
    <!-- Canary Deployment with Automated Analysis -->
    <g transform="translate(338.105 41.715) scale(0.16 -0.16)">
     <defs>
      <path id="HelveticaNeue-43" d="M 3712 3194 
L 4320 3194 
Q 4269 3558 4102 3836 
Q 3936 4115 3686 4300 
Q 3437 4486 3117 4582 
Q 2797 4678 2438 4678 
Q 1914 4678 1507 4489 
Q 1101 4301 829 3974 
Q 557 3648 416 3209 
Q 275 2771 275 2272 
Q 275 1773 406 1337 
Q 538 902 800 582 
Q 1062 262 1459 80 
Q 1856 -102 2387 -102 
Q 3264 -102 3769 378 
Q 4275 858 4365 1722 
L 3757 1722 
Q 3738 1440 3642 1197 
Q 3546 954 3376 778 
Q 3206 602 2972 502 
Q 2739 403 2438 403 
Q 2029 403 1734 556 
Q 1440 710 1251 969 
Q 1062 1229 972 1577 
Q 883 1926 883 2317 
Q 883 2675 972 3008 
Q 1062 3341 1251 3600 
Q 1440 3859 1731 4012 
Q 2022 4166 2432 4166 
Q 2912 4166 3261 3923 
Q 3610 3680 3712 3194 
z
" transform="scale(0.015625)"/>
      <path id="HelveticaNeue-61" d="M 3341 13 
Q 3200 -70 2950 -70 
Q 2739 -70 2614 48 
Q 2490 166 2490 435 
Q 2266 166 1968 48 
Q 1670 -70 1325 -70 
Q 1101 -70 899 -19 
Q 698 32 550 141 
Q 403 250 316 426 
Q 230 602 230 851 
Q 230 1133 326 1312 
Q 422 1491 579 1603 
Q 736 1715 937 1772 
Q 1139 1830 1350 1869 
Q 1574 1914 1776 1936 
Q 1978 1958 2131 2000 
Q 2285 2042 2374 2122 
Q 2464 2202 2464 2355 
Q 2464 2534 2397 2643 
Q 2330 2752 2224 2809 
Q 2118 2867 1987 2886 
Q 1856 2906 1728 2906 
Q 1382 2906 1152 2774 
Q 922 2643 902 2278 
L 358 2278 
Q 371 2586 486 2797 
Q 602 3008 794 3139 
Q 986 3270 1232 3328 
Q 1478 3386 1760 3386 
Q 1984 3386 2205 3354 
Q 2426 3322 2605 3222 
Q 2784 3123 2893 2944 
Q 3002 2765 3002 2477 
L 3002 774 
Q 3002 582 3024 492 
Q 3046 403 3174 403 
Q 3245 403 3341 435 
L 3341 13 
z
M 2458 1709 
Q 2355 1632 2188 1597 
Q 2022 1562 1840 1539 
Q 1658 1517 1472 1488 
Q 1286 1459 1139 1395 
Q 992 1331 899 1212 
Q 806 1094 806 890 
Q 806 755 860 662 
Q 915 570 1001 512 
Q 1088 454 1203 428 
Q 1318 403 1446 403 
Q 1715 403 1907 476 
Q 2099 550 2220 662 
Q 2342 774 2400 905 
Q 2458 1037 2458 1152 
L 2458 1709 
z
" transform="scale(0.015625)"/>
      <path id="HelveticaNeue-6e" d="M 410 3309 
L 410 0 
L 954 0 
L 954 1869 
Q 954 2093 1014 2281 
Q 1075 2470 1196 2611 
Q 1318 2752 1500 2829 
Q 1683 2906 1933 2906 
Q 2246 2906 2425 2726 
Q 2605 2547 2605 2240 
L 2605 0 
L 3149 0 
L 3149 2176 
Q 3149 2445 3094 2665 
Q 3040 2886 2905 3046 
Q 2771 3206 2553 3296 
Q 2336 3386 2010 3386 
Q 1274 3386 934 2784 
L 922 2784 
L 922 3309 
L 410 3309 
z
" transform="scale(0.015625)"/>
      <path id="HelveticaNeue-72" d="M 390 3309 
L 390 0 
L 934 0 
L 934 1472 
Q 934 1792 998 2038 
Q 1062 2285 1203 2457 
Q 1344 2630 1574 2720 
Q 1805 2810 2131 2810 
L 2131 3386 
Q 1690 3398 1402 3206 
Q 1114 3014 915 2611 
L 902 2611 
L 902 3309 
L 390 3309 
z
" transform="scale(0.015625)"/>
      <path id="HelveticaNeue-79" d="M 1709 -442 
Q 1613 -685 1520 -851 
Q 1427 -1018 1315 -1123 
Q 1203 -1229 1065 -1277 
Q 928 -1325 749 -1325 
Q 653 -1325 557 -1312 
Q 461 -1299 371 -1267 
L 371 -768 
Q 442 -800 534 -822 
Q 627 -845 691 -845 
Q 858 -845 970 -765 
Q 1082 -685 1139 -538 
L 1363 19 
L 51 3309 
L 666 3309 
L 1632 602 
L 1645 602 
L 2573 3309 
L 3149 3309 
L 1709 -442 
z
" transform="scale(0.015625)"/>
      <path id="HelveticaNeue-20" transform="scale(0.015625)"/>
      <path id="HelveticaNeue-44" d="M 1107 512 
L 1107 4058 
L 2131 4058 
Q 2554 4058 2842 3939 
Q 3130 3821 3312 3593 
Q 3494 3366 3574 3043 
Q 3654 2720 3654 2310 
Q 3654 1888 3568 1590 
Q 3482 1293 3347 1094 
Q 3213 896 3043 781 
Q 2874 666 2701 605 
Q 2528 544 2374 528 
Q 2221 512 2118 512 
L 1107 512 
z
M 499 4570 
L 499 0 
L 2067 0 
Q 2637 0 3053 160 
Q 3469 320 3737 624 
Q 4006 928 4134 1373 
Q 4262 1818 4262 2394 
Q 4262 3494 3692 4032 
Q 3123 4570 2067 4570 
L 499 4570 
z
" transform="scale(0.015625)"/>
      <path id="HelveticaNeue-65" d="M 2707 1971 
L 806 1971 
Q 819 2163 889 2332 
Q 960 2502 1081 2630 
Q 1203 2758 1372 2832 
Q 1542 2906 1754 2906 
Q 1958 2906 2128 2832 
Q 2298 2758 2422 2633 
Q 2547 2509 2620 2336 
Q 2694 2163 2707 1971 
z
M 3232 1050 
L 2694 1050 
Q 2624 723 2403 563 
Q 2182 403 1837 403 
Q 1568 403 1369 492 
Q 1171 582 1043 732 
Q 915 883 857 1078 
Q 800 1274 806 1491 
L 3283 1491 
Q 3296 1792 3229 2125 
Q 3162 2458 2986 2739 
Q 2810 3021 2518 3203 
Q 2227 3386 1786 3386 
Q 1446 3386 1161 3258 
Q 877 3130 669 2899 
Q 461 2669 345 2355 
Q 230 2042 230 1664 
Q 243 1286 342 966 
Q 442 646 640 416 
Q 838 186 1129 58 
Q 1421 -70 1818 -70 
Q 2381 -70 2752 211 
Q 3123 493 3232 1050 
z
" transform="scale(0.015625)"/>
      <path id="HelveticaNeue-70" d="M 429 3309 
L 429 -1261 
L 973 -1261 
L 973 442 
L 986 442 
Q 1075 294 1206 195 
Q 1338 96 1485 38 
Q 1632 -19 1782 -44 
Q 1933 -70 2054 -70 
Q 2432 -70 2717 64 
Q 3002 198 3190 432 
Q 3379 666 3472 979 
Q 3565 1293 3565 1645 
Q 3565 1997 3469 2310 
Q 3373 2624 3184 2864 
Q 2995 3104 2710 3245 
Q 2426 3386 2042 3386 
Q 1696 3386 1408 3261 
Q 1120 3136 986 2861 
L 973 2861 
L 973 3309 
L 429 3309 
z
M 2989 1683 
Q 2989 1440 2937 1209 
Q 2886 979 2771 800 
Q 2656 621 2467 512 
Q 2278 403 1997 403 
Q 1715 403 1516 508 
Q 1318 614 1193 787 
Q 1069 960 1011 1187 
Q 954 1414 954 1658 
Q 954 1888 1008 2112 
Q 1062 2336 1184 2512 
Q 1306 2688 1498 2797 
Q 1690 2906 1965 2906 
Q 2227 2906 2422 2803 
Q 2618 2701 2742 2528 
Q 2867 2355 2928 2134 
Q 2989 1914 2989 1683 
z
" transform="scale(0.015625)"/>
      <path id="HelveticaNeue-6c" d="M 442 4570 
L 442 0 
L 986 0 
L 986 4570 
L 442 4570 
z
" transform="scale(0.015625)"/>
      <path id="HelveticaNeue-6f" d="M 806 1651 
Q 806 1952 886 2185 
Q 966 2419 1107 2579 
Q 1248 2739 1437 2822 
Q 1626 2906 1837 2906 
Q 2048 2906 2237 2822 
Q 2426 2739 2566 2579 
Q 2707 2419 2787 2185 
Q 2867 1952 2867 1651 
Q 2867 1350 2787 1116 
Q 2707 883 2566 726 
Q 2426 570 2237 486 
Q 2048 403 1837 403 
Q 1626 403 1437 486 
Q 1248 570 1107 726 
Q 966 883 886 1116 
Q 806 1350 806 1651 
z
M 230 1651 
Q 230 1286 332 972 
Q 435 659 640 425 
Q 845 192 1145 61 
Q 1446 -70 1837 -70 
Q 2234 -70 2531 61 
Q 2829 192 3033 425 
Q 3238 659 3340 972 
Q 3443 1286 3443 1651 
Q 3443 2016 3340 2333 
Q 3238 2650 3033 2883 
Q 2829 3117 2531 3251 
Q 2234 3386 1837 3386 
Q 1446 3386 1145 3251 
Q 845 3117 640 2883 
Q 435 2650 332 2333 
Q 230 2016 230 1651 
z
" transform="scale(0.015625)"/>
      <path id="HelveticaNeue-6d" d="M 410 3309 
L 410 0 
L 954 0 
L 954 2061 
Q 954 2157 1002 2301 
Q 1050 2445 1155 2579 
Q 1261 2714 1430 2810 
Q 1600 2906 1837 2906 
Q 2022 2906 2140 2851 
Q 2259 2797 2329 2697 
Q 2400 2598 2429 2464 
Q 2458 2330 2458 2170 
L 2458 0 
L 3002 0 
L 3002 2061 
Q 3002 2445 3232 2675 
Q 3462 2906 3866 2906 
Q 4064 2906 4189 2848 
Q 4314 2790 4384 2691 
Q 4454 2592 4480 2457 
Q 4506 2323 4506 2170 
L 4506 0 
L 5050 0 
L 5050 2426 
Q 5050 2682 4970 2864 
Q 4890 3046 4746 3161 
Q 4602 3277 4400 3331 
Q 4198 3386 3949 3386 
Q 3622 3386 3350 3238 
Q 3078 3091 2912 2822 
Q 2810 3130 2560 3258 
Q 2310 3386 2003 3386 
Q 1306 3386 934 2822 
L 922 2822 
L 922 3309 
L 410 3309 
z
" transform="scale(0.015625)"/>
      <path id="HelveticaNeue-74" d="M 1165 3309 
L 1165 4301 
L 621 4301 
L 621 3309 
L 58 3309 
L 58 2829 
L 621 2829 
L 621 723 
Q 621 493 665 352 
Q 710 211 803 134 
Q 896 58 1046 29 
Q 1197 0 1408 0 
L 1824 0 
L 1824 480 
L 1574 480 
Q 1446 480 1366 489 
Q 1286 499 1241 531 
Q 1197 563 1181 620 
Q 1165 678 1165 774 
L 1165 2829 
L 1824 2829 
L 1824 3309 
L 1165 3309 
z
" transform="scale(0.015625)"/>
      <path id="HelveticaNeue-77" d="M 3686 0 
L 4742 3309 
L 4179 3309 
L 3437 602 
L 3424 602 
L 2733 3309 
L 2138 3309 
L 1472 602 
L 1459 602 
L 710 3309 
L 109 3309 
L 1171 0 
L 1760 0 
L 2426 2630 
L 2438 2630 
L 3110 0 
L 3686 0 
z
" transform="scale(0.015625)"/>
      <path id="HelveticaNeue-69" d="M 986 3904 
L 986 4570 
L 442 4570 
L 442 3904 
L 986 3904 
z
M 442 3309 
L 442 0 
L 986 0 
L 986 3309 
L 442 3309 
z
" transform="scale(0.015625)"/>
      <path id="HelveticaNeue-68" d="M 410 4570 
L 410 0 
L 954 0 
L 954 1869 
Q 954 2093 1014 2281 
Q 1075 2470 1196 2611 
Q 1318 2752 1500 2829 
Q 1683 2906 1933 2906 
Q 2246 2906 2425 2726 
Q 2605 2547 2605 2240 
L 2605 0 
L 3149 0 
L 3149 2176 
Q 3149 2445 3094 2665 
Q 3040 2886 2905 3046 
Q 2771 3206 2553 3296 
Q 2336 3386 2010 3386 
Q 1862 3386 1705 3354 
Q 1549 3322 1405 3254 
Q 1261 3187 1145 3081 
Q 1030 2976 966 2822 
L 954 2822 
L 954 4570 
L 410 4570 
z
" transform="scale(0.015625)"/>
      <path id="HelveticaNeue-41" d="M 1286 1888 
L 2061 4019 
L 2074 4019 
L 2835 1888 
L 1286 1888 
z
M 1741 4570 
L -38 0 
L 582 0 
L 1094 1376 
L 3027 1376 
L 3526 0 
L 4198 0 
L 2413 4570 
L 1741 4570 
z
" transform="scale(0.015625)"/>
      <path id="HelveticaNeue-75" d="M 3149 0 
L 3149 3309 
L 2605 3309 
L 2605 1440 
Q 2605 1216 2544 1027 
Q 2483 838 2361 697 
Q 2240 557 2057 480 
Q 1875 403 1626 403 
Q 1312 403 1133 582 
Q 954 762 954 1069 
L 954 3309 
L 410 3309 
L 410 1133 
Q 410 864 464 643 
Q 518 422 652 262 
Q 787 102 1004 16 
Q 1222 -70 1549 -70 
Q 1914 -70 2182 74 
Q 2451 218 2624 525 
L 2637 525 
L 2637 0 
L 3149 0 
z
" transform="scale(0.015625)"/>
      <path id="HelveticaNeue-64" d="M 806 1626 
Q 806 1869 857 2099 
Q 909 2330 1024 2509 
Q 1139 2688 1331 2797 
Q 1523 2906 1798 2906 
Q 2080 2906 2278 2800 
Q 2477 2694 2601 2521 
Q 2726 2349 2784 2121 
Q 2842 1894 2842 1651 
Q 2842 1421 2787 1197 
Q 2733 973 2611 797 
Q 2490 621 2298 512 
Q 2106 403 1830 403 
Q 1568 403 1373 505 
Q 1178 608 1053 781 
Q 928 954 867 1174 
Q 806 1395 806 1626 
z
M 3366 0 
L 3366 4570 
L 2822 4570 
L 2822 2867 
L 2810 2867 
Q 2720 3014 2589 3113 
Q 2458 3213 2310 3273 
Q 2163 3334 2016 3360 
Q 1869 3386 1741 3386 
Q 1363 3386 1078 3248 
Q 794 3110 605 2876 
Q 416 2643 323 2329 
Q 230 2016 230 1664 
Q 230 1312 326 998 
Q 422 685 611 448 
Q 800 211 1085 70 
Q 1370 -70 1754 -70 
Q 2099 -70 2387 51 
Q 2675 173 2810 448 
L 2822 448 
L 2822 0 
L 3366 0 
z
" transform="scale(0.015625)"/>
      <path id="HelveticaNeue-73" d="M 742 1043 
L 198 1043 
Q 211 736 326 521 
Q 442 307 634 176 
Q 826 45 1075 -12 
Q 1325 -70 1600 -70 
Q 1850 -70 2102 -22 
Q 2355 26 2556 147 
Q 2758 269 2883 467 
Q 3008 666 3008 966 
Q 3008 1203 2915 1363 
Q 2822 1523 2672 1628 
Q 2522 1734 2326 1798 
Q 2131 1862 1926 1907 
Q 1734 1952 1542 1993 
Q 1350 2035 1196 2096 
Q 1043 2157 944 2249 
Q 845 2342 845 2483 
Q 845 2611 909 2691 
Q 973 2771 1075 2819 
Q 1178 2867 1302 2886 
Q 1427 2906 1549 2906 
Q 1683 2906 1814 2877 
Q 1946 2848 2054 2784 
Q 2163 2720 2233 2614 
Q 2304 2509 2317 2349 
L 2861 2349 
Q 2842 2650 2733 2851 
Q 2624 3053 2441 3171 
Q 2259 3290 2022 3338 
Q 1786 3386 1504 3386 
Q 1286 3386 1065 3331 
Q 845 3277 669 3165 
Q 493 3053 381 2873 
Q 269 2694 269 2445 
Q 269 2125 429 1945 
Q 589 1766 829 1667 
Q 1069 1568 1350 1513 
Q 1632 1459 1872 1392 
Q 2112 1325 2272 1216 
Q 2432 1107 2432 896 
Q 2432 742 2355 643 
Q 2278 544 2160 493 
Q 2042 442 1901 422 
Q 1760 403 1632 403 
Q 1466 403 1309 435 
Q 1152 467 1027 540 
Q 902 614 825 739 
Q 749 864 742 1043 
z
" transform="scale(0.015625)"/>
     </defs>
     <use xlink:href="#HelveticaNeue-43"/>
     <use xlink:href="#HelveticaNeue-61" transform="translate(72.199982 0)"/>
     <use xlink:href="#HelveticaNeue-6e" transform="translate(125.899979 0)"/>
     <use xlink:href="#HelveticaNeue-61" transform="translate(181.499969 0)"/>
     <use xlink:href="#HelveticaNeue-72" transform="translate(235.199966 0)"/>
     <use xlink:href="#HelveticaNeue-79" transform="translate(268.499954 0)"/>
     <use xlink:href="#HelveticaNeue-20" transform="translate(318.499939 0)"/>
     <use xlink:href="#HelveticaNeue-44" transform="translate(346.299927 0)"/>
     <use xlink:href="#HelveticaNeue-65" transform="translate(416.699921 0)"/>
     <use xlink:href="#HelveticaNeue-70" transform="translate(470.399918 0)"/>
     <use xlink:href="#HelveticaNeue-6c" transform="translate(529.699905 0)"/>
     <use xlink:href="#HelveticaNeue-6f" transform="translate(551.899902 0)"/>
     <use xlink:href="#HelveticaNeue-79" transform="translate(609.299896 0)"/>
     <use xlink:href="#HelveticaNeue-6d" transform="translate(659.299881 0)"/>
     <use xlink:href="#HelveticaNeue-65" transform="translate(744.599869 0)"/>
     <use xlink:href="#HelveticaNeue-6e" transform="translate(798.299866 0)"/>
     <use xlink:href="#HelveticaNeue-74" transform="translate(853.899857 0)"/>
     <use xlink:href="#HelveticaNeue-20" transform="translate(885.399841 0)"/>
     <use xlink:href="#HelveticaNeue-77" transform="translate(913.199829 0)"/>
     <use xlink:href="#HelveticaNeue-69" transform="translate(988.999817 0)"/>
     <use xlink:href="#HelveticaNeue-74" transform="translate(1011.199814 0)"/>
     <use xlink:href="#HelveticaNeue-68" transform="translate(1042.699799 0)"/>
     <use xlink:href="#HelveticaNeue-20" transform="translate(1098.299789 0)"/>
     <use xlink:href="#HelveticaNeue-41" transform="translate(1126.099777 0)"/>
     <use xlink:href="#HelveticaNeue-75" transform="translate(1190.899765 0)"/>
     <use xlink:href="#HelveticaNeue-74" transform="translate(1246.499756 0)"/>
     <use xlink:href="#HelveticaNeue-6f" transform="translate(1277.999741 0)"/>
     <use xlink:href="#HelveticaNeue-6d" transform="translate(1335.399734 0)"/>
     <use xlink:href="#HelveticaNeue-61" transform="translate(1420.699722 0)"/>
     <use xlink:href="#HelveticaNeue-74" transform="translate(1474.399719 0)"/>
     <use xlink:href="#HelveticaNeue-65" transform="translate(1505.899704 0)"/>
     <use xlink:href="#HelveticaNeue-64" transform="translate(1559.599701 0)"/>
     <use xlink:href="#HelveticaNeue-20" transform="translate(1618.899689 0)"/>
     <use xlink:href="#HelveticaNeue-41" transform="translate(1646.699677 0)"/>
     <use xlink:href="#HelveticaNeue-6e" transform="translate(1711.499664 0)"/>
     <use xlink:href="#HelveticaNeue-61" transform="translate(1767.099655 0)"/>
     <use xlink:href="#HelveticaNeue-6c" transform="translate(1820.799652 0)"/>
     <use xlink:href="#HelveticaNeue-79" transform="translate(1842.999649 0)"/>
     <use xlink:href="#HelveticaNeue-73" transform="translate(1892.999634 0)"/>
     <use xlink:href="#HelveticaNeue-69" transform="translate(1942.999619 0)"/>
     <use xlink:href="#HelveticaNeue-73" transform="translate(1965.199615 0)"/>
    </g>
   </g>
   <g id="text_2">
    <!-- Incoming -->
    <g style="fill: #ffffff" transform="translate(91.998817 263.317969) scale(0.1 -0.1)">
     <defs>
      <path id="HelveticaNeue-49" d="M 525 4570 
L 525 0 
L 1133 0 
L 1133 4570 
L 525 4570 
z
" transform="scale(0.015625)"/>
      <path id="HelveticaNeue-63" d="M 2656 2246 
L 3219 2246 
Q 3187 2541 3065 2755 
Q 2944 2970 2755 3110 
Q 2566 3251 2320 3318 
Q 2074 3386 1792 3386 
Q 1402 3386 1107 3248 
Q 813 3110 617 2870 
Q 422 2630 326 2307 
Q 230 1984 230 1613 
Q 230 1242 329 931 
Q 429 621 624 397 
Q 819 173 1110 51 
Q 1402 -70 1779 -70 
Q 2413 -70 2781 262 
Q 3149 595 3238 1210 
L 2682 1210 
Q 2630 826 2403 614 
Q 2176 403 1773 403 
Q 1517 403 1331 505 
Q 1146 608 1030 777 
Q 915 947 860 1164 
Q 806 1382 806 1613 
Q 806 1862 857 2096 
Q 909 2330 1027 2509 
Q 1146 2688 1344 2797 
Q 1542 2906 1837 2906 
Q 2182 2906 2387 2733 
Q 2592 2560 2656 2246 
z
" transform="scale(0.015625)"/>
      <path id="HelveticaNeue-67" d="M 3264 282 
L 3264 3309 
L 2752 3309 
L 2752 2835 
L 2746 2835 
Q 2598 3110 2336 3248 
Q 2074 3386 1760 3386 
Q 1331 3386 1036 3222 
Q 742 3059 563 2806 
Q 384 2554 307 2243 
Q 230 1933 230 1638 
Q 230 1299 323 995 
Q 416 691 601 464 
Q 787 237 1062 102 
Q 1338 -32 1709 -32 
Q 2029 -32 2313 112 
Q 2598 256 2739 563 
L 2752 563 
L 2752 346 
Q 2752 70 2697 -160 
Q 2643 -390 2521 -553 
Q 2400 -717 2214 -809 
Q 2029 -902 1760 -902 
Q 1626 -902 1478 -873 
Q 1331 -845 1206 -781 
Q 1082 -717 995 -614 
Q 909 -512 902 -365 
L 358 -365 
Q 371 -634 499 -819 
Q 627 -1005 822 -1120 
Q 1018 -1235 1258 -1286 
Q 1498 -1338 1728 -1338 
Q 2522 -1338 2893 -934 
Q 3264 -531 3264 282 
z
M 1741 442 
Q 1472 442 1293 554 
Q 1114 666 1005 848 
Q 896 1030 851 1254 
Q 806 1478 806 1702 
Q 806 1939 860 2156 
Q 915 2374 1033 2540 
Q 1152 2707 1337 2806 
Q 1523 2906 1786 2906 
Q 2042 2906 2221 2803 
Q 2400 2701 2512 2531 
Q 2624 2362 2675 2150 
Q 2726 1939 2726 1722 
Q 2726 1491 2672 1260 
Q 2618 1030 2502 848 
Q 2387 666 2198 554 
Q 2010 442 1741 442 
z
" transform="scale(0.015625)"/>
     </defs>
     <use xlink:href="#HelveticaNeue-49"/>
     <use xlink:href="#HelveticaNeue-6e" transform="translate(25.899994 0)"/>
     <use xlink:href="#HelveticaNeue-63" transform="translate(81.499985 0)"/>
     <use xlink:href="#HelveticaNeue-6f" transform="translate(135.199982 0)"/>
     <use xlink:href="#HelveticaNeue-6d" transform="translate(192.599976 0)"/>
     <use xlink:href="#HelveticaNeue-69" transform="translate(277.899963 0)"/>
     <use xlink:href="#HelveticaNeue-6e" transform="translate(300.09996 0)"/>
     <use xlink:href="#HelveticaNeue-67" transform="translate(355.699951 0)"/>
    </g>
    <!-- Traffic -->
    <g style="fill: #ffffff" transform="translate(99.229286 273.977344) scale(0.1 -0.1)">
     <defs>
      <path id="HelveticaNeue-54" d="M 1536 4058 
L 1536 0 
L 2144 0 
L 2144 4058 
L 3667 4058 
L 3667 4570 
L 13 4570 
L 13 4058 
L 1536 4058 
z
" transform="scale(0.015625)"/>
      <path id="HelveticaNeue-66" d="M 634 2829 
L 634 0 
L 1178 0 
L 1178 2829 
L 1818 2829 
L 1818 3309 
L 1178 3309 
L 1178 3770 
Q 1178 3987 1286 4064 
Q 1395 4141 1594 4141 
Q 1664 4141 1747 4131 
Q 1830 4122 1901 4096 
L 1901 4570 
Q 1824 4595 1725 4608 
Q 1626 4621 1549 4621 
Q 1101 4621 867 4413 
Q 634 4205 634 3802 
L 634 3309 
L 77 3309 
L 77 2829 
L 634 2829 
z
" transform="scale(0.015625)"/>
     </defs>
     <use xlink:href="#HelveticaNeue-54"/>
     <use xlink:href="#HelveticaNeue-72" transform="translate(48.149994 0)"/>
     <use xlink:href="#HelveticaNeue-61" transform="translate(81.449982 0)"/>
     <use xlink:href="#HelveticaNeue-66" transform="translate(135.149979 0)"/>
     <use xlink:href="#HelveticaNeue-66" transform="translate(162.999969 0)"/>
     <use xlink:href="#HelveticaNeue-69" transform="translate(192.59996 0)"/>
     <use xlink:href="#HelveticaNeue-63" transform="translate(214.799957 0)"/>
    </g>
   </g>
   <g id="text_3">
    <!-- Load -->
    <g style="fill: #ffffff" transform="translate(312.262857 263.378125) scale(0.1 -0.1)">
     <defs>
      <path id="HelveticaNeue-4c" d="M 499 4570 
L 499 0 
L 3526 0 
L 3526 512 
L 1107 512 
L 1107 4570 
L 499 4570 
z
" transform="scale(0.015625)"/>
     </defs>
     <use xlink:href="#HelveticaNeue-4c"/>
     <use xlink:href="#HelveticaNeue-6f" transform="translate(55.599991 0)"/>
     <use xlink:href="#HelveticaNeue-61" transform="translate(112.999985 0)"/>
     <use xlink:href="#HelveticaNeue-64" transform="translate(166.699982 0)"/>
    </g>
    <!-- Balancer -->
    <g style="fill: #ffffff" transform="translate(303.842545 273.917188) scale(0.1 -0.1)">
     <defs>
      <path id="HelveticaNeue-42" d="M 1107 2605 
L 1107 4058 
L 2323 4058 
Q 2522 4058 2698 4035 
Q 2874 4013 3008 3936 
Q 3142 3859 3219 3718 
Q 3296 3578 3296 3334 
Q 3296 2970 3069 2787 
Q 2842 2605 2323 2605 
L 1107 2605 
z
M 499 4570 
L 499 0 
L 2707 0 
Q 3046 0 3305 112 
Q 3565 224 3741 406 
Q 3917 589 4006 825 
Q 4096 1062 4096 1312 
Q 4096 1734 3872 2028 
Q 3648 2323 3226 2413 
L 3226 2426 
Q 3552 2554 3728 2819 
Q 3904 3085 3904 3450 
Q 3904 3795 3747 4032 
Q 3590 4269 3366 4403 
Q 3264 4467 3120 4499 
Q 2976 4531 2809 4547 
Q 2643 4563 2473 4566 
Q 2304 4570 2157 4570 
L 499 4570 
z
M 1107 512 
L 1107 2093 
L 2496 2093 
Q 2688 2093 2867 2057 
Q 3046 2022 3184 1936 
Q 3322 1850 3405 1702 
Q 3488 1555 3488 1331 
Q 3488 947 3261 729 
Q 3034 512 2630 512 
L 1107 512 
z
" transform="scale(0.015625)"/>
     </defs>
     <use xlink:href="#HelveticaNeue-42"/>
     <use xlink:href="#HelveticaNeue-61" transform="translate(68.499985 0)"/>
     <use xlink:href="#HelveticaNeue-6c" transform="translate(122.199982 0)"/>
     <use xlink:href="#HelveticaNeue-61" transform="translate(144.399979 0)"/>
     <use xlink:href="#HelveticaNeue-6e" transform="translate(198.099976 0)"/>
     <use xlink:href="#HelveticaNeue-63" transform="translate(253.699966 0)"/>
     <use xlink:href="#HelveticaNeue-65" transform="translate(307.399963 0)"/>
     <use xlink:href="#HelveticaNeue-72" transform="translate(361.09996 0)"/>
    </g>
   </g>
   <g id="text_4">
    <!-- Baseline -->
    <g style="fill: #ffffff" transform="translate(533.066674 159.731875) scale(0.1 -0.1)">
     <use xlink:href="#HelveticaNeue-42"/>
     <use xlink:href="#HelveticaNeue-61" transform="translate(68.499985 0)"/>
     <use xlink:href="#HelveticaNeue-73" transform="translate(122.199982 0)"/>
     <use xlink:href="#HelveticaNeue-65" transform="translate(172.199966 0)"/>
     <use xlink:href="#HelveticaNeue-6c" transform="translate(225.899963 0)"/>
     <use xlink:href="#HelveticaNeue-69" transform="translate(248.09996 0)"/>
     <use xlink:href="#HelveticaNeue-6e" transform="translate(270.299957 0)"/>
     <use xlink:href="#HelveticaNeue-65" transform="translate(325.899948 0)"/>
    </g>
    <!-- Cluster (95%) -->
    <g style="fill: #ffffff" transform="translate(521.582299 170.473437) scale(0.1 -0.1)">
     <defs>
      <path id="HelveticaNeue-28" d="M 1306 -1261 
L 1722 -1261 
Q 1267 -525 1072 198 
Q 877 922 877 1728 
Q 877 2515 1069 3232 
Q 1261 3949 1722 4678 
L 1306 4678 
Q 806 4019 553 3251 
Q 301 2483 301 1728 
Q 301 1306 371 922 
Q 442 538 573 173 
Q 704 -192 889 -547 
Q 1075 -902 1306 -1261 
z
" transform="scale(0.015625)"/>
      <path id="HelveticaNeue-39" d="M 858 1094 
L 314 1094 
Q 365 506 742 218 
Q 1120 -70 1690 -70 
Q 2515 -70 2889 560 
Q 3264 1190 3264 2368 
Q 3264 3014 3139 3433 
Q 3014 3853 2803 4096 
Q 2592 4339 2310 4438 
Q 2029 4538 1709 4538 
Q 1382 4538 1107 4429 
Q 832 4320 633 4125 
Q 435 3930 326 3658 
Q 218 3386 218 3059 
Q 218 2726 310 2444 
Q 403 2163 585 1964 
Q 768 1766 1037 1654 
Q 1306 1542 1651 1542 
Q 1984 1542 2265 1712 
Q 2547 1882 2701 2170 
L 2714 2157 
Q 2688 1267 2438 835 
Q 2189 403 1690 403 
Q 1363 403 1126 582 
Q 890 762 858 1094 
z
M 2618 3021 
Q 2618 2822 2554 2640 
Q 2490 2458 2368 2320 
Q 2246 2182 2073 2102 
Q 1901 2022 1690 2022 
Q 1491 2022 1328 2102 
Q 1165 2182 1046 2316 
Q 928 2451 861 2624 
Q 794 2797 794 2982 
Q 794 3194 842 3386 
Q 890 3578 995 3728 
Q 1101 3878 1270 3968 
Q 1440 4058 1683 4058 
Q 1914 4058 2086 3974 
Q 2259 3891 2377 3747 
Q 2496 3603 2557 3417 
Q 2618 3232 2618 3021 
z
" transform="scale(0.015625)"/>
      <path id="HelveticaNeue-35" d="M 3008 3981 
L 3008 4461 
L 768 4461 
L 346 2106 
L 813 2080 
Q 973 2272 1181 2390 
Q 1389 2509 1658 2509 
Q 1888 2509 2077 2432 
Q 2266 2355 2400 2217 
Q 2534 2080 2608 1891 
Q 2682 1702 2682 1478 
Q 2682 1210 2605 1008 
Q 2528 806 2397 672 
Q 2266 538 2090 470 
Q 1914 403 1722 403 
Q 1517 403 1347 464 
Q 1178 525 1053 637 
Q 928 749 854 899 
Q 781 1050 768 1222 
L 224 1222 
Q 230 915 345 672 
Q 461 429 659 265 
Q 858 102 1117 16 
Q 1376 -70 1670 -70 
Q 2067 -70 2364 54 
Q 2662 179 2860 390 
Q 3059 602 3158 874 
Q 3258 1146 3258 1434 
Q 3258 1824 3142 2115 
Q 3027 2406 2828 2601 
Q 2630 2797 2361 2893 
Q 2093 2989 1792 2989 
Q 1562 2989 1328 2909 
Q 1094 2829 947 2662 
L 934 2675 
L 1178 3981 
L 3008 3981 
z
" transform="scale(0.015625)"/>
      <path id="HelveticaNeue-25" d="M 1069 3251 
Q 1069 3398 1088 3561 
Q 1107 3725 1168 3862 
Q 1229 4000 1337 4093 
Q 1446 4186 1626 4186 
Q 1811 4186 1916 4093 
Q 2022 4000 2080 3862 
Q 2138 3725 2154 3561 
Q 2170 3398 2170 3258 
Q 2170 3110 2150 2944 
Q 2131 2778 2070 2640 
Q 2010 2502 1901 2412 
Q 1792 2323 1606 2323 
Q 1427 2323 1321 2416 
Q 1216 2509 1158 2646 
Q 1101 2784 1085 2947 
Q 1069 3110 1069 3251 
z
M 589 3238 
Q 589 2976 643 2745 
Q 698 2515 819 2342 
Q 941 2170 1139 2070 
Q 1338 1971 1626 1971 
Q 1907 1971 2099 2080 
Q 2291 2189 2416 2365 
Q 2541 2541 2595 2774 
Q 2650 3008 2650 3258 
Q 2650 3520 2602 3753 
Q 2554 3987 2435 4160 
Q 2317 4333 2121 4435 
Q 1926 4538 1626 4538 
Q 1331 4538 1132 4432 
Q 934 4326 812 4147 
Q 691 3968 640 3734 
Q 589 3501 589 3238 
z
M 4230 1203 
Q 4230 1350 4249 1513 
Q 4269 1677 4329 1814 
Q 4390 1952 4499 2045 
Q 4608 2138 4787 2138 
Q 4973 2138 5078 2045 
Q 5184 1952 5241 1814 
Q 5299 1677 5315 1513 
Q 5331 1350 5331 1210 
Q 5331 1062 5312 896 
Q 5293 730 5232 592 
Q 5171 454 5062 364 
Q 4954 275 4768 275 
Q 4589 275 4483 368 
Q 4378 461 4320 598 
Q 4262 736 4246 899 
Q 4230 1062 4230 1203 
z
M 3750 1190 
Q 3750 928 3804 697 
Q 3859 467 3980 297 
Q 4102 128 4300 29 
Q 4499 -70 4787 -70 
Q 5069 -70 5261 35 
Q 5453 141 5577 317 
Q 5702 493 5756 726 
Q 5811 960 5811 1210 
Q 5811 1472 5763 1705 
Q 5715 1939 5596 2112 
Q 5478 2285 5283 2387 
Q 5088 2490 4787 2490 
Q 4493 2490 4294 2384 
Q 4096 2278 3974 2099 
Q 3853 1920 3801 1686 
Q 3750 1453 3750 1190 
z
M 4646 4621 
L 1203 -134 
L 1754 -134 
L 5190 4621 
L 4646 4621 
z
" transform="scale(0.015625)"/>
      <path id="HelveticaNeue-29" d="M -58 -1261 
L 352 -1261 
Q 851 -602 1104 163 
Q 1357 928 1357 1683 
Q 1357 2106 1286 2490 
Q 1216 2874 1085 3242 
Q 954 3610 768 3965 
Q 582 4320 352 4678 
L -58 4678 
Q 390 3942 585 3216 
Q 781 2490 781 1683 
Q 781 902 589 182 
Q 397 -538 -58 -1261 
z
" transform="scale(0.015625)"/>
     </defs>
     <use xlink:href="#HelveticaNeue-43"/>
     <use xlink:href="#HelveticaNeue-6c" transform="translate(72.199982 0)"/>
     <use xlink:href="#HelveticaNeue-75" transform="translate(94.399979 0)"/>
     <use xlink:href="#HelveticaNeue-73" transform="translate(149.999969 0)"/>
     <use xlink:href="#HelveticaNeue-74" transform="translate(199.999954 0)"/>
     <use xlink:href="#HelveticaNeue-65" transform="translate(231.499939 0)"/>
     <use xlink:href="#HelveticaNeue-72" transform="translate(285.199936 0)"/>
     <use xlink:href="#HelveticaNeue-20" transform="translate(318.499924 0)"/>
     <use xlink:href="#HelveticaNeue-28" transform="translate(346.299911 0)"/>
     <use xlink:href="#HelveticaNeue-39" transform="translate(372.199905 0)"/>
     <use xlink:href="#HelveticaNeue-35" transform="translate(427.799896 0)"/>
     <use xlink:href="#HelveticaNeue-25" transform="translate(483.399887 0)"/>
     <use xlink:href="#HelveticaNeue-29" transform="translate(583.399872 0)"/>
    </g>
   </g>
   <g id="text_5">
    <!-- Canary -->
    <g style="fill: #ffffff" transform="translate(536.122143 366.85625) scale(0.1 -0.1)">
     <use xlink:href="#HelveticaNeue-43"/>
     <use xlink:href="#HelveticaNeue-61" transform="translate(72.199982 0)"/>
     <use xlink:href="#HelveticaNeue-6e" transform="translate(125.899979 0)"/>
     <use xlink:href="#HelveticaNeue-61" transform="translate(181.499969 0)"/>
     <use xlink:href="#HelveticaNeue-72" transform="translate(235.199966 0)"/>
     <use xlink:href="#HelveticaNeue-79" transform="translate(268.499954 0)"/>
    </g>
    <!-- Cluster (5%) -->
    <g style="fill: #ffffff" transform="translate(524.361987 377.697812) scale(0.1 -0.1)">
     <use xlink:href="#HelveticaNeue-43"/>
     <use xlink:href="#HelveticaNeue-6c" transform="translate(72.199982 0)"/>
     <use xlink:href="#HelveticaNeue-75" transform="translate(94.399979 0)"/>
     <use xlink:href="#HelveticaNeue-73" transform="translate(149.999969 0)"/>
     <use xlink:href="#HelveticaNeue-74" transform="translate(199.999954 0)"/>
     <use xlink:href="#HelveticaNeue-65" transform="translate(231.499939 0)"/>
     <use xlink:href="#HelveticaNeue-72" transform="translate(285.199936 0)"/>
     <use xlink:href="#HelveticaNeue-20" transform="translate(318.499924 0)"/>
     <use xlink:href="#HelveticaNeue-28" transform="translate(346.299911 0)"/>
     <use xlink:href="#HelveticaNeue-35" transform="translate(372.199905 0)"/>
     <use xlink:href="#HelveticaNeue-25" transform="translate(427.799896 0)"/>
     <use xlink:href="#HelveticaNeue-29" transform="translate(527.799881 0)"/>
    </g>
   </g>
   <g id="text_6">
    <!-- Metrics -->
    <g style="fill: #ffffff" transform="translate(781.532143 263.378125) scale(0.1 -0.1)">
     <defs>
      <path id="HelveticaNeue-4d" d="M 512 4570 
L 512 0 
L 1088 0 
L 1088 3802 
L 1101 3802 
L 2528 0 
L 3046 0 
L 4474 3802 
L 4486 3802 
L 4486 0 
L 5062 0 
L 5062 4570 
L 4230 4570 
L 2784 730 
L 1344 4570 
L 512 4570 
z
" transform="scale(0.015625)"/>
     </defs>
     <use xlink:href="#HelveticaNeue-4d"/>
     <use xlink:href="#HelveticaNeue-65" transform="translate(87.099991 0)"/>
     <use xlink:href="#HelveticaNeue-74" transform="translate(140.799988 0)"/>
     <use xlink:href="#HelveticaNeue-72" transform="translate(172.299973 0)"/>
     <use xlink:href="#HelveticaNeue-69" transform="translate(205.59996 0)"/>
     <use xlink:href="#HelveticaNeue-63" transform="translate(227.799957 0)"/>
     <use xlink:href="#HelveticaNeue-73" transform="translate(281.499954 0)"/>
    </g>
    <!-- Collector -->
    <g style="fill: #ffffff" transform="translate(777.925893 273.917188) scale(0.1 -0.1)">
     <use xlink:href="#HelveticaNeue-43"/>
     <use xlink:href="#HelveticaNeue-6f" transform="translate(72.199982 0)"/>
     <use xlink:href="#HelveticaNeue-6c" transform="translate(129.599976 0)"/>
     <use xlink:href="#HelveticaNeue-6c" transform="translate(151.799973 0)"/>
     <use xlink:href="#HelveticaNeue-65" transform="translate(173.999969 0)"/>
     <use xlink:href="#HelveticaNeue-63" transform="translate(227.699966 0)"/>
     <use xlink:href="#HelveticaNeue-74" transform="translate(281.399963 0)"/>
     <use xlink:href="#HelveticaNeue-6f" transform="translate(312.899948 0)"/>
     <use xlink:href="#HelveticaNeue-72" transform="translate(370.299942 0)"/>
    </g>
   </g>
   <g id="text_7">
    <!-- Analysis -->
    <g style="fill: #ffffff" transform="translate(779.682143 435.842969) scale(0.1 -0.1)">
     <use xlink:href="#HelveticaNeue-41"/>
     <use xlink:href="#HelveticaNeue-6e" transform="translate(64.799988 0)"/>
     <use xlink:href="#HelveticaNeue-61" transform="translate(120.399979 0)"/>
     <use xlink:href="#HelveticaNeue-6c" transform="translate(174.099976 0)"/>
     <use xlink:href="#HelveticaNeue-79" transform="translate(196.299973 0)"/>
     <use xlink:href="#HelveticaNeue-73" transform="translate(246.299957 0)"/>
     <use xlink:href="#HelveticaNeue-69" transform="translate(296.299942 0)"/>
     <use xlink:href="#HelveticaNeue-73" transform="translate(318.499939 0)"/>
    </g>
    <!-- Engine -->
    <g style="fill: #ffffff" transform="translate(782.827455 446.482031) scale(0.1 -0.1)">
     <defs>
      <path id="HelveticaNeue-45" d="M 499 4570 
L 499 0 
L 3674 0 
L 3674 512 
L 1107 512 
L 1107 2093 
L 3482 2093 
L 3482 2605 
L 1107 2605 
L 1107 4058 
L 3654 4058 
L 3654 4570 
L 499 4570 
z
" transform="scale(0.015625)"/>
     </defs>
     <use xlink:href="#HelveticaNeue-45"/>
     <use xlink:href="#HelveticaNeue-6e" transform="translate(61.099991 0)"/>
     <use xlink:href="#HelveticaNeue-67" transform="translate(116.699982 0)"/>
     <use xlink:href="#HelveticaNeue-69" transform="translate(174.099976 0)"/>
     <use xlink:href="#HelveticaNeue-6e" transform="translate(196.299973 0)"/>
     <use xlink:href="#HelveticaNeue-65" transform="translate(251.899963 0)"/>
    </g>
   </g>
   <g id="text_8">
    <!-- Promote / -->
    <g style="fill: #ffffff" transform="translate(775.969643 90.803125) scale(0.1 -0.1)">
     <defs>
      <path id="HelveticaNeue-50" d="M 1107 2381 
L 1107 4058 
L 2298 4058 
Q 2816 4058 3056 3843 
Q 3296 3629 3296 3219 
Q 3296 2810 3056 2592 
Q 2816 2374 2298 2381 
L 1107 2381 
z
M 499 4570 
L 499 0 
L 1107 0 
L 1107 1869 
L 2502 1869 
Q 3194 1862 3549 2220 
Q 3904 2579 3904 3219 
Q 3904 3859 3549 4214 
Q 3194 4570 2502 4570 
L 499 4570 
z
" transform="scale(0.015625)"/>
      <path id="HelveticaNeue-2f" d="M 1779 4678 
L -109 -102 
L 352 -102 
L 2246 4678 
L 1779 4678 
z
" transform="scale(0.015625)"/>
     </defs>
     <use xlink:href="#HelveticaNeue-50"/>
     <use xlink:href="#HelveticaNeue-72" transform="translate(64.799988 0)"/>
     <use xlink:href="#HelveticaNeue-6f" transform="translate(96.349976 0)"/>
     <use xlink:href="#HelveticaNeue-6d" transform="translate(153.749969 0)"/>
     <use xlink:href="#HelveticaNeue-6f" transform="translate(239.049957 0)"/>
     <use xlink:href="#HelveticaNeue-74" transform="translate(296.449951 0)"/>
     <use xlink:href="#HelveticaNeue-65" transform="translate(327.949936 0)"/>
     <use xlink:href="#HelveticaNeue-20" transform="translate(381.649933 0)"/>
     <use xlink:href="#HelveticaNeue-2f" transform="translate(409.449921 0)"/>
    </g>
    <!-- Rollback -->
    <g style="fill: #ffffff" transform="translate(778.661049 101.342188) scale(0.1 -0.1)">
     <defs>
      <path id="HelveticaNeue-52" d="M 499 4570 
L 499 0 
L 1107 0 
L 1107 1952 
L 2592 1952 
Q 2816 1952 2950 1885 
Q 3085 1818 3168 1706 
Q 3251 1594 3289 1443 
Q 3328 1293 3354 1126 
Q 3386 960 3392 787 
Q 3398 614 3404 464 
Q 3411 314 3433 192 
Q 3456 70 3520 0 
L 4198 0 
Q 4102 115 4054 265 
Q 4006 416 3980 582 
Q 3955 749 3948 921 
Q 3942 1094 3930 1261 
Q 3910 1427 3875 1580 
Q 3840 1734 3766 1859 
Q 3693 1984 3568 2073 
Q 3443 2163 3245 2202 
L 3245 2214 
Q 3661 2330 3849 2643 
Q 4038 2957 4038 3373 
Q 4038 3930 3670 4250 
Q 3302 4570 2650 4570 
L 499 4570 
z
M 2374 2464 
L 1107 2464 
L 1107 4058 
L 2618 4058 
Q 3046 4058 3238 3840 
Q 3430 3622 3430 3277 
Q 3430 3027 3344 2870 
Q 3258 2714 3114 2621 
Q 2970 2528 2778 2496 
Q 2586 2464 2374 2464 
z
" transform="scale(0.015625)"/>
      <path id="HelveticaNeue-62" d="M 429 4570 
L 429 0 
L 973 0 
L 973 442 
L 986 442 
Q 1075 294 1206 195 
Q 1338 96 1485 38 
Q 1632 -19 1782 -44 
Q 1933 -70 2054 -70 
Q 2432 -70 2717 64 
Q 3002 198 3190 432 
Q 3379 666 3472 979 
Q 3565 1293 3565 1645 
Q 3565 1997 3469 2310 
Q 3373 2624 3184 2864 
Q 2995 3104 2710 3245 
Q 2426 3386 2042 3386 
Q 1696 3386 1408 3261 
Q 1120 3136 986 2861 
L 973 2861 
L 973 4570 
L 429 4570 
z
M 2989 1683 
Q 2989 1440 2937 1209 
Q 2886 979 2771 800 
Q 2656 621 2467 512 
Q 2278 403 1997 403 
Q 1715 403 1516 508 
Q 1318 614 1193 787 
Q 1069 960 1011 1187 
Q 954 1414 954 1658 
Q 954 1888 1008 2112 
Q 1062 2336 1184 2512 
Q 1306 2688 1498 2797 
Q 1690 2906 1965 2906 
Q 2227 2906 2422 2803 
Q 2618 2701 2742 2528 
Q 2867 2355 2928 2134 
Q 2989 1914 2989 1683 
z
" transform="scale(0.015625)"/>
      <path id="HelveticaNeue-6b" d="M 442 4570 
L 442 0 
L 986 0 
L 986 1254 
L 1498 1728 
L 2630 0 
L 3322 0 
L 1914 2106 
L 3226 3309 
L 2496 3309 
L 986 1862 
L 986 4570 
L 442 4570 
z
" transform="scale(0.015625)"/>
     </defs>
     <use xlink:href="#HelveticaNeue-52"/>
     <use xlink:href="#HelveticaNeue-6f" transform="translate(68.499985 0)"/>
     <use xlink:href="#HelveticaNeue-6c" transform="translate(125.899979 0)"/>
     <use xlink:href="#HelveticaNeue-6c" transform="translate(148.099976 0)"/>
     <use xlink:href="#HelveticaNeue-62" transform="translate(170.299973 0)"/>
     <use xlink:href="#HelveticaNeue-61" transform="translate(229.59996 0)"/>
     <use xlink:href="#HelveticaNeue-63" transform="translate(283.299957 0)"/>
     <use xlink:href="#HelveticaNeue-6b" transform="translate(336.999954 0)"/>
    </g>
   </g>
   <g id="patch_16">
    <path d="M 184.961015 266.0625 
Q 218.112118 266.0625 249.027154 266.0625 
" style="fill: none; stroke: #333333; stroke-width: 2; stroke-linecap: round"/>
    <path d="M 244.627154 263.8625 
L 249.027154 266.0625 
L 244.627154 268.2625 
" style="fill: none; stroke: #333333; stroke-width: 2; stroke-linecap: round"/>
   </g>
   <g id="patch_17">
    <path d="M 395.476964 230.360942 
Q 429.01674 205.661547 460.755994 182.288094 
" style="fill: none; stroke: #333333; stroke-width: 2; stroke-linecap: round"/>
    <path d="M 455.908482 183.125723 
L 460.755994 182.288094 
L 458.51759 186.668681 
" style="fill: none; stroke: #333333; stroke-width: 2; stroke-linecap: round"/>
   </g>
   <g id="patch_18">
    <path d="M 395.292454 301.978408 
Q 429.016907 335.092268 461.145843 366.639499 
" style="fill: none; stroke: #333333; stroke-width: 2; stroke-linecap: round"/>
    <path d="M 459.547641 361.987 
L 461.145843 366.639499 
L 456.464922 365.126561 
" style="fill: none; stroke: #333333; stroke-width: 2; stroke-linecap: round"/>
   </g>
   <g id="patch_19">
    <path d="M 641.189398 164.068505 
Q 675.077966 205.66226 707.554136 245.522482 
" style="fill: none; stroke: #333333; stroke-width: 2; stroke-linecap: round"/>
    <path d="M 706.480475 240.721727 
L 707.554136 245.522482 
L 703.069335 243.500958 
" style="fill: none; stroke: #333333; stroke-width: 2; stroke-linecap: round"/>
   </g>
   <g id="patch_20">
    <path d="M 641.352454 368.206592 
Q 675.076907 335.092732 707.205843 303.545501 
" style="fill: none; stroke: #333333; stroke-width: 2; stroke-linecap: round"/>
    <path d="M 702.524922 305.058439 
L 707.205843 303.545501 
L 705.607641 308.198 
" style="fill: none; stroke: #333333; stroke-width: 2; stroke-linecap: round"/>
   </g>
   <g id="patch_21">
    <path d="M 798.107143 319.836297 
Q 798.107143 352.350373 798.107143 382.628381 
" style="fill: none; stroke: #333333; stroke-width: 2; stroke-linecap: round"/>
    <path d="M 800.307143 378.228381 
L 798.107143 382.628381 
L 795.907143 378.228381 
" style="fill: none; stroke: #333333; stroke-width: 2; stroke-linecap: round"/>
   </g>
   <g id="patch_22">
    <path d="M 798.107143 388.865244 
Q 798.107143 412.750398 798.107143 434.399484 
" style="fill: none; stroke: #aa0066; stroke-width: 2; stroke-linecap: round"/>
    <path d="M 800.307143 429.999484 
L 798.107143 434.399484 
L 795.907143 429.999484 
" style="fill: none; stroke: #aa0066; stroke-width: 2; stroke-linecap: round"/>
   </g>
   <g id="patch_23">
    <path d="M 798.107143 147.261297 
Q 798.107143 179.775373 798.107143 210.053381 
" style="fill: none; stroke: #333333; stroke-width: 2; stroke-linecap: round"/>
    <path d="M 800.307143 205.653381 
L 798.107143 210.053381 
L 795.907143 205.653381 
" style="fill: none; stroke: #333333; stroke-width: 2; stroke-linecap: round"/>
   </g>
   <g id="text_9">
    <!-- 95% -->
    <g style="fill: #00aa44" transform="translate(429.017143 197.0325) scale(0.1 -0.1)">
     <use xlink:href="#HelveticaNeue-39"/>
     <use xlink:href="#HelveticaNeue-35" transform="translate(55.599991 0)"/>
     <use xlink:href="#HelveticaNeue-25" transform="translate(111.199982 0)"/>
    </g>
   </g>
   <g id="text_10">
    <!-- 5% -->
    <g style="fill: #ff6600" transform="translate(429.017143 317.835) scale(0.1 -0.1)">
     <use xlink:href="#HelveticaNeue-35"/>
     <use xlink:href="#HelveticaNeue-25" transform="translate(55.599991 0)"/>
    </g>
   </g>
   <g id="text_11">
    <!-- P99 Latency | Error Rate | Throughput -->
    <g style="fill: #808080" transform="translate(710.228571 538.731) scale(0.09 -0.09)">
     <defs>
      <path id="HelveticaNeue-7c" d="M 493 5030 
L 493 -1363 
L 928 -1363 
L 928 5030 
L 493 5030 
z
" transform="scale(0.015625)"/>
     </defs>
     <use xlink:href="#HelveticaNeue-50"/>
     <use xlink:href="#HelveticaNeue-39" transform="translate(64.799988 0)"/>
     <use xlink:href="#HelveticaNeue-39" transform="translate(120.399979 0)"/>
     <use xlink:href="#HelveticaNeue-20" transform="translate(175.999969 0)"/>
     <use xlink:href="#HelveticaNeue-4c" transform="translate(203.799957 0)"/>
     <use xlink:href="#HelveticaNeue-61" transform="translate(259.399948 0)"/>
     <use xlink:href="#HelveticaNeue-74" transform="translate(313.099945 0)"/>
     <use xlink:href="#HelveticaNeue-65" transform="translate(344.59993 0)"/>
     <use xlink:href="#HelveticaNeue-6e" transform="translate(398.299927 0)"/>
     <use xlink:href="#HelveticaNeue-63" transform="translate(453.899918 0)"/>
     <use xlink:href="#HelveticaNeue-79" transform="translate(507.599915 0)"/>
     <use xlink:href="#HelveticaNeue-20" transform="translate(557.599899 0)"/>
     <use xlink:href="#HelveticaNeue-7c" transform="translate(585.399887 0)"/>
     <use xlink:href="#HelveticaNeue-20" transform="translate(607.599884 0)"/>
     <use xlink:href="#HelveticaNeue-45" transform="translate(635.399872 0)"/>
     <use xlink:href="#HelveticaNeue-72" transform="translate(696.499863 0)"/>
     <use xlink:href="#HelveticaNeue-72" transform="translate(729.79985 0)"/>
     <use xlink:href="#HelveticaNeue-6f" transform="translate(761.349838 0)"/>
     <use xlink:href="#HelveticaNeue-72" transform="translate(818.749832 0)"/>
     <use xlink:href="#HelveticaNeue-20" transform="translate(852.04982 0)"/>
     <use xlink:href="#HelveticaNeue-52" transform="translate(879.849808 0)"/>
     <use xlink:href="#HelveticaNeue-61" transform="translate(948.349792 0)"/>
     <use xlink:href="#HelveticaNeue-74" transform="translate(1002.049789 0)"/>
     <use xlink:href="#HelveticaNeue-65" transform="translate(1033.549774 0)"/>
     <use xlink:href="#HelveticaNeue-20" transform="translate(1087.249771 0)"/>
     <use xlink:href="#HelveticaNeue-7c" transform="translate(1115.049759 0)"/>
     <use xlink:href="#HelveticaNeue-20" transform="translate(1137.249756 0)"/>
     <use xlink:href="#HelveticaNeue-54" transform="translate(1165.049744 0)"/>
     <use xlink:href="#HelveticaNeue-68" transform="translate(1222.449738 0)"/>
     <use xlink:href="#HelveticaNeue-72" transform="translate(1278.049728 0)"/>
     <use xlink:href="#HelveticaNeue-6f" transform="translate(1309.599716 0)"/>
     <use xlink:href="#HelveticaNeue-75" transform="translate(1366.99971 0)"/>
     <use xlink:href="#HelveticaNeue-67" transform="translate(1422.599701 0)"/>
     <use xlink:href="#HelveticaNeue-68" transform="translate(1479.999695 0)"/>
     <use xlink:href="#HelveticaNeue-70" transform="translate(1535.599686 0)"/>
     <use xlink:href="#HelveticaNeue-75" transform="translate(1594.899673 0)"/>
     <use xlink:href="#HelveticaNeue-74" transform="translate(1650.499664 0)"/>
    </g>
   </g>
  </g>
 </g>
 <defs>
  <clipPath id="p8500a75394">
   <rect x="7.2" y="7.2" width="984.24" height="552.24"/>
  </clipPath>
 </defs>
</svg>
