<?xml version="1.0" encoding="utf-8" standalone="no"?>
<!DOCTYPE svg PUBLIC "-//W3C//DTD SVG 1.1//EN"
  "http://www.w3.org/Graphics/SVG/1.1/DTD/svg11.dtd">
<svg xmlns:xlink="http://www.w3.org/1999/xlink" width="854.64pt" height="278.661562pt" viewBox="0 0 854.64 278.661562" xmlns="http://www.w3.org/2000/svg" version="1.1">
 <metadata>
  <rdf:RDF xmlns:dc="http://purl.org/dc/elements/1.1/" xmlns:cc="http://creativecommons.org/ns#" xmlns:rdf="http://www.w3.org/1999/02/22-rdf-syntax-ns#">
   <cc:Work>
    <dc:type rdf:resource="http://purl.org/dc/dcmitype/StillImage"/>
    <dc:date>2025-12-15T17:18:17.102224</dc:date>
    <dc:format>image/svg+xml</dc:format>
    <dc:creator>
     <cc:Agent>
      <dc:title>Matplotlib v3.10.8, https://matplotlib.org/</dc:title>
     </cc:Agent>
    </dc:creator>
   </cc:Work>
  </rdf:RDF>
 </metadata>
 <defs>
  <style type="text/css">*{stroke-linejoin: round; stroke-linecap: butt}</style>
 </defs>
 <g id="figure_1">
  <g id="patch_1">
   <path d="M 0 278.661562 
L 854.64 278.661562 
L 854.64 0 
L 0 0 
z
" style="fill: #ffffff"/>
  </g>
  <g id="axes_1">
   <g id="patch_2">
    <path d="M 51.211121 154.426562 
Q 427.319765 154.426562 800.074307 154.426562 
" style="fill: none; stroke: #3b3b3b; stroke-width: 3; stroke-linecap: round"/>
    <path d="M 795.674307 152.226562 
L 800.074307 154.426562 
L 795.674307 156.626562 
" style="fill: none; stroke: #3b3b3b; stroke-width: 3; stroke-linecap: round"/>
   </g>
   <g id="patch_3">
    <path d="M 91.224 168.470762 
C 104.594055 168.470762 117.418307 166.990977 126.872364 164.357312 
C 136.326421 161.723646 141.6384 158.151128 141.6384 154.426562 
C 141.6384 150.701997 136.326421 147.129479 126.872364 144.495813 
C 117.418307 141.862148 104.594055 140.382362 91.224 140.382362 
C 77.853945 140.382362 65.029693 141.862148 55.575636 144.495813 
C 46.121579 147.129479 40.8096 150.701997 40.8096 154.426562 
C 40.8096 158.151128 46.121579 161.723646 55.575636 164.357312 
C 65.029693 166.990977 77.853945 168.470762 91.224 168.470762 
z
" clip-path="url(#pee8f403dc6)" style="fill: #2e86ab; opacity: 0.3; stroke: #2e86ab; stroke-linejoin: miter"/>
   </g>
   <g id="text_1">
    <!-- Rule-Based -->
    <g style="fill: #3b3b3b" transform="translate(63.718531 90.394912) scale(0.1 -0.1)">
     <defs>
      <path id="Arial-BoldMT-52" d="M 469 0 
L 469 4581 
L 2416 4581 
Q 3150 4581 3483 4457 
Q 3816 4334 4016 4018 
Q 4216 3703 4216 3297 
Q 4216 2781 3912 2445 
Q 3609 2109 3006 2022 
Q 3306 1847 3501 1637 
Q 3697 1428 4028 894 
L 4588 0 
L 3481 0 
L 2813 997 
Q 2456 1531 2325 1670 
Q 2194 1809 2047 1861 
Q 1900 1913 1581 1913 
L 1394 1913 
L 1394 0 
L 469 0 
z
M 1394 2644 
L 2078 2644 
Q 2744 2644 2909 2700 
Q 3075 2756 3169 2893 
Q 3263 3031 3263 3238 
Q 3263 3469 3139 3611 
Q 3016 3753 2791 3791 
Q 2678 3806 2116 3806 
L 1394 3806 
L 1394 2644 
z
" transform="scale(0.015625)"/>
      <path id="Arial-BoldMT-75" d="M 2644 0 
L 2644 497 
Q 2463 231 2167 78 
Q 1872 -75 1544 -75 
Q 1209 -75 943 72 
Q 678 219 559 484 
Q 441 750 441 1219 
L 441 3319 
L 1319 3319 
L 1319 1794 
Q 1319 1094 1367 936 
Q 1416 778 1544 686 
Q 1672 594 1869 594 
Q 2094 594 2272 717 
Q 2450 841 2515 1023 
Q 2581 1206 2581 1919 
L 2581 3319 
L 3459 3319 
L 3459 0 
L 2644 0 
z
" transform="scale(0.015625)"/>
      <path id="Arial-BoldMT-6c" d="M 459 0 
L 459 4581 
L 1338 4581 
L 1338 0 
L 459 0 
z
" transform="scale(0.015625)"/>
      <path id="Arial-BoldMT-65" d="M 2381 1056 
L 3256 909 
Q 3088 428 2723 176 
Q 2359 -75 1813 -75 
Q 947 -75 531 491 
Q 203 944 203 1634 
Q 203 2459 634 2926 
Q 1066 3394 1725 3394 
Q 2466 3394 2894 2905 
Q 3322 2416 3303 1406 
L 1103 1406 
Q 1113 1016 1316 798 
Q 1519 581 1822 581 
Q 2028 581 2168 693 
Q 2309 806 2381 1056 
z
M 2431 1944 
Q 2422 2325 2234 2523 
Q 2047 2722 1778 2722 
Q 1491 2722 1303 2513 
Q 1116 2303 1119 1944 
L 2431 1944 
z
" transform="scale(0.015625)"/>
      <path id="Arial-BoldMT-2d" d="M 359 1222 
L 359 2100 
L 2084 2100 
L 2084 1222 
L 359 1222 
z
" transform="scale(0.015625)"/>
      <path id="Arial-BoldMT-42" d="M 469 4581 
L 2300 4581 
Q 2844 4581 3111 4536 
Q 3378 4491 3589 4347 
Q 3800 4203 3940 3964 
Q 4081 3725 4081 3428 
Q 4081 3106 3907 2837 
Q 3734 2569 3438 2434 
Q 3856 2313 4081 2019 
Q 4306 1725 4306 1328 
Q 4306 1016 4161 720 
Q 4016 425 3764 248 
Q 3513 72 3144 31 
Q 2913 6 2028 0 
L 469 0 
L 469 4581 
z
M 1394 3819 
L 1394 2759 
L 2000 2759 
Q 2541 2759 2672 2775 
Q 2909 2803 3045 2939 
Q 3181 3075 3181 3297 
Q 3181 3509 3064 3642 
Q 2947 3775 2716 3803 
Q 2578 3819 1925 3819 
L 1394 3819 
z
M 1394 1997 
L 1394 772 
L 2250 772 
Q 2750 772 2884 800 
Q 3091 838 3220 983 
Q 3350 1128 3350 1372 
Q 3350 1578 3250 1722 
Q 3150 1866 2961 1931 
Q 2772 1997 2141 1997 
L 1394 1997 
z
" transform="scale(0.015625)"/>
      <path id="Arial-BoldMT-61" d="M 1116 2306 
L 319 2450 
Q 453 2931 781 3162 
Q 1109 3394 1756 3394 
Q 2344 3394 2631 3255 
Q 2919 3116 3036 2902 
Q 3153 2688 3153 2116 
L 3144 1091 
Q 3144 653 3186 445 
Q 3228 238 3344 0 
L 2475 0 
Q 2441 88 2391 259 
Q 2369 338 2359 363 
Q 2134 144 1878 34 
Q 1622 -75 1331 -75 
Q 819 -75 523 203 
Q 228 481 228 906 
Q 228 1188 362 1408 
Q 497 1628 739 1745 
Q 981 1863 1438 1950 
Q 2053 2066 2291 2166 
L 2291 2253 
Q 2291 2506 2166 2614 
Q 2041 2722 1694 2722 
Q 1459 2722 1328 2630 
Q 1197 2538 1116 2306 
z
M 2291 1594 
Q 2122 1538 1756 1459 
Q 1391 1381 1278 1306 
Q 1106 1184 1106 997 
Q 1106 813 1243 678 
Q 1381 544 1594 544 
Q 1831 544 2047 700 
Q 2206 819 2256 991 
Q 2291 1103 2291 1419 
L 2291 1594 
z
" transform="scale(0.015625)"/>
      <path id="Arial-BoldMT-73" d="M 150 947 
L 1031 1081 
Q 1088 825 1259 692 
Q 1431 559 1741 559 
Q 2081 559 2253 684 
Q 2369 772 2369 919 
Q 2369 1019 2306 1084 
Q 2241 1147 2013 1200 
Q 950 1434 666 1628 
Q 272 1897 272 2375 
Q 272 2806 612 3100 
Q 953 3394 1669 3394 
Q 2350 3394 2681 3172 
Q 3013 2950 3138 2516 
L 2309 2363 
Q 2256 2556 2107 2659 
Q 1959 2763 1684 2763 
Q 1338 2763 1188 2666 
Q 1088 2597 1088 2488 
Q 1088 2394 1175 2328 
Q 1294 2241 1995 2081 
Q 2697 1922 2975 1691 
Q 3250 1456 3250 1038 
Q 3250 581 2869 253 
Q 2488 -75 1741 -75 
Q 1063 -75 667 200 
Q 272 475 150 947 
z
" transform="scale(0.015625)"/>
      <path id="Arial-BoldMT-64" d="M 3503 0 
L 2688 0 
L 2688 488 
Q 2484 203 2207 64 
Q 1931 -75 1650 -75 
Q 1078 -75 670 386 
Q 263 847 263 1672 
Q 263 2516 659 2955 
Q 1056 3394 1663 3394 
Q 2219 3394 2625 2931 
L 2625 4581 
L 3503 4581 
L 3503 0 
z
M 1159 1731 
Q 1159 1200 1306 963 
Q 1519 619 1900 619 
Q 2203 619 2415 876 
Q 2628 1134 2628 1647 
Q 2628 2219 2422 2470 
Q 2216 2722 1894 2722 
Q 1581 2722 1370 2473 
Q 1159 2225 1159 1731 
z
" transform="scale(0.015625)"/>
     </defs>
     <use xlink:href="#Arial-BoldMT-52"/>
     <use xlink:href="#Arial-BoldMT-75" transform="translate(72.216797 0)"/>
     <use xlink:href="#Arial-BoldMT-6c" transform="translate(133.300781 0)"/>
     <use xlink:href="#Arial-BoldMT-65" transform="translate(161.083984 0)"/>
     <use xlink:href="#Arial-BoldMT-2d" transform="translate(216.699219 0)"/>
     <use xlink:href="#Arial-BoldMT-42" transform="translate(250 0)"/>
     <use xlink:href="#Arial-BoldMT-61" transform="translate(322.216797 0)"/>
     <use xlink:href="#Arial-BoldMT-73" transform="translate(377.832031 0)"/>
     <use xlink:href="#Arial-BoldMT-65" transform="translate(433.447266 0)"/>
     <use xlink:href="#Arial-BoldMT-64" transform="translate(489.0625 0)"/>
    </g>
    <!-- Automation -->
    <g style="fill: #3b3b3b" transform="translate(63.452125 100.957725) scale(0.1 -0.1)">
     <defs>
      <path id="Arial-BoldMT-41" d="M 4597 0 
L 3591 0 
L 3191 1041 
L 1359 1041 
L 981 0 
L 0 0 
L 1784 4581 
L 2763 4581 
L 4597 0 
z
M 2894 1813 
L 2263 3513 
L 1644 1813 
L 2894 1813 
z
" transform="scale(0.015625)"/>
      <path id="Arial-BoldMT-74" d="M 1981 3319 
L 1981 2619 
L 1381 2619 
L 1381 1281 
Q 1381 875 1398 808 
Q 1416 741 1477 697 
Q 1538 653 1625 653 
Q 1747 653 1978 738 
L 2053 56 
Q 1747 -75 1359 -75 
Q 1122 -75 931 4 
Q 741 84 652 211 
Q 563 338 528 553 
Q 500 706 500 1172 
L 500 2619 
L 97 2619 
L 97 3319 
L 500 3319 
L 500 3978 
L 1381 4491 
L 1381 3319 
L 1981 3319 
z
" transform="scale(0.015625)"/>
      <path id="Arial-BoldMT-6f" d="M 256 1706 
Q 256 2144 472 2553 
Q 688 2963 1083 3178 
Q 1478 3394 1966 3394 
Q 2719 3394 3200 2905 
Q 3681 2416 3681 1669 
Q 3681 916 3195 420 
Q 2709 -75 1972 -75 
Q 1516 -75 1102 131 
Q 688 338 472 736 
Q 256 1134 256 1706 
z
M 1156 1659 
Q 1156 1166 1390 903 
Q 1625 641 1969 641 
Q 2313 641 2545 903 
Q 2778 1166 2778 1666 
Q 2778 2153 2545 2415 
Q 2313 2678 1969 2678 
Q 1625 2678 1390 2415 
Q 1156 2153 1156 1659 
z
" transform="scale(0.015625)"/>
      <path id="Arial-BoldMT-6d" d="M 394 3319 
L 1203 3319 
L 1203 2866 
Q 1638 3394 2238 3394 
Q 2556 3394 2790 3262 
Q 3025 3131 3175 2866 
Q 3394 3131 3647 3262 
Q 3900 3394 4188 3394 
Q 4553 3394 4806 3245 
Q 5059 3097 5184 2809 
Q 5275 2597 5275 2122 
L 5275 0 
L 4397 0 
L 4397 1897 
Q 4397 2391 4306 2534 
Q 4184 2722 3931 2722 
Q 3747 2722 3584 2609 
Q 3422 2497 3350 2280 
Q 3278 2063 3278 1594 
L 3278 0 
L 2400 0 
L 2400 1819 
Q 2400 2303 2353 2443 
Q 2306 2584 2207 2653 
Q 2109 2722 1941 2722 
Q 1738 2722 1575 2612 
Q 1413 2503 1342 2297 
Q 1272 2091 1272 1613 
L 1272 0 
L 394 0 
L 394 3319 
z
" transform="scale(0.015625)"/>
      <path id="Arial-BoldMT-69" d="M 459 3769 
L 459 4581 
L 1338 4581 
L 1338 3769 
L 459 3769 
z
M 459 0 
L 459 3319 
L 1338 3319 
L 1338 0 
L 459 0 
z
" transform="scale(0.015625)"/>
      <path id="Arial-BoldMT-6e" d="M 3478 0 
L 2600 0 
L 2600 1694 
Q 2600 2231 2544 2389 
Q 2488 2547 2361 2634 
Q 2234 2722 2056 2722 
Q 1828 2722 1647 2597 
Q 1466 2472 1398 2265 
Q 1331 2059 1331 1503 
L 1331 0 
L 453 0 
L 453 3319 
L 1269 3319 
L 1269 2831 
Q 1703 3394 2363 3394 
Q 2653 3394 2893 3289 
Q 3134 3184 3257 3021 
Q 3381 2859 3429 2653 
Q 3478 2447 3478 2063 
L 3478 0 
z
" transform="scale(0.015625)"/>
     </defs>
     <use xlink:href="#Arial-BoldMT-41"/>
     <use xlink:href="#Arial-BoldMT-75" transform="translate(72.216797 0)"/>
     <use xlink:href="#Arial-BoldMT-74" transform="translate(133.300781 0)"/>
     <use xlink:href="#Arial-BoldMT-6f" transform="translate(166.601562 0)"/>
     <use xlink:href="#Arial-BoldMT-6d" transform="translate(227.685547 0)"/>
     <use xlink:href="#Arial-BoldMT-61" transform="translate(316.601562 0)"/>
     <use xlink:href="#Arial-BoldMT-74" transform="translate(372.216797 0)"/>
     <use xlink:href="#Arial-BoldMT-69" transform="translate(405.517578 0)"/>
     <use xlink:href="#Arial-BoldMT-6f" transform="translate(433.300781 0)"/>
     <use xlink:href="#Arial-BoldMT-6e" transform="translate(494.384766 0)"/>
    </g>
   </g>
   <g id="text_2">
    <!-- If-then rules -->
    <g style="fill: #3b3b3b" transform="translate(70.104625 211.648212) scale(0.08 -0.08)">
     <defs>
      <path id="Arial-ItalicMT-49" d="M 366 0 
L 1325 4581 
L 1934 4581 
L 978 0 
L 366 0 
z
" transform="scale(0.015625)"/>
      <path id="Arial-ItalicMT-66" d="M 291 0 
L 894 2881 
L 388 2881 
L 478 3319 
L 984 3319 
L 1081 3791 
Q 1156 4144 1236 4300 
Q 1316 4456 1495 4557 
Q 1675 4659 1984 4659 
Q 2200 4659 2609 4569 
L 2506 4075 
Q 2219 4150 2025 4150 
Q 1859 4150 1773 4067 
Q 1688 3984 1625 3675 
L 1550 3319 
L 2181 3319 
L 2091 2881 
L 1459 2881 
L 856 0 
L 291 0 
z
" transform="scale(0.015625)"/>
      <path id="Arial-ItalicMT-2d" d="M 297 1375 
L 416 1941 
L 2141 1941 
L 2025 1375 
L 297 1375 
z
" transform="scale(0.015625)"/>
      <path id="Arial-ItalicMT-74" d="M 1534 459 
L 1441 -3 
Q 1238 -56 1047 -56 
Q 709 -56 509 109 
Q 359 234 359 450 
Q 359 559 441 953 
L 844 2881 
L 397 2881 
L 488 3319 
L 934 3319 
L 1106 4134 
L 1753 4525 
L 1500 3319 
L 2056 3319 
L 1963 2881 
L 1409 2881 
L 1025 1047 
Q 953 697 953 628 
Q 953 528 1011 475 
Q 1069 422 1200 422 
Q 1388 422 1534 459 
z
" transform="scale(0.015625)"/>
      <path id="Arial-ItalicMT-68" d="M 213 0 
L 1169 4581 
L 1734 4581 
L 1369 2822 
Q 1684 3128 1956 3261 
Q 2228 3394 2516 3394 
Q 2928 3394 3156 3176 
Q 3384 2959 3384 2603 
Q 3384 2428 3284 1959 
L 2875 0 
L 2309 0 
L 2731 2009 
Q 2822 2447 2822 2559 
Q 2822 2722 2709 2825 
Q 2597 2928 2384 2928 
Q 2078 2928 1800 2767 
Q 1522 2606 1364 2326 
Q 1206 2047 1075 1425 
L 778 0 
L 213 0 
z
" transform="scale(0.015625)"/>
      <path id="Arial-ItalicMT-65" d="M 2650 1128 
L 3200 1072 
Q 3081 663 2654 294 
Q 2228 -75 1638 -75 
Q 1269 -75 961 95 
Q 653 266 492 591 
Q 331 916 331 1331 
Q 331 1875 582 2386 
Q 834 2897 1234 3145 
Q 1634 3394 2100 3394 
Q 2694 3394 3048 3025 
Q 3403 2656 3403 2019 
Q 3403 1775 3359 1519 
L 916 1519 
Q 903 1422 903 1344 
Q 903 878 1117 633 
Q 1331 388 1641 388 
Q 1931 388 2212 578 
Q 2494 769 2650 1128 
z
M 1006 1950 
L 2869 1950 
Q 2872 2038 2872 2075 
Q 2872 2500 2659 2726 
Q 2447 2953 2113 2953 
Q 1750 2953 1451 2703 
Q 1153 2453 1006 1950 
z
" transform="scale(0.015625)"/>
      <path id="Arial-ItalicMT-6e" d="M 213 0 
L 906 3319 
L 1419 3319 
L 1297 2741 
Q 1631 3081 1922 3237 
Q 2213 3394 2516 3394 
Q 2919 3394 3148 3175 
Q 3378 2956 3378 2591 
Q 3378 2406 3297 2009 
L 2875 0 
L 2309 0 
L 2750 2103 
Q 2816 2409 2816 2556 
Q 2816 2722 2702 2825 
Q 2588 2928 2372 2928 
Q 1938 2928 1598 2615 
Q 1259 2303 1100 1544 
L 778 0 
L 213 0 
z
" transform="scale(0.015625)"/>
      <path id="Arial-ItalicMT-20" transform="scale(0.015625)"/>
      <path id="Arial-ItalicMT-72" d="M 213 0 
L 906 3319 
L 1406 3319 
L 1266 2641 
Q 1522 3025 1767 3209 
Q 2013 3394 2269 3394 
Q 2438 3394 2684 3272 
L 2453 2747 
Q 2306 2853 2131 2853 
Q 1834 2853 1521 2522 
Q 1209 2191 1031 1331 
L 750 0 
L 213 0 
z
" transform="scale(0.015625)"/>
      <path id="Arial-ItalicMT-75" d="M 2478 600 
Q 1881 -75 1256 -75 
Q 872 -75 636 145 
Q 400 366 400 684 
Q 400 894 506 1403 
L 906 3319 
L 1472 3319 
L 1028 1197 
Q 972 931 972 784 
Q 972 597 1086 492 
Q 1200 388 1422 388 
Q 1659 388 1886 503 
Q 2113 619 2277 816 
Q 2441 1013 2544 1281 
Q 2613 1453 2703 1884 
L 3003 3319 
L 3569 3319 
L 2875 0 
L 2353 0 
L 2478 600 
z
" transform="scale(0.015625)"/>
      <path id="Arial-ItalicMT-6c" d="M 169 0 
L 1125 4581 
L 1691 4581 
L 734 0 
L 169 0 
z
" transform="scale(0.015625)"/>
      <path id="Arial-ItalicMT-73" d="M 266 1134 
L 831 1169 
Q 831 925 906 753 
Q 981 581 1182 472 
Q 1384 363 1653 363 
Q 2028 363 2215 513 
Q 2403 663 2403 866 
Q 2403 1013 2291 1144 
Q 2175 1275 1726 1467 
Q 1278 1659 1153 1738 
Q 944 1866 837 2039 
Q 731 2213 731 2438 
Q 731 2831 1043 3112 
Q 1356 3394 1919 3394 
Q 2544 3394 2870 3105 
Q 3197 2816 3209 2344 
L 2656 2306 
Q 2644 2606 2444 2781 
Q 2244 2956 1878 2956 
Q 1584 2956 1421 2822 
Q 1259 2688 1259 2531 
Q 1259 2375 1400 2256 
Q 1494 2175 1884 2006 
Q 2534 1725 2703 1563 
Q 2972 1303 2972 931 
Q 2972 684 2820 446 
Q 2669 209 2358 67 
Q 2047 -75 1625 -75 
Q 1050 -75 647 209 
Q 244 494 266 1134 
z
" transform="scale(0.015625)"/>
     </defs>
     <use xlink:href="#Arial-ItalicMT-49"/>
     <use xlink:href="#Arial-ItalicMT-66" transform="translate(27.783203 0)"/>
     <use xlink:href="#Arial-ItalicMT-2d" transform="translate(55.566406 0)"/>
     <use xlink:href="#Arial-ItalicMT-74" transform="translate(88.867188 0)"/>
     <use xlink:href="#Arial-ItalicMT-68" transform="translate(116.650391 0)"/>
     <use xlink:href="#Arial-ItalicMT-65" transform="translate(172.265625 0)"/>
     <use xlink:href="#Arial-ItalicMT-6e" transform="translate(227.880859 0)"/>
     <use xlink:href="#Arial-ItalicMT-20" transform="translate(283.496094 0)"/>
     <use xlink:href="#Arial-ItalicMT-72" transform="translate(311.279297 0)"/>
     <use xlink:href="#Arial-ItalicMT-75" transform="translate(344.580078 0)"/>
     <use xlink:href="#Arial-ItalicMT-6c" transform="translate(400.195312 0)"/>
     <use xlink:href="#Arial-ItalicMT-65" transform="translate(422.412109 0)"/>
     <use xlink:href="#Arial-ItalicMT-73" transform="translate(478.027344 0)"/>
    </g>
    <!-- Threshold alerts -->
    <g style="fill: #3b3b3b" transform="translate(62.5465 220.109712) scale(0.08 -0.08)">
     <defs>
      <path id="Arial-ItalicMT-54" d="M 1453 0 
L 2300 4059 
L 797 4059 
L 906 4581 
L 4513 4581 
L 4403 4059 
L 2913 4059 
L 2066 0 
L 1453 0 
z
" transform="scale(0.015625)"/>
      <path id="Arial-ItalicMT-6f" d="M 313 1259 
Q 313 2231 884 2869 
Q 1356 3394 2122 3394 
Q 2722 3394 3089 3019 
Q 3456 2644 3456 2006 
Q 3456 1434 3225 942 
Q 2994 450 2567 187 
Q 2141 -75 1669 -75 
Q 1281 -75 964 90 
Q 647 256 480 559 
Q 313 863 313 1259 
z
M 878 1316 
Q 878 847 1103 605 
Q 1328 363 1675 363 
Q 1856 363 2034 436 
Q 2213 509 2366 659 
Q 2519 809 2626 1001 
Q 2734 1194 2800 1416 
Q 2897 1725 2897 2009 
Q 2897 2459 2670 2707 
Q 2444 2956 2100 2956 
Q 1834 2956 1615 2829 
Q 1397 2703 1220 2459 
Q 1044 2216 961 1892 
Q 878 1569 878 1316 
z
" transform="scale(0.015625)"/>
      <path id="Arial-ItalicMT-64" d="M 2450 481 
Q 1966 -75 1438 -75 
Q 966 -75 652 273 
Q 338 622 338 1284 
Q 338 1891 586 2392 
Q 834 2894 1207 3144 
Q 1581 3394 1956 3394 
Q 2575 3394 2891 2797 
L 3266 4581 
L 3828 4581 
L 2872 0 
L 2350 0 
L 2450 481 
z
M 900 1391 
Q 900 1044 969 844 
Q 1038 644 1203 511 
Q 1369 378 1600 378 
Q 1984 378 2297 778 
Q 2716 1309 2716 2091 
Q 2716 2484 2509 2706 
Q 2303 2928 1991 2928 
Q 1788 2928 1620 2837 
Q 1453 2747 1289 2530 
Q 1125 2313 1012 1978 
Q 900 1644 900 1391 
z
" transform="scale(0.015625)"/>
      <path id="Arial-ItalicMT-61" d="M 2450 413 
Q 2156 159 1884 42 
Q 1613 -75 1303 -75 
Q 844 -75 562 195 
Q 281 466 281 888 
Q 281 1166 407 1380 
Q 534 1594 743 1723 
Q 953 1853 1256 1909 
Q 1447 1947 1980 1969 
Q 2513 1991 2744 2081 
Q 2809 2313 2809 2466 
Q 2809 2663 2666 2775 
Q 2469 2931 2091 2931 
Q 1734 2931 1507 2773 
Q 1281 2616 1178 2325 
L 606 2375 
Q 781 2869 1161 3131 
Q 1541 3394 2119 3394 
Q 2734 3394 3094 3100 
Q 3369 2881 3369 2531 
Q 3369 2266 3291 1916 
L 3106 1091 
Q 3019 697 3019 450 
Q 3019 294 3088 0 
L 2516 0 
Q 2469 163 2450 413 
z
M 2659 1681 
Q 2541 1634 2405 1609 
Q 2269 1584 1950 1556 
Q 1456 1513 1253 1445 
Q 1050 1378 947 1231 
Q 844 1084 844 906 
Q 844 669 1008 516 
Q 1172 363 1475 363 
Q 1756 363 2015 511 
Q 2275 659 2425 925 
Q 2575 1191 2659 1681 
z
" transform="scale(0.015625)"/>
     </defs>
     <use xlink:href="#Arial-ItalicMT-54"/>
     <use xlink:href="#Arial-ItalicMT-68" transform="translate(61.083984 0)"/>
     <use xlink:href="#Arial-ItalicMT-72" transform="translate(116.699219 0)"/>
     <use xlink:href="#Arial-ItalicMT-65" transform="translate(150 0)"/>
     <use xlink:href="#Arial-ItalicMT-73" transform="translate(205.615234 0)"/>
     <use xlink:href="#Arial-ItalicMT-68" transform="translate(255.615234 0)"/>
     <use xlink:href="#Arial-ItalicMT-6f" transform="translate(311.230469 0)"/>
     <use xlink:href="#Arial-ItalicMT-6c" transform="translate(366.845703 0)"/>
     <use xlink:href="#Arial-ItalicMT-64" transform="translate(389.0625 0)"/>
     <use xlink:href="#Arial-ItalicMT-20" transform="translate(444.677734 0)"/>
     <use xlink:href="#Arial-ItalicMT-61" transform="translate(472.460938 0)"/>
     <use xlink:href="#Arial-ItalicMT-6c" transform="translate(528.076172 0)"/>
     <use xlink:href="#Arial-ItalicMT-65" transform="translate(550.292969 0)"/>
     <use xlink:href="#Arial-ItalicMT-72" transform="translate(605.908203 0)"/>
     <use xlink:href="#Arial-ItalicMT-74" transform="translate(639.208984 0)"/>
     <use xlink:href="#Arial-ItalicMT-73" transform="translate(666.992188 0)"/>
    </g>
   </g>
   <g id="patch_4">
    <path d="M 259.272 168.470762 
C 272.642055 168.470762 285.466307 166.990977 294.920364 164.357312 
C 304.374421 161.723646 309.6864 158.151128 309.6864 154.426562 
C 309.6864 150.701997 304.374421 147.129479 294.920364 144.495813 
C 285.466307 141.862148 272.642055 140.382362 259.272 140.382362 
C 245.901945 140.382362 233.077693 141.862148 223.623636 144.495813 
C 214.169579 147.129479 208.8576 150.701997 208.8576 154.426562 
C 208.8576 158.151128 214.169579 161.723646 223.623636 164.357312 
C 233.077693 166.990977 245.901945 168.470762 259.272 168.470762 
z
" clip-path="url(#pee8f403dc6)" style="fill: #2e86ab; opacity: 0.45; stroke: #2e86ab; stroke-linejoin: miter"/>
   </g>
   <g id="text_3">
    <!-- Statistical -->
    <g style="fill: #3b3b3b" transform="translate(235.65325 90.394912) scale(0.1 -0.1)">
     <defs>
      <path id="Arial-BoldMT-53" d="M 231 1491 
L 1131 1578 
Q 1213 1125 1461 912 
Q 1709 700 2131 700 
Q 2578 700 2804 889 
Q 3031 1078 3031 1331 
Q 3031 1494 2936 1608 
Q 2841 1722 2603 1806 
Q 2441 1863 1863 2006 
Q 1119 2191 819 2459 
Q 397 2838 397 3381 
Q 397 3731 595 4036 
Q 794 4341 1167 4500 
Q 1541 4659 2069 4659 
Q 2931 4659 3367 4281 
Q 3803 3903 3825 3272 
L 2900 3231 
Q 2841 3584 2645 3739 
Q 2450 3894 2059 3894 
Q 1656 3894 1428 3728 
Q 1281 3622 1281 3444 
Q 1281 3281 1419 3166 
Q 1594 3019 2269 2859 
Q 2944 2700 3267 2529 
Q 3591 2359 3773 2064 
Q 3956 1769 3956 1334 
Q 3956 941 3737 597 
Q 3519 253 3119 86 
Q 2719 -81 2122 -81 
Q 1253 -81 787 320 
Q 322 722 231 1491 
z
" transform="scale(0.015625)"/>
      <path id="Arial-BoldMT-63" d="M 3353 2338 
L 2488 2181 
Q 2444 2441 2289 2572 
Q 2134 2703 1888 2703 
Q 1559 2703 1364 2476 
Q 1169 2250 1169 1719 
Q 1169 1128 1367 884 
Q 1566 641 1900 641 
Q 2150 641 2309 783 
Q 2469 925 2534 1272 
L 3397 1125 
Q 3263 531 2881 228 
Q 2500 -75 1859 -75 
Q 1131 -75 698 384 
Q 266 844 266 1656 
Q 266 2478 700 2936 
Q 1134 3394 1875 3394 
Q 2481 3394 2839 3133 
Q 3197 2872 3353 2338 
z
" transform="scale(0.015625)"/>
     </defs>
     <use xlink:href="#Arial-BoldMT-53"/>
     <use xlink:href="#Arial-BoldMT-74" transform="translate(66.699219 0)"/>
     <use xlink:href="#Arial-BoldMT-61" transform="translate(100 0)"/>
     <use xlink:href="#Arial-BoldMT-74" transform="translate(155.615234 0)"/>
     <use xlink:href="#Arial-BoldMT-69" transform="translate(188.916016 0)"/>
     <use xlink:href="#Arial-BoldMT-73" transform="translate(216.699219 0)"/>
     <use xlink:href="#Arial-BoldMT-74" transform="translate(272.314453 0)"/>
     <use xlink:href="#Arial-BoldMT-69" transform="translate(305.615234 0)"/>
     <use xlink:href="#Arial-BoldMT-63" transform="translate(333.398438 0)"/>
     <use xlink:href="#Arial-BoldMT-61" transform="translate(389.013672 0)"/>
     <use xlink:href="#Arial-BoldMT-6c" transform="translate(444.628906 0)"/>
    </g>
    <!-- Detection -->
    <g style="fill: #3b3b3b" transform="translate(236.493094 100.957725) scale(0.1 -0.1)">
     <defs>
      <path id="Arial-BoldMT-44" d="M 463 4581 
L 2153 4581 
Q 2725 4581 3025 4494 
Q 3428 4375 3715 4072 
Q 4003 3769 4153 3330 
Q 4303 2891 4303 2247 
Q 4303 1681 4163 1272 
Q 3991 772 3672 463 
Q 3431 228 3022 97 
Q 2716 0 2203 0 
L 463 0 
L 463 4581 
z
M 1388 3806 
L 1388 772 
L 2078 772 
Q 2466 772 2638 816 
Q 2863 872 3011 1006 
Q 3159 1141 3253 1448 
Q 3347 1756 3347 2288 
Q 3347 2819 3253 3103 
Q 3159 3388 2990 3547 
Q 2822 3706 2563 3763 
Q 2369 3806 1803 3806 
L 1388 3806 
z
" transform="scale(0.015625)"/>
     </defs>
     <use xlink:href="#Arial-BoldMT-44"/>
     <use xlink:href="#Arial-BoldMT-65" transform="translate(72.216797 0)"/>
     <use xlink:href="#Arial-BoldMT-74" transform="translate(127.832031 0)"/>
     <use xlink:href="#Arial-BoldMT-65" transform="translate(161.132812 0)"/>
     <use xlink:href="#Arial-BoldMT-63" transform="translate(216.748047 0)"/>
     <use xlink:href="#Arial-BoldMT-74" transform="translate(272.363281 0)"/>
     <use xlink:href="#Arial-BoldMT-69" transform="translate(305.664062 0)"/>
     <use xlink:href="#Arial-BoldMT-6f" transform="translate(333.447266 0)"/>
     <use xlink:href="#Arial-BoldMT-6e" transform="translate(394.53125 0)"/>
    </g>
   </g>
   <g id="text_4">
    <!-- Anomaly detection -->
    <g style="fill: #3b3b3b" transform="translate(226.36575 211.648212) scale(0.08 -0.08)">
     <defs>
      <path id="Arial-ItalicMT-41" d="M -128 0 
L 2469 4581 
L 3191 4581 
L 3947 0 
L 3353 0 
L 3131 1319 
L 1278 1319 
L 544 0 
L -128 0 
z
M 1541 1791 
L 3056 1791 
L 2878 2941 
Q 2775 3625 2750 4081 
Q 2594 3688 2294 3147 
L 1541 1791 
z
" transform="scale(0.015625)"/>
      <path id="Arial-ItalicMT-6d" d="M 209 0 
L 903 3319 
L 1469 3319 
L 1353 2772 
Q 1669 3125 1917 3259 
Q 2166 3394 2456 3394 
Q 2766 3394 2973 3230 
Q 3181 3066 3247 2772 
Q 3500 3084 3779 3239 
Q 4059 3394 4369 3394 
Q 4784 3394 4992 3197 
Q 5200 3000 5200 2644 
Q 5200 2491 5128 2138 
L 4681 0 
L 4116 0 
L 4572 2194 
Q 4631 2463 4631 2578 
Q 4631 2741 4528 2834 
Q 4425 2928 4238 2928 
Q 3984 2928 3721 2775 
Q 3459 2622 3314 2373 
Q 3169 2125 3059 1609 
L 2722 0 
L 2156 0 
L 2625 2241 
Q 2675 2469 2675 2566 
Q 2675 2728 2573 2828 
Q 2472 2928 2309 2928 
Q 2069 2928 1805 2775 
Q 1541 2622 1375 2348 
Q 1209 2075 1103 1569 
L 775 0 
L 209 0 
z
" transform="scale(0.015625)"/>
      <path id="Arial-ItalicMT-79" d="M 0 -1281 
L 34 -750 
Q 209 -800 375 -800 
Q 547 -800 653 -722 
Q 791 -619 953 -334 
L 1134 -9 
L 581 3319 
L 1138 3319 
L 1388 1641 
Q 1463 1144 1516 647 
L 3000 3319 
L 3591 3319 
L 1475 -441 
Q 1169 -991 931 -1169 
Q 694 -1347 384 -1347 
Q 188 -1347 0 -1281 
z
" transform="scale(0.015625)"/>
      <path id="Arial-ItalicMT-63" d="M 2503 1209 
L 3069 1150 
Q 2856 528 2464 226 
Q 2072 -75 1572 -75 
Q 1031 -75 695 275 
Q 359 625 359 1253 
Q 359 1797 575 2322 
Q 791 2847 1192 3120 
Q 1594 3394 2109 3394 
Q 2644 3394 2956 3092 
Q 3269 2791 3269 2294 
L 2713 2256 
Q 2709 2572 2529 2750 
Q 2350 2928 2056 2928 
Q 1716 2928 1466 2712 
Q 1216 2497 1073 2058 
Q 931 1619 931 1213 
Q 931 788 1118 575 
Q 1306 363 1581 363 
Q 1856 363 2107 572 
Q 2359 781 2503 1209 
z
" transform="scale(0.015625)"/>
      <path id="Arial-ItalicMT-69" d="M 1016 3941 
L 1150 4581 
L 1713 4581 
L 1578 3941 
L 1016 3941 
z
M 191 0 
L 884 3319 
L 1450 3319 
L 756 0 
L 191 0 
z
" transform="scale(0.015625)"/>
     </defs>
     <use xlink:href="#Arial-ItalicMT-41"/>
     <use xlink:href="#Arial-ItalicMT-6e" transform="translate(66.699219 0)"/>
     <use xlink:href="#Arial-ItalicMT-6f" transform="translate(122.314453 0)"/>
     <use xlink:href="#Arial-ItalicMT-6d" transform="translate(177.929688 0)"/>
     <use xlink:href="#Arial-ItalicMT-61" transform="translate(261.230469 0)"/>
     <use xlink:href="#Arial-ItalicMT-6c" transform="translate(316.845703 0)"/>
     <use xlink:href="#Arial-ItalicMT-79" transform="translate(339.0625 0)"/>
     <use xlink:href="#Arial-ItalicMT-20" transform="translate(389.0625 0)"/>
     <use xlink:href="#Arial-ItalicMT-64" transform="translate(416.845703 0)"/>
     <use xlink:href="#Arial-ItalicMT-65" transform="translate(472.460938 0)"/>
     <use xlink:href="#Arial-ItalicMT-74" transform="translate(528.076172 0)"/>
     <use xlink:href="#Arial-ItalicMT-65" transform="translate(555.859375 0)"/>
     <use xlink:href="#Arial-ItalicMT-63" transform="translate(611.474609 0)"/>
     <use xlink:href="#Arial-ItalicMT-74" transform="translate(661.474609 0)"/>
     <use xlink:href="#Arial-ItalicMT-69" transform="translate(689.257812 0)"/>
     <use xlink:href="#Arial-ItalicMT-6f" transform="translate(711.474609 0)"/>
     <use xlink:href="#Arial-ItalicMT-6e" transform="translate(767.089844 0)"/>
    </g>
    <!-- Baseline deviation -->
    <g style="fill: #3b3b3b" transform="translate(226.807 220.203462) scale(0.08 -0.08)">
     <defs>
      <path id="Arial-ItalicMT-42" d="M 278 0 
L 1238 4581 
L 2656 4581 
Q 3044 4581 3231 4550 
Q 3538 4497 3748 4364 
Q 3959 4231 4075 4001 
Q 4191 3772 4191 3494 
Q 4191 3116 3983 2828 
Q 3775 2541 3347 2391 
Q 3719 2269 3903 2023 
Q 4088 1778 4088 1450 
Q 4088 1072 3870 725 
Q 3653 378 3295 189 
Q 2938 0 2497 0 
L 278 0 
z
M 1441 2625 
L 2369 2625 
Q 3034 2625 3326 2837 
Q 3619 3050 3619 3456 
Q 3619 3650 3528 3790 
Q 3438 3931 3286 3995 
Q 3134 4059 2716 4059 
L 1741 4059 
L 1441 2625 
z
M 1000 519 
L 2044 519 
Q 2459 519 2603 547 
Q 2894 597 3075 717 
Q 3256 838 3359 1034 
Q 3463 1231 3463 1447 
Q 3463 1769 3261 1936 
Q 3059 2103 2494 2103 
L 1331 2103 
L 1000 519 
z
" transform="scale(0.015625)"/>
      <path id="Arial-ItalicMT-76" d="M 1050 0 
L 506 3319 
L 1056 3319 
L 1341 1491 
Q 1388 1191 1456 513 
Q 1619 866 1872 1322 
L 2981 3319 
L 3578 3319 
L 1678 0 
L 1050 0 
z
" transform="scale(0.015625)"/>
     </defs>
     <use xlink:href="#Arial-ItalicMT-42"/>
     <use xlink:href="#Arial-ItalicMT-61" transform="translate(66.699219 0)"/>
     <use xlink:href="#Arial-ItalicMT-73" transform="translate(122.314453 0)"/>
     <use xlink:href="#Arial-ItalicMT-65" transform="translate(172.314453 0)"/>
     <use xlink:href="#Arial-ItalicMT-6c" transform="translate(227.929688 0)"/>
     <use xlink:href="#Arial-ItalicMT-69" transform="translate(250.146484 0)"/>
     <use xlink:href="#Arial-ItalicMT-6e" transform="translate(272.363281 0)"/>
     <use xlink:href="#Arial-ItalicMT-65" transform="translate(327.978516 0)"/>
     <use xlink:href="#Arial-ItalicMT-20" transform="translate(383.59375 0)"/>
     <use xlink:href="#Arial-ItalicMT-64" transform="translate(411.376953 0)"/>
     <use xlink:href="#Arial-ItalicMT-65" transform="translate(466.992188 0)"/>
     <use xlink:href="#Arial-ItalicMT-76" transform="translate(522.607422 0)"/>
     <use xlink:href="#Arial-ItalicMT-69" transform="translate(572.607422 0)"/>
     <use xlink:href="#Arial-ItalicMT-61" transform="translate(594.824219 0)"/>
     <use xlink:href="#Arial-ItalicMT-74" transform="translate(650.439453 0)"/>
     <use xlink:href="#Arial-ItalicMT-69" transform="translate(678.222656 0)"/>
     <use xlink:href="#Arial-ItalicMT-6f" transform="translate(700.439453 0)"/>
     <use xlink:href="#Arial-ItalicMT-6e" transform="translate(756.054688 0)"/>
    </g>
   </g>
   <g id="patch_5">
    <path d="M 427.32 168.470762 
C 440.690055 168.470762 453.514307 166.990977 462.968364 164.357312 
C 472.422421 161.723646 477.7344 158.151128 477.7344 154.426562 
C 477.7344 150.701997 472.422421 147.129479 462.968364 144.495813 
C 453.514307 141.862148 440.690055 140.382362 427.32 140.382362 
C 413.949945 140.382362 401.125693 141.862148 391.671636 144.495813 
C 382.217579 147.129479 376.9056 150.701997 376.9056 154.426562 
C 376.9056 158.151128 382.217579 161.723646 391.671636 164.357312 
C 401.125693 166.990977 413.949945 168.470762 427.32 168.470762 
z
" clip-path="url(#pee8f403dc6)" style="fill: #2e86ab; opacity: 0.6; stroke: #2e86ab; stroke-linejoin: miter"/>
   </g>
   <g id="text_5">
    <!-- Machine -->
    <g style="fill: #3b3b3b" transform="translate(407.316875 90.263662) scale(0.1 -0.1)">
     <defs>
      <path id="Arial-BoldMT-4d" d="M 453 0 
L 453 4581 
L 1838 4581 
L 2669 1456 
L 3491 4581 
L 4878 4581 
L 4878 0 
L 4019 0 
L 4019 3606 
L 3109 0 
L 2219 0 
L 1313 3606 
L 1313 0 
L 453 0 
z
" transform="scale(0.015625)"/>
      <path id="Arial-BoldMT-68" d="M 1334 4581 
L 1334 2897 
Q 1759 3394 2350 3394 
Q 2653 3394 2897 3281 
Q 3141 3169 3264 2994 
Q 3388 2819 3433 2606 
Q 3478 2394 3478 1947 
L 3478 0 
L 2600 0 
L 2600 1753 
Q 2600 2275 2550 2415 
Q 2500 2556 2373 2639 
Q 2247 2722 2056 2722 
Q 1838 2722 1666 2615 
Q 1494 2509 1414 2295 
Q 1334 2081 1334 1663 
L 1334 0 
L 456 0 
L 456 4581 
L 1334 4581 
z
" transform="scale(0.015625)"/>
     </defs>
     <use xlink:href="#Arial-BoldMT-4d"/>
     <use xlink:href="#Arial-BoldMT-61" transform="translate(83.300781 0)"/>
     <use xlink:href="#Arial-BoldMT-63" transform="translate(138.916016 0)"/>
     <use xlink:href="#Arial-BoldMT-68" transform="translate(194.53125 0)"/>
     <use xlink:href="#Arial-BoldMT-69" transform="translate(255.615234 0)"/>
     <use xlink:href="#Arial-BoldMT-6e" transform="translate(283.398438 0)"/>
     <use xlink:href="#Arial-BoldMT-65" transform="translate(344.482422 0)"/>
    </g>
    <!-- Learning -->
    <g style="fill: #3b3b3b" transform="translate(406.208281 100.826475) scale(0.1 -0.1)">
     <defs>
      <path id="Arial-BoldMT-4c" d="M 491 0 
L 491 4544 
L 1416 4544 
L 1416 772 
L 3716 772 
L 3716 0 
L 491 0 
z
" transform="scale(0.015625)"/>
      <path id="Arial-BoldMT-72" d="M 1300 0 
L 422 0 
L 422 3319 
L 1238 3319 
L 1238 2847 
Q 1447 3181 1614 3287 
Q 1781 3394 1994 3394 
Q 2294 3394 2572 3228 
L 2300 2463 
Q 2078 2606 1888 2606 
Q 1703 2606 1575 2504 
Q 1447 2403 1373 2137 
Q 1300 1872 1300 1025 
L 1300 0 
z
" transform="scale(0.015625)"/>
      <path id="Arial-BoldMT-67" d="M 378 -219 
L 1381 -341 
Q 1406 -516 1497 -581 
Q 1622 -675 1891 -675 
Q 2234 -675 2406 -572 
Q 2522 -503 2581 -350 
Q 2622 -241 2622 53 
L 2622 538 
Q 2228 0 1628 0 
Q 959 0 569 566 
Q 263 1013 263 1678 
Q 263 2513 664 2953 
Q 1066 3394 1663 3394 
Q 2278 3394 2678 2853 
L 2678 3319 
L 3500 3319 
L 3500 341 
Q 3500 -247 3403 -537 
Q 3306 -828 3131 -993 
Q 2956 -1159 2664 -1253 
Q 2372 -1347 1925 -1347 
Q 1081 -1347 728 -1058 
Q 375 -769 375 -325 
Q 375 -281 378 -219 
z
M 1163 1728 
Q 1163 1200 1367 954 
Q 1572 709 1872 709 
Q 2194 709 2416 961 
Q 2638 1213 2638 1706 
Q 2638 2222 2425 2472 
Q 2213 2722 1888 2722 
Q 1572 2722 1367 2476 
Q 1163 2231 1163 1728 
z
" transform="scale(0.015625)"/>
     </defs>
     <use xlink:href="#Arial-BoldMT-4c"/>
     <use xlink:href="#Arial-BoldMT-65" transform="translate(61.083984 0)"/>
     <use xlink:href="#Arial-BoldMT-61" transform="translate(116.699219 0)"/>
     <use xlink:href="#Arial-BoldMT-72" transform="translate(172.314453 0)"/>
     <use xlink:href="#Arial-BoldMT-6e" transform="translate(211.230469 0)"/>
     <use xlink:href="#Arial-BoldMT-69" transform="translate(272.314453 0)"/>
     <use xlink:href="#Arial-BoldMT-6e" transform="translate(300.097656 0)"/>
     <use xlink:href="#Arial-BoldMT-67" transform="translate(361.181641 0)"/>
    </g>
   </g>
   <g id="text_6">
    <!-- Predictive analytics -->
    <g style="fill: #3b3b3b" transform="translate(393.085 211.648212) scale(0.08 -0.08)">
     <defs>
      <path id="Arial-ItalicMT-50" d="M 275 0 
L 1234 4581 
L 3147 4581 
Q 3644 4581 3892 4467 
Q 4141 4353 4303 4076 
Q 4466 3800 4466 3456 
Q 4466 3172 4350 2878 
Q 4234 2584 4057 2393 
Q 3881 2203 3700 2106 
Q 3519 2009 3313 1963 
Q 2872 1859 2422 1859 
L 1275 1859 
L 888 0 
L 275 0 
z
M 1384 2378 
L 2394 2378 
Q 2981 2378 3256 2504 
Q 3531 2631 3697 2890 
Q 3863 3150 3863 3441 
Q 3863 3666 3775 3808 
Q 3688 3950 3528 4017 
Q 3369 4084 2916 4084 
L 1741 4084 
L 1384 2378 
z
" transform="scale(0.015625)"/>
     </defs>
     <use xlink:href="#Arial-ItalicMT-50"/>
     <use xlink:href="#Arial-ItalicMT-72" transform="translate(66.699219 0)"/>
     <use xlink:href="#Arial-ItalicMT-65" transform="translate(100 0)"/>
     <use xlink:href="#Arial-ItalicMT-64" transform="translate(155.615234 0)"/>
     <use xlink:href="#Arial-ItalicMT-69" transform="translate(211.230469 0)"/>
     <use xlink:href="#Arial-ItalicMT-63" transform="translate(233.447266 0)"/>
     <use xlink:href="#Arial-ItalicMT-74" transform="translate(283.447266 0)"/>
     <use xlink:href="#Arial-ItalicMT-69" transform="translate(311.230469 0)"/>
     <use xlink:href="#Arial-ItalicMT-76" transform="translate(333.447266 0)"/>
     <use xlink:href="#Arial-ItalicMT-65" transform="translate(383.447266 0)"/>
     <use xlink:href="#Arial-ItalicMT-20" transform="translate(439.0625 0)"/>
     <use xlink:href="#Arial-ItalicMT-61" transform="translate(466.845703 0)"/>
     <use xlink:href="#Arial-ItalicMT-6e" transform="translate(522.460938 0)"/>
     <use xlink:href="#Arial-ItalicMT-61" transform="translate(578.076172 0)"/>
     <use xlink:href="#Arial-ItalicMT-6c" transform="translate(633.691406 0)"/>
     <use xlink:href="#Arial-ItalicMT-79" transform="translate(655.908203 0)"/>
     <use xlink:href="#Arial-ItalicMT-74" transform="translate(705.908203 0)"/>
     <use xlink:href="#Arial-ItalicMT-69" transform="translate(733.691406 0)"/>
     <use xlink:href="#Arial-ItalicMT-63" transform="translate(755.908203 0)"/>
     <use xlink:href="#Arial-ItalicMT-73" transform="translate(805.908203 0)"/>
    </g>
    <!-- Pattern recognition -->
    <g style="fill: #3b3b3b" transform="translate(393.74625 220.203462) scale(0.08 -0.08)">
     <defs>
      <path id="Arial-ItalicMT-67" d="M 181 -300 
L 753 -353 
Q 747 -547 800 -644 
Q 853 -741 969 -794 
Q 1122 -863 1366 -863 
Q 1878 -863 2103 -597 
Q 2250 -419 2375 178 
L 2431 447 
Q 1991 0 1494 0 
Q 991 0 652 370 
Q 313 741 313 1419 
Q 313 1978 580 2447 
Q 847 2916 1215 3155 
Q 1584 3394 1975 3394 
Q 2628 3394 2981 2775 
L 3094 3319 
L 3613 3319 
L 2944 116 
Q 2834 -413 2656 -708 
Q 2478 -1003 2161 -1165 
Q 1844 -1328 1428 -1328 
Q 1028 -1328 739 -1225 
Q 450 -1122 308 -923 
Q 166 -725 166 -469 
Q 166 -391 181 -300 
z
M 888 1469 
Q 888 1128 953 956 
Q 1047 716 1220 589 
Q 1394 463 1606 463 
Q 1884 463 2159 658 
Q 2434 853 2604 1262 
Q 2775 1672 2775 2044 
Q 2775 2453 2548 2695 
Q 2322 2938 1988 2938 
Q 1781 2938 1587 2827 
Q 1394 2716 1226 2489 
Q 1059 2263 973 1947 
Q 888 1631 888 1469 
z
" transform="scale(0.015625)"/>
     </defs>
     <use xlink:href="#Arial-ItalicMT-50"/>
     <use xlink:href="#Arial-ItalicMT-61" transform="translate(66.699219 0)"/>
     <use xlink:href="#Arial-ItalicMT-74" transform="translate(122.314453 0)"/>
     <use xlink:href="#Arial-ItalicMT-74" transform="translate(150.097656 0)"/>
     <use xlink:href="#Arial-ItalicMT-65" transform="translate(177.880859 0)"/>
     <use xlink:href="#Arial-ItalicMT-72" transform="translate(233.496094 0)"/>
     <use xlink:href="#Arial-ItalicMT-6e" transform="translate(266.796875 0)"/>
     <use xlink:href="#Arial-ItalicMT-20" transform="translate(322.412109 0)"/>
     <use xlink:href="#Arial-ItalicMT-72" transform="translate(350.195312 0)"/>
     <use xlink:href="#Arial-ItalicMT-65" transform="translate(383.496094 0)"/>
     <use xlink:href="#Arial-ItalicMT-63" transform="translate(439.111328 0)"/>
     <use xlink:href="#Arial-ItalicMT-6f" transform="translate(489.111328 0)"/>
     <use xlink:href="#Arial-ItalicMT-67" transform="translate(544.726562 0)"/>
     <use xlink:href="#Arial-ItalicMT-6e" transform="translate(600.341797 0)"/>
     <use xlink:href="#Arial-ItalicMT-69" transform="translate(655.957031 0)"/>
     <use xlink:href="#Arial-ItalicMT-74" transform="translate(678.173828 0)"/>
     <use xlink:href="#Arial-ItalicMT-69" transform="translate(705.957031 0)"/>
     <use xlink:href="#Arial-ItalicMT-6f" transform="translate(728.173828 0)"/>
     <use xlink:href="#Arial-ItalicMT-6e" transform="translate(783.789062 0)"/>
    </g>
   </g>
   <g id="patch_6">
    <path d="M 595.368 168.470762 
C 608.738055 168.470762 621.562307 166.990977 631.016364 164.357312 
C 640.470421 161.723646 645.7824 158.151128 645.7824 154.426562 
C 645.7824 150.701997 640.470421 147.129479 631.016364 144.495813 
C 621.562307 141.862148 608.738055 140.382362 595.368 140.382362 
C 581.997945 140.382362 569.173693 141.862148 559.719636 144.495813 
C 550.265579 147.129479 544.9536 150.701997 544.9536 154.426562 
C 544.9536 158.151128 550.265579 161.723646 559.719636 164.357312 
C 569.173693 166.990977 581.997945 168.470762 595.368 168.470762 
z
" clip-path="url(#pee8f403dc6)" style="fill: #2e86ab; opacity: 0.75; stroke: #2e86ab; stroke-linejoin: miter"/>
   </g>
   <g id="text_7">
    <!-- Deep -->
    <g style="fill: #3b3b3b" transform="translate(583.142219 90.263662) scale(0.1 -0.1)">
     <defs>
      <path id="Arial-BoldMT-70" d="M 434 3319 
L 1253 3319 
L 1253 2831 
Q 1413 3081 1684 3237 
Q 1956 3394 2288 3394 
Q 2866 3394 3269 2941 
Q 3672 2488 3672 1678 
Q 3672 847 3265 386 
Q 2859 -75 2281 -75 
Q 2006 -75 1782 34 
Q 1559 144 1313 409 
L 1313 -1263 
L 434 -1263 
L 434 3319 
z
M 1303 1716 
Q 1303 1156 1525 889 
Q 1747 622 2066 622 
Q 2372 622 2575 867 
Q 2778 1113 2778 1672 
Q 2778 2194 2568 2447 
Q 2359 2700 2050 2700 
Q 1728 2700 1515 2451 
Q 1303 2203 1303 1716 
z
" transform="scale(0.015625)"/>
     </defs>
     <use xlink:href="#Arial-BoldMT-44"/>
     <use xlink:href="#Arial-BoldMT-65" transform="translate(72.216797 0)"/>
     <use xlink:href="#Arial-BoldMT-65" transform="translate(127.832031 0)"/>
     <use xlink:href="#Arial-BoldMT-70" transform="translate(183.447266 0)"/>
    </g>
    <!-- Learning -->
    <g style="fill: #3b3b3b" transform="translate(574.256281 100.826475) scale(0.1 -0.1)">
     <use xlink:href="#Arial-BoldMT-4c"/>
     <use xlink:href="#Arial-BoldMT-65" transform="translate(61.083984 0)"/>
     <use xlink:href="#Arial-BoldMT-61" transform="translate(116.699219 0)"/>
     <use xlink:href="#Arial-BoldMT-72" transform="translate(172.314453 0)"/>
     <use xlink:href="#Arial-BoldMT-6e" transform="translate(211.230469 0)"/>
     <use xlink:href="#Arial-BoldMT-69" transform="translate(272.314453 0)"/>
     <use xlink:href="#Arial-BoldMT-6e" transform="translate(300.097656 0)"/>
     <use xlink:href="#Arial-BoldMT-67" transform="translate(361.181641 0)"/>
    </g>
   </g>
   <g id="text_8">
    <!-- Complex patterns -->
    <g style="fill: #3b3b3b" transform="translate(564.022375 211.745712) scale(0.08 -0.08)">
     <defs>
      <path id="Arial-ItalicMT-43" d="M 3859 1613 
L 4466 1528 
Q 4178 734 3628 328 
Q 3078 -78 2394 -78 
Q 1559 -78 1070 431 
Q 581 941 581 1891 
Q 581 3128 1325 3938 
Q 1988 4659 2972 4659 
Q 3700 4659 4151 4268 
Q 4603 3878 4675 3219 
L 4103 3166 
Q 4013 3663 3730 3908 
Q 3447 4153 3000 4153 
Q 2159 4153 1641 3406 
Q 1191 2763 1191 1878 
Q 1191 1172 1537 800 
Q 1884 428 2441 428 
Q 2916 428 3300 737 
Q 3684 1047 3859 1613 
z
" transform="scale(0.015625)"/>
      <path id="Arial-ItalicMT-70" d="M -66 -1272 
L 894 3319 
L 1416 3319 
L 1319 2856 
Q 1609 3159 1839 3276 
Q 2069 3394 2325 3394 
Q 2800 3394 3112 3048 
Q 3425 2703 3425 2059 
Q 3425 1541 3253 1114 
Q 3081 688 2831 428 
Q 2581 169 2325 47 
Q 2069 -75 1800 -75 
Q 1203 -75 875 531 
L 500 -1272 
L -66 -1272 
z
M 1053 1356 
Q 1053 984 1106 841 
Q 1184 638 1362 513 
Q 1541 388 1775 388 
Q 2263 388 2563 936 
Q 2863 1484 2863 2056 
Q 2863 2478 2661 2708 
Q 2459 2938 2159 2938 
Q 1944 2938 1759 2823 
Q 1575 2709 1417 2482 
Q 1259 2256 1156 1928 
Q 1053 1600 1053 1356 
z
" transform="scale(0.015625)"/>
      <path id="Arial-ItalicMT-78" d="M -9 0 
L 1434 1684 
L 606 3319 
L 1231 3319 
L 1513 2728 
Q 1669 2397 1794 2094 
L 2750 3319 
L 3441 3319 
L 2047 1641 
L 2884 0 
L 2259 0 
L 1928 675 
Q 1822 891 1688 1209 
L 700 0 
L -9 0 
z
" transform="scale(0.015625)"/>
     </defs>
     <use xlink:href="#Arial-ItalicMT-43"/>
     <use xlink:href="#Arial-ItalicMT-6f" transform="translate(72.216797 0)"/>
     <use xlink:href="#Arial-ItalicMT-6d" transform="translate(127.832031 0)"/>
     <use xlink:href="#Arial-ItalicMT-70" transform="translate(211.132812 0)"/>
     <use xlink:href="#Arial-ItalicMT-6c" transform="translate(266.748047 0)"/>
     <use xlink:href="#Arial-ItalicMT-65" transform="translate(288.964844 0)"/>
     <use xlink:href="#Arial-ItalicMT-78" transform="translate(344.580078 0)"/>
     <use xlink:href="#Arial-ItalicMT-20" transform="translate(394.580078 0)"/>
     <use xlink:href="#Arial-ItalicMT-70" transform="translate(422.363281 0)"/>
     <use xlink:href="#Arial-ItalicMT-61" transform="translate(477.978516 0)"/>
     <use xlink:href="#Arial-ItalicMT-74" transform="translate(533.59375 0)"/>
     <use xlink:href="#Arial-ItalicMT-74" transform="translate(561.376953 0)"/>
     <use xlink:href="#Arial-ItalicMT-65" transform="translate(589.160156 0)"/>
     <use xlink:href="#Arial-ItalicMT-72" transform="translate(644.775391 0)"/>
     <use xlink:href="#Arial-ItalicMT-6e" transform="translate(678.076172 0)"/>
     <use xlink:href="#Arial-ItalicMT-73" transform="translate(733.691406 0)"/>
    </g>
    <!-- Multi-modal analysis -->
    <g style="fill: #3b3b3b" transform="translate(559.1355 220.207212) scale(0.08 -0.08)">
     <defs>
      <path id="Arial-ItalicMT-4d" d="M 281 0 
L 1238 4581 
L 1991 4581 
L 2453 1613 
Q 2544 1028 2572 491 
Q 2763 953 3209 1744 
L 4816 4581 
L 5581 4581 
L 4625 0 
L 4022 0 
L 4500 2228 
Q 4666 3000 4975 3959 
Q 4778 3513 4488 2997 
L 2781 0 
L 2191 0 
L 1731 2938 
Q 1669 3341 1641 3878 
Q 1563 3275 1488 2922 
L 878 0 
L 281 0 
z
" transform="scale(0.015625)"/>
     </defs>
     <use xlink:href="#Arial-ItalicMT-4d"/>
     <use xlink:href="#Arial-ItalicMT-75" transform="translate(83.300781 0)"/>
     <use xlink:href="#Arial-ItalicMT-6c" transform="translate(138.916016 0)"/>
     <use xlink:href="#Arial-ItalicMT-74" transform="translate(161.132812 0)"/>
     <use xlink:href="#Arial-ItalicMT-69" transform="translate(188.916016 0)"/>
     <use xlink:href="#Arial-ItalicMT-2d" transform="translate(211.132812 0)"/>
     <use xlink:href="#Arial-ItalicMT-6d" transform="translate(244.433594 0)"/>
     <use xlink:href="#Arial-ItalicMT-6f" transform="translate(327.734375 0)"/>
     <use xlink:href="#Arial-ItalicMT-64" transform="translate(383.349609 0)"/>
     <use xlink:href="#Arial-ItalicMT-61" transform="translate(438.964844 0)"/>
     <use xlink:href="#Arial-ItalicMT-6c" transform="translate(494.580078 0)"/>
     <use xlink:href="#Arial-ItalicMT-20" transform="translate(516.796875 0)"/>
     <use xlink:href="#Arial-ItalicMT-61" transform="translate(544.580078 0)"/>
     <use xlink:href="#Arial-ItalicMT-6e" transform="translate(600.195312 0)"/>
     <use xlink:href="#Arial-ItalicMT-61" transform="translate(655.810547 0)"/>
     <use xlink:href="#Arial-ItalicMT-6c" transform="translate(711.425781 0)"/>
     <use xlink:href="#Arial-ItalicMT-79" transform="translate(733.642578 0)"/>
     <use xlink:href="#Arial-ItalicMT-73" transform="translate(783.642578 0)"/>
     <use xlink:href="#Arial-ItalicMT-69" transform="translate(833.642578 0)"/>
     <use xlink:href="#Arial-ItalicMT-73" transform="translate(855.859375 0)"/>
    </g>
   </g>
   <g id="patch_7">
    <path d="M 763.416 168.470762 
C 776.786055 168.470762 789.610307 166.990977 799.064364 164.357312 
C 808.518421 161.723646 813.8304 158.151128 813.8304 154.426562 
C 813.8304 150.701997 808.518421 147.129479 799.064364 144.495813 
C 789.610307 141.862148 776.786055 140.382362 763.416 140.382362 
C 750.045945 140.382362 737.221693 141.862148 727.767636 144.495813 
C 718.313579 147.129479 713.0016 150.701997 713.0016 154.426562 
C 713.0016 158.151128 718.313579 161.723646 727.767636 164.357312 
C 737.221693 166.990977 750.045945 168.470762 763.416 168.470762 
z
" clip-path="url(#pee8f403dc6)" style="fill: #2e86ab; opacity: 0.9; stroke: #2e86ab; stroke-linejoin: miter"/>
   </g>
   <g id="text_9">
    <!-- Reinforcement -->
    <g style="fill: #3b3b3b" transform="translate(728.410531 90.263662) scale(0.1 -0.1)">
     <defs>
      <path id="Arial-BoldMT-66" d="M 75 3319 
L 563 3319 
L 563 3569 
Q 563 3988 652 4194 
Q 741 4400 980 4529 
Q 1219 4659 1584 4659 
Q 1959 4659 2319 4547 
L 2200 3934 
Q 1991 3984 1797 3984 
Q 1606 3984 1523 3895 
Q 1441 3806 1441 3553 
L 1441 3319 
L 2097 3319 
L 2097 2628 
L 1441 2628 
L 1441 0 
L 563 0 
L 563 2628 
L 75 2628 
L 75 3319 
z
" transform="scale(0.015625)"/>
     </defs>
     <use xlink:href="#Arial-BoldMT-52"/>
     <use xlink:href="#Arial-BoldMT-65" transform="translate(72.216797 0)"/>
     <use xlink:href="#Arial-BoldMT-69" transform="translate(127.832031 0)"/>
     <use xlink:href="#Arial-BoldMT-6e" transform="translate(155.615234 0)"/>
     <use xlink:href="#Arial-BoldMT-66" transform="translate(216.699219 0)"/>
     <use xlink:href="#Arial-BoldMT-6f" transform="translate(250 0)"/>
     <use xlink:href="#Arial-BoldMT-72" transform="translate(311.083984 0)"/>
     <use xlink:href="#Arial-BoldMT-63" transform="translate(350 0)"/>
     <use xlink:href="#Arial-BoldMT-65" transform="translate(405.615234 0)"/>
     <use xlink:href="#Arial-BoldMT-6d" transform="translate(461.230469 0)"/>
     <use xlink:href="#Arial-BoldMT-65" transform="translate(550.146484 0)"/>
     <use xlink:href="#Arial-BoldMT-6e" transform="translate(605.761719 0)"/>
     <use xlink:href="#Arial-BoldMT-74" transform="translate(666.845703 0)"/>
    </g>
    <!-- Learning -->
    <g style="fill: #3b3b3b" transform="translate(742.304281 100.826475) scale(0.1 -0.1)">
     <use xlink:href="#Arial-BoldMT-4c"/>
     <use xlink:href="#Arial-BoldMT-65" transform="translate(61.083984 0)"/>
     <use xlink:href="#Arial-BoldMT-61" transform="translate(116.699219 0)"/>
     <use xlink:href="#Arial-BoldMT-72" transform="translate(172.314453 0)"/>
     <use xlink:href="#Arial-BoldMT-6e" transform="translate(211.230469 0)"/>
     <use xlink:href="#Arial-BoldMT-69" transform="translate(272.314453 0)"/>
     <use xlink:href="#Arial-BoldMT-6e" transform="translate(300.097656 0)"/>
     <use xlink:href="#Arial-BoldMT-67" transform="translate(361.181641 0)"/>
    </g>
   </g>
   <g id="text_10">
    <!-- Autonomous -->
    <g style="fill: #3b3b3b" transform="translate(740.9585 211.648212) scale(0.08 -0.08)">
     <use xlink:href="#Arial-ItalicMT-41"/>
     <use xlink:href="#Arial-ItalicMT-75" transform="translate(66.699219 0)"/>
     <use xlink:href="#Arial-ItalicMT-74" transform="translate(122.314453 0)"/>
     <use xlink:href="#Arial-ItalicMT-6f" transform="translate(150.097656 0)"/>
     <use xlink:href="#Arial-ItalicMT-6e" transform="translate(205.712891 0)"/>
     <use xlink:href="#Arial-ItalicMT-6f" transform="translate(261.328125 0)"/>
     <use xlink:href="#Arial-ItalicMT-6d" transform="translate(316.943359 0)"/>
     <use xlink:href="#Arial-ItalicMT-6f" transform="translate(400.244141 0)"/>
     <use xlink:href="#Arial-ItalicMT-75" transform="translate(455.859375 0)"/>
     <use xlink:href="#Arial-ItalicMT-73" transform="translate(511.474609 0)"/>
    </g>
    <!-- Optimization -->
    <g style="fill: #3b3b3b" transform="translate(741.186625 220.226712) scale(0.08 -0.08)">
     <defs>
      <path id="Arial-ItalicMT-4f" d="M 584 1919 
Q 584 3144 1292 3901 
Q 2000 4659 3009 4659 
Q 3866 4659 4405 4101 
Q 4944 3544 4944 2606 
Q 4944 1938 4672 1366 
Q 4469 938 4159 627 
Q 3850 316 3497 147 
Q 3028 -78 2503 -78 
Q 1953 -78 1501 184 
Q 1050 447 817 917 
Q 584 1388 584 1919 
z
M 1188 1888 
Q 1188 1484 1355 1146 
Q 1522 809 1853 618 
Q 2184 428 2550 428 
Q 2903 428 3222 595 
Q 3541 763 3792 1061 
Q 4044 1359 4189 1795 
Q 4334 2231 4334 2653 
Q 4334 3338 3951 3744 
Q 3569 4150 3006 4150 
Q 2288 4150 1738 3536 
Q 1188 2922 1188 1888 
z
" transform="scale(0.015625)"/>
      <path id="Arial-ItalicMT-7a" d="M 125 0 
L 216 438 
L 2000 2447 
Q 2191 2659 2425 2888 
Q 2022 2847 1847 2847 
L 613 2847 
L 713 3319 
L 3278 3319 
L 3203 2963 
L 1403 941 
Q 1250 769 947 469 
Q 1419 497 1594 497 
L 2900 497 
L 2797 0 
L 125 0 
z
" transform="scale(0.015625)"/>
     </defs>
     <use xlink:href="#Arial-ItalicMT-4f"/>
     <use xlink:href="#Arial-ItalicMT-70" transform="translate(77.783203 0)"/>
     <use xlink:href="#Arial-ItalicMT-74" transform="translate(133.398438 0)"/>
     <use xlink:href="#Arial-ItalicMT-69" transform="translate(161.181641 0)"/>
     <use xlink:href="#Arial-ItalicMT-6d" transform="translate(183.398438 0)"/>
     <use xlink:href="#Arial-ItalicMT-69" transform="translate(266.699219 0)"/>
     <use xlink:href="#Arial-ItalicMT-7a" transform="translate(288.916016 0)"/>
     <use xlink:href="#Arial-ItalicMT-61" transform="translate(338.916016 0)"/>
     <use xlink:href="#Arial-ItalicMT-74" transform="translate(394.53125 0)"/>
     <use xlink:href="#Arial-ItalicMT-69" transform="translate(422.314453 0)"/>
     <use xlink:href="#Arial-ItalicMT-6f" transform="translate(444.53125 0)"/>
     <use xlink:href="#Arial-ItalicMT-6e" transform="translate(500.146484 0)"/>
    </g>
   </g>
   <g id="text_11">
    <!-- Simple -->
    <g style="fill: #3b3b3b" transform="translate(24.0048 157.072656) scale(0.1 -0.1)">
     <defs>
      <path id="ArialMT-53" d="M 288 1472 
L 859 1522 
Q 900 1178 1048 958 
Q 1197 738 1509 602 
Q 1822 466 2213 466 
Q 2559 466 2825 569 
Q 3091 672 3220 851 
Q 3350 1031 3350 1244 
Q 3350 1459 3225 1620 
Q 3100 1781 2813 1891 
Q 2628 1963 1997 2114 
Q 1366 2266 1113 2400 
Q 784 2572 623 2826 
Q 463 3081 463 3397 
Q 463 3744 659 4045 
Q 856 4347 1234 4503 
Q 1613 4659 2075 4659 
Q 2584 4659 2973 4495 
Q 3363 4331 3572 4012 
Q 3781 3694 3797 3291 
L 3216 3247 
Q 3169 3681 2898 3903 
Q 2628 4125 2100 4125 
Q 1550 4125 1298 3923 
Q 1047 3722 1047 3438 
Q 1047 3191 1225 3031 
Q 1400 2872 2139 2705 
Q 2878 2538 3153 2413 
Q 3553 2228 3743 1945 
Q 3934 1663 3934 1294 
Q 3934 928 3725 604 
Q 3516 281 3123 101 
Q 2731 -78 2241 -78 
Q 1619 -78 1198 103 
Q 778 284 539 648 
Q 300 1013 288 1472 
z
" transform="scale(0.015625)"/>
      <path id="ArialMT-69" d="M 425 3934 
L 425 4581 
L 988 4581 
L 988 3934 
L 425 3934 
z
M 425 0 
L 425 3319 
L 988 3319 
L 988 0 
L 425 0 
z
" transform="scale(0.015625)"/>
      <path id="ArialMT-6d" d="M 422 0 
L 422 3319 
L 925 3319 
L 925 2853 
Q 1081 3097 1340 3245 
Q 1600 3394 1931 3394 
Q 2300 3394 2536 3241 
Q 2772 3088 2869 2813 
Q 3263 3394 3894 3394 
Q 4388 3394 4653 3120 
Q 4919 2847 4919 2278 
L 4919 0 
L 4359 0 
L 4359 2091 
Q 4359 2428 4304 2576 
Q 4250 2725 4106 2815 
Q 3963 2906 3769 2906 
Q 3419 2906 3187 2673 
Q 2956 2441 2956 1928 
L 2956 0 
L 2394 0 
L 2394 2156 
Q 2394 2531 2256 2718 
Q 2119 2906 1806 2906 
Q 1569 2906 1367 2781 
Q 1166 2656 1075 2415 
Q 984 2175 984 1722 
L 984 0 
L 422 0 
z
" transform="scale(0.015625)"/>
      <path id="ArialMT-70" d="M 422 -1272 
L 422 3319 
L 934 3319 
L 934 2888 
Q 1116 3141 1344 3267 
Q 1572 3394 1897 3394 
Q 2322 3394 2647 3175 
Q 2972 2956 3137 2557 
Q 3303 2159 3303 1684 
Q 3303 1175 3120 767 
Q 2938 359 2589 142 
Q 2241 -75 1856 -75 
Q 1575 -75 1351 44 
Q 1128 163 984 344 
L 984 -1272 
L 422 -1272 
z
M 931 1641 
Q 931 1000 1190 694 
Q 1450 388 1819 388 
Q 2194 388 2461 705 
Q 2728 1022 2728 1688 
Q 2728 2322 2467 2637 
Q 2206 2953 1844 2953 
Q 1484 2953 1207 2617 
Q 931 2281 931 1641 
z
" transform="scale(0.015625)"/>
      <path id="ArialMT-6c" d="M 409 0 
L 409 4581 
L 972 4581 
L 972 0 
L 409 0 
z
" transform="scale(0.015625)"/>
      <path id="ArialMT-65" d="M 2694 1069 
L 3275 997 
Q 3138 488 2766 206 
Q 2394 -75 1816 -75 
Q 1088 -75 661 373 
Q 234 822 234 1631 
Q 234 2469 665 2931 
Q 1097 3394 1784 3394 
Q 2450 3394 2872 2941 
Q 3294 2488 3294 1666 
Q 3294 1616 3291 1516 
L 816 1516 
Q 847 969 1125 678 
Q 1403 388 1819 388 
Q 2128 388 2347 550 
Q 2566 713 2694 1069 
z
M 847 1978 
L 2700 1978 
Q 2663 2397 2488 2606 
Q 2219 2931 1791 2931 
Q 1403 2931 1139 2672 
Q 875 2413 847 1978 
z
" transform="scale(0.015625)"/>
     </defs>
     <use xlink:href="#ArialMT-53"/>
     <use xlink:href="#ArialMT-69" transform="translate(66.699219 0)"/>
     <use xlink:href="#ArialMT-6d" transform="translate(88.916016 0)"/>
     <use xlink:href="#ArialMT-70" transform="translate(172.216797 0)"/>
     <use xlink:href="#ArialMT-6c" transform="translate(227.832031 0)"/>
     <use xlink:href="#ArialMT-65" transform="translate(250.048828 0)"/>
    </g>
   </g>
   <g id="text_12">
    <!-- Complex -->
    <g style="fill: #3b3b3b" transform="translate(791.17895 157.072656) scale(0.1 -0.1)">
     <defs>
      <path id="ArialMT-43" d="M 3763 1606 
L 4369 1453 
Q 4178 706 3683 314 
Q 3188 -78 2472 -78 
Q 1731 -78 1267 223 
Q 803 525 561 1097 
Q 319 1669 319 2325 
Q 319 3041 592 3573 
Q 866 4106 1370 4382 
Q 1875 4659 2481 4659 
Q 3169 4659 3637 4309 
Q 4106 3959 4291 3325 
L 3694 3184 
Q 3534 3684 3231 3912 
Q 2928 4141 2469 4141 
Q 1941 4141 1586 3887 
Q 1231 3634 1087 3207 
Q 944 2781 944 2328 
Q 944 1744 1114 1308 
Q 1284 872 1643 656 
Q 2003 441 2422 441 
Q 2931 441 3284 734 
Q 3638 1028 3763 1606 
z
" transform="scale(0.015625)"/>
      <path id="ArialMT-6f" d="M 213 1659 
Q 213 2581 725 3025 
Q 1153 3394 1769 3394 
Q 2453 3394 2887 2945 
Q 3322 2497 3322 1706 
Q 3322 1066 3130 698 
Q 2938 331 2570 128 
Q 2203 -75 1769 -75 
Q 1072 -75 642 372 
Q 213 819 213 1659 
z
M 791 1659 
Q 791 1022 1069 705 
Q 1347 388 1769 388 
Q 2188 388 2466 706 
Q 2744 1025 2744 1678 
Q 2744 2294 2464 2611 
Q 2184 2928 1769 2928 
Q 1347 2928 1069 2612 
Q 791 2297 791 1659 
z
" transform="scale(0.015625)"/>
      <path id="ArialMT-78" d="M 47 0 
L 1259 1725 
L 138 3319 
L 841 3319 
L 1350 2541 
Q 1494 2319 1581 2169 
Q 1719 2375 1834 2534 
L 2394 3319 
L 3066 3319 
L 1919 1756 
L 3153 0 
L 2463 0 
L 1781 1031 
L 1600 1309 
L 728 0 
L 47 0 
z
" transform="scale(0.015625)"/>
     </defs>
     <use xlink:href="#ArialMT-43"/>
     <use xlink:href="#ArialMT-6f" transform="translate(72.216797 0)"/>
     <use xlink:href="#ArialMT-6d" transform="translate(127.832031 0)"/>
     <use xlink:href="#ArialMT-70" transform="translate(211.132812 0)"/>
     <use xlink:href="#ArialMT-6c" transform="translate(266.748047 0)"/>
     <use xlink:href="#ArialMT-65" transform="translate(288.964844 0)"/>
     <use xlink:href="#ArialMT-78" transform="translate(344.580078 0)"/>
    </g>
   </g>
   <g id="text_13">
    <!-- Figure 2.1: The AI Infrastructure Intelligence Spectrum -->
    <g style="fill: #262626" transform="translate(246.722187 17.391562) scale(0.14 -0.14)">
     <defs>
      <path id="Arial-BoldMT-46" d="M 472 0 
L 472 4581 
L 3613 4581 
L 3613 3806 
L 1397 3806 
L 1397 2722 
L 3309 2722 
L 3309 1947 
L 1397 1947 
L 1397 0 
L 472 0 
z
" transform="scale(0.015625)"/>
      <path id="Arial-BoldMT-20" transform="scale(0.015625)"/>
      <path id="Arial-BoldMT-32" d="M 3238 816 
L 3238 0 
L 159 0 
Q 209 463 459 877 
Q 709 1291 1447 1975 
Q 2041 2528 2175 2725 
Q 2356 2997 2356 3263 
Q 2356 3556 2198 3714 
Q 2041 3872 1763 3872 
Q 1488 3872 1325 3706 
Q 1163 3541 1138 3156 
L 263 3244 
Q 341 3969 753 4284 
Q 1166 4600 1784 4600 
Q 2463 4600 2850 4234 
Q 3238 3869 3238 3325 
Q 3238 3016 3127 2736 
Q 3016 2456 2775 2150 
Q 2616 1947 2200 1565 
Q 1784 1184 1673 1059 
Q 1563 934 1494 816 
L 3238 816 
z
" transform="scale(0.015625)"/>
      <path id="Arial-BoldMT-2e" d="M 459 0 
L 459 878 
L 1338 878 
L 1338 0 
L 459 0 
z
" transform="scale(0.015625)"/>
      <path id="Arial-BoldMT-31" d="M 2519 0 
L 1641 0 
L 1641 3309 
Q 1159 2859 506 2644 
L 506 3441 
Q 850 3553 1253 3867 
Q 1656 4181 1806 4600 
L 2519 4600 
L 2519 0 
z
" transform="scale(0.015625)"/>
      <path id="Arial-BoldMT-3a" d="M 628 2441 
L 628 3319 
L 1506 3319 
L 1506 2441 
L 628 2441 
z
M 628 0 
L 628 878 
L 1506 878 
L 1506 0 
L 628 0 
z
" transform="scale(0.015625)"/>
      <path id="Arial-BoldMT-54" d="M 1497 0 
L 1497 3806 
L 138 3806 
L 138 4581 
L 3778 4581 
L 3778 3806 
L 2422 3806 
L 2422 0 
L 1497 0 
z
" transform="scale(0.015625)"/>
      <path id="Arial-BoldMT-49" d="M 438 0 
L 438 4581 
L 1363 4581 
L 1363 0 
L 438 0 
z
" transform="scale(0.015625)"/>
     </defs>
     <use xlink:href="#Arial-BoldMT-46"/>
     <use xlink:href="#Arial-BoldMT-69" transform="translate(61.083984 0)"/>
     <use xlink:href="#Arial-BoldMT-67" transform="translate(88.867188 0)"/>
     <use xlink:href="#Arial-BoldMT-75" transform="translate(149.951172 0)"/>
     <use xlink:href="#Arial-BoldMT-72" transform="translate(211.035156 0)"/>
     <use xlink:href="#Arial-BoldMT-65" transform="translate(249.951172 0)"/>
     <use xlink:href="#Arial-BoldMT-20" transform="translate(305.566406 0)"/>
     <use xlink:href="#Arial-BoldMT-32" transform="translate(333.349609 0)"/>
     <use xlink:href="#Arial-BoldMT-2e" transform="translate(388.964844 0)"/>
     <use xlink:href="#Arial-BoldMT-31" transform="translate(416.748047 0)"/>
     <use xlink:href="#Arial-BoldMT-3a" transform="translate(472.363281 0)"/>
     <use xlink:href="#Arial-BoldMT-20" transform="translate(505.664062 0)"/>
     <use xlink:href="#Arial-BoldMT-54" transform="translate(533.447266 0)"/>
     <use xlink:href="#Arial-BoldMT-68" transform="translate(594.53125 0)"/>
     <use xlink:href="#Arial-BoldMT-65" transform="translate(655.615234 0)"/>
     <use xlink:href="#Arial-BoldMT-20" transform="translate(711.230469 0)"/>
     <use xlink:href="#Arial-BoldMT-41" transform="translate(735.263672 0)"/>
     <use xlink:href="#Arial-BoldMT-49" transform="translate(807.480469 0)"/>
     <use xlink:href="#Arial-BoldMT-20" transform="translate(835.263672 0)"/>
     <use xlink:href="#Arial-BoldMT-49" transform="translate(863.046875 0)"/>
     <use xlink:href="#Arial-BoldMT-6e" transform="translate(890.830078 0)"/>
     <use xlink:href="#Arial-BoldMT-66" transform="translate(951.914062 0)"/>
     <use xlink:href="#Arial-BoldMT-72" transform="translate(985.214844 0)"/>
     <use xlink:href="#Arial-BoldMT-61" transform="translate(1024.130859 0)"/>
     <use xlink:href="#Arial-BoldMT-73" transform="translate(1079.746094 0)"/>
     <use xlink:href="#Arial-BoldMT-74" transform="translate(1135.361328 0)"/>
     <use xlink:href="#Arial-BoldMT-72" transform="translate(1168.662109 0)"/>
     <use xlink:href="#Arial-BoldMT-75" transform="translate(1207.578125 0)"/>
     <use xlink:href="#Arial-BoldMT-63" transform="translate(1268.662109 0)"/>
     <use xlink:href="#Arial-BoldMT-74" transform="translate(1324.277344 0)"/>
     <use xlink:href="#Arial-BoldMT-75" transform="translate(1357.578125 0)"/>
     <use xlink:href="#Arial-BoldMT-72" transform="translate(1418.662109 0)"/>
     <use xlink:href="#Arial-BoldMT-65" transform="translate(1457.578125 0)"/>
     <use xlink:href="#Arial-BoldMT-20" transform="translate(1513.193359 0)"/>
     <use xlink:href="#Arial-BoldMT-49" transform="translate(1540.976562 0)"/>
     <use xlink:href="#Arial-BoldMT-6e" transform="translate(1568.759766 0)"/>
     <use xlink:href="#Arial-BoldMT-74" transform="translate(1629.84375 0)"/>
     <use xlink:href="#Arial-BoldMT-65" transform="translate(1663.144531 0)"/>
     <use xlink:href="#Arial-BoldMT-6c" transform="translate(1718.759766 0)"/>
     <use xlink:href="#Arial-BoldMT-6c" transform="translate(1746.542969 0)"/>
     <use xlink:href="#Arial-BoldMT-69" transform="translate(1774.326172 0)"/>
     <use xlink:href="#Arial-BoldMT-67" transform="translate(1802.109375 0)"/>
     <use xlink:href="#Arial-BoldMT-65" transform="translate(1863.193359 0)"/>
     <use xlink:href="#Arial-BoldMT-6e" transform="translate(1918.808594 0)"/>
     <use xlink:href="#Arial-BoldMT-63" transform="translate(1979.892578 0)"/>
     <use xlink:href="#Arial-BoldMT-65" transform="translate(2035.507812 0)"/>
     <use xlink:href="#Arial-BoldMT-20" transform="translate(2091.123047 0)"/>
     <use xlink:href="#Arial-BoldMT-53" transform="translate(2118.90625 0)"/>
     <use xlink:href="#Arial-BoldMT-70" transform="translate(2185.605469 0)"/>
     <use xlink:href="#Arial-BoldMT-65" transform="translate(2246.689453 0)"/>
     <use xlink:href="#Arial-BoldMT-63" transform="translate(2302.304688 0)"/>
     <use xlink:href="#Arial-BoldMT-74" transform="translate(2357.919922 0)"/>
     <use xlink:href="#Arial-BoldMT-72" transform="translate(2391.220703 0)"/>
     <use xlink:href="#Arial-BoldMT-75" transform="translate(2430.136719 0)"/>
     <use xlink:href="#Arial-BoldMT-6d" transform="translate(2491.220703 0)"/>
    </g>
   </g>
   <g id="text_14">
    <!-- 1 -->
    <g style="fill: #ffffff" transform="translate(87.331344 158.055625) scale(0.14 -0.14)">
     <use xlink:href="#Arial-BoldMT-31"/>
    </g>
   </g>
   <g id="text_15">
    <!-- 2 -->
    <g style="fill: #ffffff" transform="translate(255.379344 158.055625) scale(0.14 -0.14)">
     <use xlink:href="#Arial-BoldMT-32"/>
    </g>
   </g>
   <g id="text_16">
    <!-- 3 -->
    <g style="fill: #ffffff" transform="translate(423.427344 158.055625) scale(0.14 -0.14)">
     <defs>
      <path id="Arial-BoldMT-33" d="M 241 1216 
L 1091 1319 
Q 1131 994 1309 822 
Q 1488 650 1741 650 
Q 2013 650 2198 856 
Q 2384 1063 2384 1413 
Q 2384 1744 2206 1937 
Q 2028 2131 1772 2131 
Q 1603 2131 1369 2066 
L 1466 2781 
Q 1822 2772 2009 2936 
Q 2197 3100 2197 3372 
Q 2197 3603 2059 3740 
Q 1922 3878 1694 3878 
Q 1469 3878 1309 3722 
Q 1150 3566 1116 3266 
L 306 3403 
Q 391 3819 561 4067 
Q 731 4316 1036 4458 
Q 1341 4600 1719 4600 
Q 2366 4600 2756 4188 
Q 3078 3850 3078 3425 
Q 3078 2822 2419 2463 
Q 2813 2378 3048 2084 
Q 3284 1791 3284 1375 
Q 3284 772 2843 347 
Q 2403 -78 1747 -78 
Q 1125 -78 715 280 
Q 306 638 241 1216 
z
" transform="scale(0.015625)"/>
     </defs>
     <use xlink:href="#Arial-BoldMT-33"/>
    </g>
   </g>
   <g id="text_17">
    <!-- 4 -->
    <g style="fill: #ffffff" transform="translate(591.475344 158.055625) scale(0.14 -0.14)">
     <defs>
      <path id="Arial-BoldMT-34" d="M 1994 0 
L 1994 922 
L 119 922 
L 119 1691 
L 2106 4600 
L 2844 4600 
L 2844 1694 
L 3413 1694 
L 3413 922 
L 2844 922 
L 2844 0 
L 1994 0 
z
M 1994 1694 
L 1994 3259 
L 941 1694 
L 1994 1694 
z
" transform="scale(0.015625)"/>
     </defs>
     <use xlink:href="#Arial-BoldMT-34"/>
    </g>
   </g>
   <g id="text_18">
    <!-- 5 -->
    <g style="fill: #ffffff" transform="translate(759.523344 158.055625) scale(0.14 -0.14)">
     <defs>
      <path id="Arial-BoldMT-35" d="M 284 1178 
L 1159 1269 
Q 1197 972 1381 798 
Q 1566 625 1806 625 
Q 2081 625 2272 848 
Q 2463 1072 2463 1522 
Q 2463 1944 2273 2155 
Q 2084 2366 1781 2366 
Q 1403 2366 1103 2031 
L 391 2134 
L 841 4519 
L 3163 4519 
L 3163 3697 
L 1506 3697 
L 1369 2919 
Q 1663 3066 1969 3066 
Q 2553 3066 2959 2641 
Q 3366 2216 3366 1538 
Q 3366 972 3038 528 
Q 2591 -78 1797 -78 
Q 1163 -78 763 262 
Q 363 603 284 1178 
z
" transform="scale(0.015625)"/>
     </defs>
     <use xlink:href="#Arial-BoldMT-35"/>
    </g>
   </g>
  </g>
 </g>
 <defs>
  <clipPath id="pee8f403dc6">
   <rect x="7.2" y="37.391562" width="840.24" height="234.07"/>
  </clipPath>
 </defs>
</svg>
